<svg width="327" height="244" viewBox="0 0 327 244" fill="none" xmlns="http://www.w3.org/2000/svg">
<path d="M234.22 77.4776C222.074 66.3227 209.249 80.8892 196.137 81.0719C180.416 81.2937 175.51 74.5486 165.575 63.909C150.917 48.2074 135.724 27.8807 111.999 28.5004C48.279 30.1704 50.1708 106.369 84.8292 141.7C107.315 164.61 131.895 158.426 160.33 161.348C185.967 163.957 226.392 184.982 251.748 171.035C274.332 158.608 267.906 125.691 245.877 116.598C238.747 113.656 234.566 106.872 235.512 99.148C236.392 91.8876 240.73 83.4464 234.22 77.4776Z" fill="#D54539"/>
<path opacity="0.9" d="M234.22 77.4776C222.074 66.3227 209.249 80.8892 196.137 81.0719C180.416 81.2937 175.51 74.5486 165.575 63.909C150.917 48.2074 135.724 27.8807 111.999 28.5004C48.279 30.1704 50.1708 106.369 84.8292 141.7C107.315 164.61 131.895 158.426 160.33 161.348C185.967 163.957 226.392 184.982 251.748 171.035C274.332 158.608 267.906 125.691 245.877 116.598C238.747 113.656 234.566 106.872 235.512 99.148C236.392 91.8876 240.73 83.4464 234.22 77.4776Z" fill="#FAF6EE"/>
<path d="M163.5 243.033C233.354 243.033 289.981 239.727 289.981 235.649C289.981 231.571 233.354 228.264 163.5 228.264C93.6469 228.264 37.0195 231.571 37.0195 235.649C37.0195 239.727 93.6469 243.033 163.5 243.033Z" fill="#EFB7B2"/>
<path d="M120.83 235.649H100.275C99.5004 235.649 98.7571 235.341 98.209 234.793C97.6609 234.245 97.353 233.501 97.353 232.726V196.907H123.753V232.733C123.751 233.507 123.443 234.248 122.895 234.795C122.347 235.342 121.604 235.649 120.83 235.649Z" fill="#D54539"/>
<path opacity="0.2" d="M123.754 196.907H97.3604V212.452L123.754 206.731V196.907Z" fill="black"/>
<path d="M135.11 149.913C135.11 140.051 139.028 130.593 146.001 123.62C152.974 116.647 162.432 112.73 172.293 112.73C182.155 112.73 191.612 116.647 198.586 123.62C205.559 130.593 209.476 140.051 209.476 149.913V196.881H135.11V149.913Z" fill="#D54539"/>
<path opacity="0.3" d="M135.11 149.913C135.11 140.051 139.028 130.593 146.001 123.62C152.974 116.647 162.432 112.73 172.293 112.73C182.155 112.73 191.612 116.647 198.586 123.62C205.559 130.593 209.476 140.051 209.476 149.913V196.881H135.11V149.913Z" fill="black"/>
<path d="M47.5742 149.906V192.275C47.5742 192.884 47.6942 193.487 47.9274 194.049C48.1606 194.611 48.5023 195.122 48.9331 195.552C49.3638 195.983 49.8752 196.324 50.4379 196.556C51.0006 196.788 51.6035 196.908 52.2123 196.907H135.111V149.906C135.111 140.045 139.028 130.587 146.001 123.614C152.975 116.641 162.432 112.723 172.294 112.723H84.7572C74.8956 112.723 65.438 116.641 58.4649 123.614C51.4917 130.587 47.5742 140.045 47.5742 149.906Z" fill="#D54539"/>
<path opacity="0.2" d="M47.5807 183.038H135.117V169.991H47.5807V183.038Z" fill="black"/>
<path opacity="0.2" d="M47.5807 165.94H135.117V152.894H47.5807V165.94Z" fill="black"/>
<path d="M140.597 110.44H129.944V111.092H140.597V110.44Z" fill="#D54539"/>
<path d="M124.36 110.44H118.633V111.092H124.36V110.44Z" fill="#D54539"/>
<path d="M90.3869 162.131V109.292C90.3869 109.081 90.3411 108.873 90.2525 108.682C90.1638 108.491 90.0346 108.321 89.8737 108.185C89.7129 108.049 89.5243 107.95 89.3211 107.894C89.1179 107.839 88.905 107.828 88.6973 107.863L70.2559 110.897V118.548H84.3528V162.013C82.9292 162.667 81.7696 163.785 81.0635 165.183C80.3575 166.582 80.1467 168.178 80.4656 169.712C80.7846 171.246 81.6144 172.626 82.8195 173.627C84.0245 174.628 85.5335 175.19 87.0998 175.223C88.666 175.255 90.1968 174.755 91.442 173.804C92.6871 172.853 93.5729 171.508 93.9546 169.989C94.3363 168.47 94.1912 166.866 93.5431 165.44C92.8951 164.013 91.7823 162.849 90.3869 162.137V162.131Z" fill="#263238"/>
<path d="M140.401 202.223H235.798C236.494 202.225 237.163 201.952 237.659 201.463C238.155 200.975 238.438 200.31 238.446 199.614C238.446 198.912 238.167 198.238 237.671 197.741C237.174 197.244 236.5 196.965 235.798 196.965H135.11C135.119 198.363 135.68 199.7 136.671 200.685C137.663 201.67 139.003 202.223 140.401 202.223Z" fill="#D54539"/>
<path opacity="0.2" d="M140.401 202.223H179.384C180.08 202.225 180.749 201.952 181.245 201.463C181.741 200.975 182.024 200.31 182.033 199.614C182.033 198.912 181.754 198.238 181.257 197.741C180.76 197.244 180.087 196.965 179.384 196.965H135.11C135.119 198.363 135.68 199.7 136.671 200.685C137.663 201.67 139.003 202.223 140.401 202.223Z" fill="black"/>
<path d="M231.656 229.869L226.137 229.915L224.63 217.135L230.155 217.09L231.656 229.869Z" fill="#D6B978"/>
<path opacity="0.2" d="M224.63 217.142L225.406 223.731L230.931 223.678L230.155 217.096L224.63 217.142Z" fill="black"/>
<path d="M276.51 216.32L271.761 219.138L264.031 208.851L268.78 206.033L276.51 216.32Z" fill="#D6B978"/>
<path opacity="0.2" d="M264.038 208.851L268.017 214.154L272.773 211.336L268.787 206.033L264.038 208.851Z" fill="black"/>
<path d="M226.124 229.275L232.158 229.223C232.27 229.224 232.378 229.261 232.467 229.328C232.556 229.395 232.622 229.488 232.654 229.595L234.115 234.494C234.153 234.608 234.162 234.729 234.144 234.847C234.125 234.965 234.078 235.077 234.007 235.173C233.936 235.27 233.843 235.348 233.736 235.401C233.629 235.454 233.511 235.481 233.391 235.479C231.212 235.479 228.062 235.362 225.322 235.388C222.125 235.388 220.703 235.616 216.952 235.649C214.682 235.649 213.886 233.379 214.819 233.163C219.066 232.185 221.264 232.054 224.826 229.719C225.207 229.449 225.658 229.295 226.124 229.275Z" fill="#263238"/>
<path d="M223.847 230.274C224.442 230.262 225.035 230.19 225.615 230.058C225.642 230.054 225.666 230.04 225.684 230.02C225.701 230 225.712 229.974 225.713 229.947C225.716 229.921 225.71 229.894 225.697 229.871C225.685 229.848 225.665 229.829 225.641 229.817C225.38 229.686 223.032 228.577 222.425 228.969C222.366 229.006 222.319 229.059 222.287 229.121C222.255 229.182 222.239 229.252 222.242 229.321C222.235 229.445 222.259 229.57 222.31 229.683C222.361 229.797 222.438 229.896 222.536 229.973C222.929 230.213 223.389 230.318 223.847 230.274ZM225.152 229.882C223.958 230.091 223.051 230.045 222.686 229.752C222.622 229.7 222.571 229.634 222.537 229.559C222.503 229.485 222.487 229.403 222.49 229.321C222.488 229.296 222.492 229.271 222.502 229.248C222.513 229.225 222.529 229.205 222.549 229.191C222.908 228.969 224.219 229.439 225.165 229.869L225.152 229.882Z" fill="#D54539"/>
<path d="M225.589 230.052C225.615 230.057 225.641 230.057 225.667 230.052C225.686 230.038 225.701 230.019 225.709 229.997C225.717 229.975 225.718 229.95 225.713 229.928C225.713 229.823 225.282 227.449 223.964 227.599C223.619 227.638 223.521 227.808 223.501 227.951C223.41 228.603 224.806 229.765 225.537 230.065L225.589 230.052ZM224.075 227.827C224.865 227.827 225.263 229.132 225.38 229.68C224.656 229.269 223.684 228.329 223.736 227.964C223.736 227.964 223.736 227.853 223.971 227.827H224.075Z" fill="#D54539"/>
<path d="M234.135 77.3862C233.411 81.5807 232.491 85.6056 231.375 89.6696C230.819 91.6962 230.203 93.7163 229.529 95.7298C229.177 96.7409 228.844 97.7455 228.447 98.7501C228.257 99.2524 228.068 99.7547 227.853 100.257L227.546 101.014L227.39 101.386L227.305 101.588L227.188 101.842C226.652 102.995 225.996 104.089 225.231 105.104C224.578 106.024 223.867 106.872 223.169 107.713C221.773 109.357 220.318 110.883 218.844 112.384C215.9 115.342 212.804 118.144 209.568 120.779L206.626 117.85C209.137 114.66 211.669 111.438 214.115 108.248C215.335 106.656 216.522 105.039 217.631 103.44C218.185 102.645 218.714 101.842 219.177 101.059C219.596 100.393 219.954 99.6899 220.247 98.9588C220.286 98.8806 220.377 98.5674 220.449 98.3587L220.671 97.6672C220.827 97.2171 220.964 96.7474 221.101 96.2778C221.382 95.3449 221.643 94.3925 221.91 93.4466C222.419 91.5353 222.895 89.6044 223.358 87.6604C224.259 83.7465 225.126 79.7933 225.909 75.9185L234.135 77.3862Z" fill="#D6B978"/>
<path d="M236.085 78.1495C235.752 84.451 232.699 93.2966 232.699 93.2966L224.128 90.035L220.599 88.7303C221.064 84.5582 222.054 80.4617 223.547 76.5382C226.157 69.8192 232.204 68.1818 235.289 73.1265C236.007 74.242 236.196 76.0555 236.085 78.1495Z" fill="#D54539"/>
<path opacity="0.2" d="M236.085 78.1495C235.752 84.451 232.7 93.2967 232.7 93.2967L224.128 90.035C224.638 87.8118 225.305 85.6275 226.124 83.4986C228.264 77.9016 232.83 75.8337 236.085 78.1495Z" fill="black"/>
<path d="M208.015 117.231L202.196 118.183L202.15 123.891C202.15 123.891 207.734 123.108 209.92 120.434L208.015 117.231Z" fill="#D6B978"/>
<path d="M196.808 121.49L196.932 125.241L202.15 123.891L202.189 118.183L196.808 121.49Z" fill="#D6B978"/>
<path d="M229.96 118.183C229.96 118.183 221.668 148.367 219.47 165.262C217.187 182.836 222.575 220.521 222.575 220.521L232.549 220.306C232.549 220.306 233.3 181.89 236.561 164.61C240.136 145.777 246.946 117.818 246.946 117.818L229.96 118.183Z" fill="#263238"/>
<path d="M233.776 220.756L222.047 220.991L221.186 217.096L233.626 217.064L233.776 220.756Z" fill="#D54539"/>
<path opacity="0.4" d="M233.776 220.756L222.047 220.991L221.186 217.096L233.626 217.064L233.776 220.756Z" fill="#FAF6EE"/>
<path d="M271.429 218.59L276.615 215.511C276.715 215.447 276.835 215.419 276.954 215.432C277.072 215.445 277.183 215.498 277.267 215.583L280.992 219.079C281.082 219.159 281.152 219.259 281.196 219.371C281.24 219.483 281.256 219.604 281.243 219.723C281.231 219.843 281.189 219.958 281.123 220.058C281.056 220.158 280.967 220.241 280.862 220.299C278.97 221.382 276.197 222.909 273.842 224.272C271.096 225.909 269.928 226.797 266.739 228.708C264.782 229.869 262.949 228.297 263.647 227.638C266.823 224.65 268.656 223.43 270.561 219.627C270.745 219.205 271.046 218.845 271.429 218.59Z" fill="#263238"/>
<path d="M269.955 220.586C270.461 220.275 270.937 219.917 271.377 219.517C271.396 219.497 271.409 219.473 271.415 219.446C271.421 219.42 271.419 219.392 271.409 219.367C271.4 219.341 271.381 219.319 271.358 219.305C271.334 219.291 271.306 219.285 271.279 219.288C270.985 219.288 268.422 219.51 268.076 220.175C268.039 220.235 268.02 220.304 268.02 220.374C268.02 220.445 268.039 220.514 268.076 220.573C268.133 220.679 268.214 220.77 268.313 220.839C268.411 220.908 268.525 220.953 268.644 220.971C269.111 220.99 269.572 220.855 269.955 220.586ZM270.901 219.582C269.974 220.365 269.165 220.782 268.702 220.71C268.622 220.698 268.545 220.668 268.479 220.622C268.412 220.575 268.357 220.514 268.317 220.443C268.304 220.42 268.296 220.394 268.296 220.368C268.296 220.341 268.304 220.315 268.317 220.293C268.526 219.941 269.863 219.686 270.901 219.582Z" fill="#D54539"/>
<path d="M271.357 219.53C271.379 219.512 271.397 219.49 271.409 219.464C271.422 219.445 271.429 219.422 271.429 219.399C271.429 219.376 271.422 219.353 271.409 219.334C271.344 219.256 269.784 217.377 268.728 218.199C268.447 218.408 268.447 218.61 268.499 218.74C268.734 219.321 270.561 219.641 271.324 219.549L271.357 219.53ZM268.93 218.368C269.615 217.971 270.606 218.884 271.011 219.301C270.169 219.301 268.865 218.988 268.721 218.649C268.721 218.649 268.682 218.551 268.858 218.421L268.93 218.368Z" fill="#D54539"/>
<path d="M240.273 117.961C240.273 117.961 240.273 147.616 241.05 164.636C241.846 182.34 263.96 212.804 263.96 212.804L272.473 207.585C272.473 207.585 257.534 178.596 257.762 161.015C258.01 141.843 259.498 117.531 259.498 117.531L240.273 117.961Z" fill="#263238"/>
<path d="M273.568 207.579L264.142 213.332L261.787 210.991L272.159 204.076L273.568 207.579Z" fill="#D54539"/>
<path opacity="0.4" d="M273.568 207.579L264.142 213.332L261.787 210.991L272.159 204.076L273.568 207.579Z" fill="#FAF6EE"/>
<path d="M229.275 70.452C229.275 70.452 223.111 87.2691 229.96 118.19L259.498 117.537C259.602 113.004 256.282 90.9483 260.202 69.4931C256.914 68.9428 253.593 68.6094 250.261 68.495C246.075 68.3376 241.885 68.4269 237.71 68.7624C234.859 69.1051 232.038 69.67 229.275 70.452Z" fill="#D54539"/>
<path d="M248.74 54.3589C248.036 58.4099 247.403 65.8334 250.286 68.4688C250.286 68.4688 249.269 72.6112 241.767 72.7481C235.772 72.859 237.735 68.7363 237.735 68.7363C242.217 67.5621 242.028 64.2222 241.173 61.104L248.74 54.3589Z" fill="#D6B978"/>
<path opacity="0.2" d="M245.655 57.1052L241.18 61.0975C241.388 61.8227 241.532 62.5649 241.61 63.3154C243.326 63.0349 245.655 61.091 245.798 59.284C245.884 58.5551 245.835 57.8166 245.655 57.1052Z" fill="black"/>
<path opacity="0.2" d="M253.613 80.1913L258.538 83.74C258.323 87.517 258.257 91.1896 258.29 94.6339C255.27 91.5941 253.58 86.0036 253.613 80.1913Z" fill="black"/>
<path d="M249.21 66.4532C249.21 66.4532 247.795 69.8584 241.187 72.7547C242.249 73.1817 243.211 73.8258 244.011 74.6457C244.811 75.4657 245.431 76.4436 245.831 77.5168C245.831 77.5168 250.639 72.9504 251.924 68.3841L249.21 66.4532Z" fill="#FAF6EE"/>
<path d="M236.248 76.2838C236.248 76.2838 238.27 73.3483 241.186 72.7547C240.162 71.5022 239.105 68.7233 240.084 67.4056C239.224 67.6322 238.391 67.9493 237.598 68.3515C237.598 68.3515 233.632 70.7325 236.248 76.2838Z" fill="#FAF6EE"/>
<path d="M235.667 42.7605C232.973 43.9151 231.636 51.169 235.146 52.7477C238.655 54.3263 240.769 40.5817 235.667 42.7605Z" fill="#263238"/>
<path d="M249.093 48.2726C248.871 53.7522 249.022 56.9682 246.321 59.8319C242.257 64.1438 235.453 61.7889 234.031 56.355C232.726 51.4625 233.326 43.3083 238.63 41.0382C239.798 40.5271 241.077 40.323 242.345 40.4454C243.614 40.5678 244.831 41.0126 245.879 41.7375C246.927 42.4624 247.773 43.4434 248.336 44.5872C248.898 45.731 249.159 46.9996 249.093 48.2726Z" fill="#D6B978"/>
<path d="M240.828 49.9753C240.828 50.4188 240.612 50.7841 240.319 50.7907C240.025 50.7972 239.784 50.4384 239.777 49.9948C239.771 49.5512 239.993 49.1859 240.286 49.1794C240.58 49.1729 240.821 49.5251 240.828 49.9753Z" fill="#263238"/>
<path d="M235.792 50.0797C235.792 50.5233 235.576 50.8886 235.283 50.8951C234.989 50.9016 234.748 50.5494 234.741 50.0993C234.735 49.6491 234.957 49.2904 235.25 49.2838C235.544 49.2773 235.785 49.6361 235.792 50.0797Z" fill="#263238"/>
<path d="M237.403 50.2687C236.9 51.6415 236.21 52.9387 235.354 54.124C235.663 54.3346 236.014 54.4752 236.382 54.536C236.751 54.5969 237.128 54.5765 237.488 54.4763L237.403 50.2687Z" fill="#D6B978"/>
<path d="M238.812 55.6766C239.412 55.6816 240.003 55.5418 240.537 55.2693C241.071 54.9967 241.531 54.5994 241.878 54.111C241.887 54.0967 241.894 54.0805 241.896 54.0637C241.899 54.0468 241.898 54.0295 241.894 54.013C241.89 53.9964 241.882 53.981 241.871 53.9675C241.861 53.9541 241.848 53.943 241.833 53.9349C241.804 53.9175 241.769 53.9118 241.737 53.9191C241.704 53.9264 241.675 53.9461 241.656 53.974C241.328 54.4212 240.898 54.7847 240.403 55.0352C239.908 55.2856 239.361 55.416 238.806 55.4157C238.789 55.4165 238.772 55.4207 238.756 55.4281C238.741 55.4354 238.727 55.4458 238.715 55.4585C238.704 55.4712 238.695 55.4861 238.689 55.5022C238.683 55.5184 238.681 55.5356 238.682 55.5527C238.683 55.5862 238.698 55.6177 238.722 55.6408C238.747 55.6638 238.779 55.6767 238.812 55.6766Z" fill="#263238"/>
<path d="M242.309 48.3184C242.368 48.3165 242.425 48.2959 242.472 48.2596C242.525 48.2162 242.559 48.1535 242.567 48.085C242.574 48.0166 242.554 47.9481 242.511 47.8943C242.261 47.5625 241.935 47.2952 241.56 47.1148C241.186 46.9344 240.774 46.8461 240.358 46.8571C240.289 46.8632 240.225 46.8965 240.18 46.9497C240.136 47.0029 240.114 47.0717 240.12 47.1409C240.126 47.2101 240.159 47.2741 240.213 47.3187C240.266 47.3634 240.335 47.385 240.404 47.379C240.732 47.3759 241.057 47.4499 241.351 47.5949C241.646 47.7399 241.902 47.9519 242.1 48.214C242.124 48.2468 242.155 48.2734 242.192 48.2915C242.228 48.3097 242.268 48.3189 242.309 48.3184Z" fill="#263238"/>
<path d="M233.548 48.3966C233.598 48.3961 233.647 48.3818 233.689 48.3553C233.732 48.3289 233.766 48.2913 233.789 48.2466C233.918 47.9409 234.118 47.6709 234.374 47.4596C234.629 47.2483 234.932 47.102 235.257 47.0332C235.326 47.022 235.387 46.9843 235.429 46.9283C235.47 46.8722 235.488 46.8022 235.479 46.7332C235.466 46.6651 235.428 46.6044 235.372 46.5633C235.316 46.5221 235.247 46.5036 235.178 46.5114C234.773 46.5986 234.393 46.7814 234.072 47.0446C233.751 47.3078 233.497 47.6438 233.332 48.0248C233.317 48.0555 233.308 48.089 233.306 48.1232C233.304 48.1575 233.309 48.1918 233.321 48.2241C233.332 48.2564 233.35 48.286 233.373 48.3112C233.397 48.3363 233.425 48.3565 233.456 48.3705C233.485 48.385 233.516 48.3939 233.548 48.3966Z" fill="#263238"/>
<path d="M261.147 73.3875C262.38 75.1619 263.463 76.8971 264.578 78.6845C265.694 80.4718 266.725 82.2723 267.749 84.0988C269.825 87.7981 271.673 91.6214 273.281 95.5473C273.489 96.0365 273.672 96.5584 273.861 97.0672L274.148 97.8369L274.292 98.2283L274.461 98.7633C274.877 100.169 275.027 101.64 274.905 103.101C274.647 105.654 273.796 108.111 272.42 110.277C271.222 112.21 269.796 113.993 268.173 115.587C267.397 116.37 266.575 117.094 265.74 117.792C264.894 118.49 264.012 119.143 263.098 119.749L260.443 116.565C261.023 115.913 261.682 115.104 262.269 114.354C262.856 113.604 263.43 112.801 263.972 112.019C265.027 110.514 265.934 108.911 266.679 107.231C267.328 105.832 267.668 104.31 267.677 102.769C267.654 102.18 267.53 101.6 267.312 101.053L266.79 99.8918C266.588 99.4613 266.405 99.0242 266.183 98.5871C264.5 95.0972 262.556 91.6267 260.514 88.1955C258.473 84.7642 256.333 81.3199 254.213 78.0256L261.147 73.3875Z" fill="#D6B978"/>
<path d="M260.202 69.5061C265.362 70.6216 272.786 86.5385 272.786 86.5385L258.963 93.2836C256.504 89.5237 254.461 85.5079 252.87 81.3068C250.463 74.5813 254.677 68.3058 260.202 69.5061Z" fill="#D54539"/>
<path d="M255.29 110.44L269.179 151.465C269.718 153.075 269.599 154.833 268.848 156.356C268.096 157.879 266.773 159.042 265.167 159.593L171.811 191.245C170.2 191.785 168.439 191.665 166.916 190.911C165.392 190.157 164.23 188.829 163.683 187.22L149.802 146.207C149.534 145.43 149.423 144.608 149.475 143.787C149.55 142.513 150.003 141.289 150.775 140.273C151.548 139.256 152.606 138.493 153.813 138.079L247.188 106.428C248.397 106.021 249.7 105.984 250.931 106.321C252.161 106.658 253.263 107.354 254.097 108.32C254.631 108.941 255.036 109.661 255.29 110.44Z" fill="#D54539"/>
<path opacity="0.8" d="M255.29 110.44L269.179 151.465C269.718 153.075 269.599 154.833 268.848 156.356C268.096 157.879 266.773 159.042 265.167 159.593L171.811 191.245C170.2 191.785 168.439 191.665 166.916 190.911C165.392 190.157 164.23 188.829 163.683 187.22L149.802 146.207C149.534 145.43 149.423 144.608 149.475 143.787C149.55 142.513 150.003 141.289 150.775 140.273C151.548 139.256 152.606 138.493 153.813 138.079L247.188 106.428C248.397 106.021 249.7 105.984 250.931 106.321C252.161 106.658 253.263 107.354 254.097 108.32C254.631 108.941 255.036 109.661 255.29 110.44Z" fill="#FAF6EE"/>
<path opacity="0.6" d="M254.07 108.32L215.445 142.861C213.504 144.596 211.232 145.92 208.766 146.755C206.3 147.59 203.69 147.919 201.094 147.721L149.442 143.807C149.517 142.532 149.97 141.309 150.742 140.292C151.515 139.276 152.572 138.512 153.78 138.099L247.155 106.448C248.363 106.037 249.667 105.996 250.898 106.329C252.13 106.663 253.234 107.356 254.07 108.32Z" fill="#D54539"/>
<path d="M261.839 115.802L255.902 115.841L259.562 121.836C259.562 121.836 263.789 120.812 264.18 118.685L261.839 115.802Z" fill="#D6B978"/>
<path d="M252.191 119.357L255.447 124.178L259.563 121.836L255.903 115.841L252.191 119.357Z" fill="#D6B978"/>
<path d="M252.83 43.8824C254.135 47.4572 250.188 55.7353 247.892 55.5787C245.596 55.4222 244.97 46.8179 246.274 44.6783C245.035 45.2523 233.228 45.2719 233.286 44.0259C233.586 39.4987 241.617 37.8548 250.423 40.1119C252.713 40.001 253.567 40.6273 252.83 43.8824Z" fill="#263238"/>
<path d="M251.689 54.2415C251.34 54.8283 250.877 55.3399 250.329 55.7464C249.78 56.1529 249.156 56.4463 248.493 56.6095C246.718 57.0401 245.883 55.4418 246.444 53.798C246.934 52.3172 248.447 50.3145 250.208 50.6146C251.97 50.9146 252.55 52.7868 251.689 54.2415Z" fill="#D6B978"/>
<path d="M226.248 41.7493L253.346 44.8805C253.482 44.8952 253.619 44.8555 253.726 44.77C253.834 44.6846 253.903 44.5602 253.92 44.4239C253.934 44.2883 253.896 44.1524 253.812 44.0451C253.727 43.9379 253.605 43.8678 253.47 43.8498L226.365 40.7251C226.23 40.7103 226.094 40.7491 225.986 40.8332C225.879 40.9174 225.809 41.0401 225.791 41.1753C225.776 41.3118 225.816 41.4486 225.902 41.556C225.987 41.6635 226.111 41.7329 226.248 41.7493Z" fill="#D54539"/>
<path d="M253.919 44.3978L254.389 40.3533C254.384 39.9111 254.214 39.4867 253.912 39.1633C253.611 38.8399 253.199 38.6408 252.758 38.6051L236.117 35.4608C234.884 35.226 233.749 35.9175 233.756 36.896V42.0755L253.919 44.3978Z" fill="#D54539"/>
<path d="M235.31 40.8817L242.355 41.6971L242.596 39.6422L235.316 38.8073L235.31 40.8817Z" fill="#FAF6EE"/>
</svg>
