<svg width="199" height="39" viewBox="0 0 199 39" fill="none" xmlns="http://www.w3.org/2000/svg">
<path d="M9.56428 29.5431C9.56428 30.3434 9.28221 31.0322 8.71806 31.6095C7.89152 32.4229 6.72386 32.8296 5.21509 32.8296C3.92936 32.8296 2.78138 32.4951 1.77116 31.8259C1.77116 32.1015 1.75804 32.2917 1.7318 32.3967C1.67933 32.5803 1.49565 32.6722 1.18078 32.6722V28.5985H1.77116C1.9942 31.0256 3.10938 32.2523 5.11669 32.2786C5.62836 32.2786 6.09411 32.1867 6.51394 32.0031C7.40609 31.5964 7.85216 30.9338 7.85216 30.0154C7.85216 29.6612 7.76688 29.3332 7.59632 29.0314C7.28145 28.4935 6.53362 27.9622 5.35285 27.4374C4.08024 26.8864 3.33241 26.5518 3.10938 26.4337C1.87612 25.7384 1.25949 24.8397 1.25949 23.7376C1.25949 23.0029 1.52189 22.3601 2.04668 21.809C2.83386 21.0219 3.93592 20.6283 5.35285 20.6283C6.5205 20.6283 7.57008 20.8841 8.50158 21.3958C8.50158 21.2383 8.5147 21.1137 8.54094 21.0219C8.59342 20.8251 8.7771 20.7267 9.09197 20.7267V24.1706H8.50158C8.5147 23.4359 8.33103 22.8127 7.95055 22.301C7.37329 21.5532 6.53362 21.1793 5.43157 21.1793C4.9855 21.1793 4.57878 21.2514 4.21143 21.3958C3.35865 21.7369 2.93226 22.3469 2.93226 23.226C2.93226 23.554 3.01098 23.8623 3.16841 24.1509C3.47017 24.6757 4.20487 25.1874 5.37253 25.6859C6.65826 26.2501 7.42577 26.5977 7.67504 26.7289C8.93453 27.4374 9.56428 28.3755 9.56428 29.5431ZM22.6119 32.6328H18.3611V32.1211H19.6402L18.1643 28.3033H14.0512L12.5753 32.1211H13.5396C13.6052 32.1211 13.6708 32.1277 13.7364 32.1408C13.9463 32.1802 14.0512 32.3442 14.0512 32.6328H10.5483V32.1211H11.7881L16.1963 20.8251H16.9244L21.4311 32.1211H22.1002C22.1658 32.1211 22.2314 32.1277 22.297 32.1408C22.5069 32.1802 22.6119 32.3442 22.6119 32.6328ZM17.9478 27.7326L16.0979 22.9701L14.2677 27.7326H17.9478ZM28.2205 32.6328H23.399V32.1211H24.9734V21.3367H23.399V20.8251H28.2205V21.3367H26.6658V32.1211H27.7089C27.7745 32.1211 27.8401 32.1277 27.9057 32.1408C28.1156 32.1802 28.2205 32.3442 28.2205 32.6328ZM37.9423 21.3367V20.8251H41.9766V21.3367H40.4022V32.5344L39.4969 32.7312L31.7629 23.0095V32.1211H32.924C32.9896 32.1211 33.0552 32.1277 33.1208 32.1408C33.3307 32.1802 33.4356 32.3442 33.4356 32.6328H29.4013V32.1211H30.9757V21.3367H29.4013V20.8251H32.1368L39.615 30.1532V21.3367H37.9423ZM50.4782 32.6328H45.0663V32.1211H46.9358V21.3367H45.8731C44.8629 21.4154 44.1479 22.0977 43.7281 23.3834L43.4132 24.7019H42.8621L42.9605 20.8251H52.6823L52.7807 24.7019H52.2296L51.9148 23.3834C51.9016 23.3572 51.8951 23.3178 51.8951 23.2653C51.5408 21.9796 50.8324 21.3367 49.7697 21.3367H48.6283V32.1211H49.9665C50.0321 32.1211 50.0977 32.1277 50.1633 32.1408C50.3732 32.1802 50.4782 32.3442 50.4782 32.6328ZM63.0337 29.5431C63.0337 30.3434 62.7517 31.0322 62.1875 31.6095C61.361 32.4229 60.1933 32.8296 58.6845 32.8296C57.3988 32.8296 56.2508 32.4951 55.2406 31.8259C55.2406 32.1015 55.2275 32.2917 55.2013 32.3967C55.1488 32.5803 54.9651 32.6722 54.6502 32.6722V28.5985H55.2406C55.4636 31.0256 56.5788 32.2523 58.5861 32.2786C59.0978 32.2786 59.5636 32.1867 59.9834 32.0031C60.8755 31.5964 61.3216 30.9338 61.3216 30.0154C61.3216 29.6612 61.2363 29.3332 61.0658 29.0314C60.7509 28.4935 60.0031 27.9622 58.8223 27.4374C57.5497 26.8864 56.8019 26.5518 56.5788 26.4337C55.3456 25.7384 54.7289 24.8397 54.7289 23.7376C54.7289 23.0029 54.9913 22.3601 55.5161 21.809C56.3033 21.0219 57.4054 20.6283 58.8223 20.6283C59.99 20.6283 61.0395 20.8841 61.971 21.3958C61.971 21.2383 61.9842 21.1137 62.0104 21.0219C62.0629 20.8251 62.2465 20.7267 62.5614 20.7267V24.1706H61.971C61.9842 23.4359 61.8005 22.8127 61.42 22.301C60.8427 21.5532 60.0031 21.1793 58.901 21.1793C58.4549 21.1793 58.0482 21.2514 57.6809 21.3958C56.8281 21.7369 56.4017 22.3469 56.4017 23.226C56.4017 23.554 56.4804 23.8623 56.6379 24.1509C56.9396 24.6757 57.6743 25.1874 58.842 25.6859C60.1277 26.2501 60.8952 26.5977 61.1445 26.7289C62.404 27.4374 63.0337 28.3755 63.0337 29.5431ZM78.6396 31.7276C77.4326 32.4491 76.1666 32.8165 74.8415 32.8296C73.031 32.8296 71.5616 32.2261 70.4333 31.0191C69.3706 29.8514 68.8392 28.4083 68.8392 26.6896C68.8392 25.2726 69.2197 24.0197 69.9806 22.9308C71.0827 21.3958 72.6702 20.6283 74.7431 20.6283C75.3728 20.6283 75.9895 20.7004 76.593 20.8447C77.5114 21.0809 78.1608 21.3892 78.5413 21.7697C78.5413 21.4154 78.5609 21.1596 78.6003 21.0022C78.6659 20.8185 78.843 20.7267 79.1316 20.7267L79.1907 24.3477H78.7184C78.6265 24.0591 78.515 23.777 78.3838 23.5015C77.6491 21.9534 76.4618 21.1793 74.8218 21.1793C74.1002 21.1793 73.4442 21.363 72.8538 21.7303C71.5025 22.6093 70.8269 24.2755 70.8269 26.7289C70.8269 27.8704 70.9777 28.8609 71.2795 29.7006C71.8961 31.4192 73.0572 32.2786 74.7628 32.2786C76.7701 32.2655 78.1083 31.1765 78.7774 29.0118H79.2497V32.7312C79.0923 32.7312 78.9676 32.7115 78.8758 32.6722C78.7184 32.5935 78.6396 32.2786 78.6396 31.7276ZM87.1215 20.6283C88.4598 20.6283 89.6405 21.0153 90.6639 21.7894C92.1726 22.9177 92.927 24.5642 92.927 26.7289C92.927 28.5788 92.3038 30.0876 91.0575 31.2552C89.9423 32.3048 88.6106 32.8296 87.0625 32.8296C85.6849 32.8296 84.4648 32.4098 83.4021 31.5701C81.9458 30.4156 81.2177 28.7756 81.2177 26.6502C81.2177 24.8135 81.8343 23.3244 83.0676 22.1829C84.1958 21.1465 85.5472 20.6283 87.1215 20.6283ZM87.1215 32.2786C87.6463 32.2786 88.1318 32.1802 88.5778 31.9834C90.1653 31.288 90.9591 29.5103 90.9591 26.6502C90.9459 23.0292 89.6471 21.2055 87.0625 21.1793C86.6952 21.1793 86.3475 21.2186 86.0195 21.2974C84.1302 21.7959 83.1856 23.6064 83.1856 26.7289C83.1856 27.6736 83.2775 28.5067 83.4611 29.2282C83.9991 31.2618 85.2192 32.2786 87.1215 32.2786ZM109.379 20.8251V21.3367H107.805V32.1211H108.867C108.933 32.1211 108.999 32.1277 109.064 32.1408C109.274 32.1802 109.379 32.3442 109.379 32.6328H104.656V32.1211H106.23V22.5962L101.684 32.7312H101.271L96.9613 23.6589V32.1211H98.024C98.0896 32.1211 98.1552 32.1277 98.2208 32.1408C98.4308 32.1802 98.5357 32.3442 98.5357 32.6328H94.5998V32.1211H96.1742V21.3367H94.5998V20.8251H97.414L101.98 30.4484L106.23 20.8251H109.379ZM125.339 20.8251V21.3367H123.765V32.1211H124.828C124.893 32.1211 124.959 32.1277 125.024 32.1408C125.234 32.1802 125.339 32.3442 125.339 32.6328H120.616V32.1211H122.191V22.5962L117.645 32.7312H117.231L112.921 23.6589V32.1211H113.984C114.05 32.1211 114.115 32.1277 114.181 32.1408C114.391 32.1802 114.496 32.3442 114.496 32.6328H110.56V32.1211H112.134V21.3367H110.56V20.8251H113.374L117.94 30.4484L122.191 20.8251H125.339ZM126.126 21.3367V20.8251H130.948V21.3367H129.393V28.0868C129.393 28.9396 129.485 29.6612 129.669 30.2516C130.089 31.6029 131.099 32.2786 132.699 32.2786C132.857 32.2786 133.014 32.272 133.172 32.2589C135.061 32.0621 136.006 30.6911 136.006 28.1459V21.3367H134.431V20.8251H138.269V21.3367H136.694V28.0278C136.694 28.7625 136.622 29.4185 136.478 29.9957C135.993 31.885 134.595 32.8296 132.286 32.8296C129.256 32.8165 127.727 31.2749 127.701 28.2049V21.3367H126.126ZM147.302 21.3367V20.8251H151.336V21.3367H149.762V32.5344L148.856 32.7312L141.122 23.0095V32.1211H142.283C142.349 32.1211 142.415 32.1277 142.48 32.1408C142.69 32.1802 142.795 32.3442 142.795 32.6328H138.761V32.1211H140.335V21.3367H138.761V20.8251H141.496L148.975 30.1532V21.3367H147.302ZM157.142 32.6328H152.32V32.1211H153.894V21.3367H152.32V20.8251H157.142V21.3367H155.587V32.1211H156.63C156.695 32.1211 156.761 32.1277 156.827 32.1408C157.037 32.1802 157.142 32.3442 157.142 32.6328ZM166.234 32.6328H160.822V32.1211H162.691V21.3367H161.628C160.618 21.4154 159.903 22.0977 159.483 23.3834L159.169 24.7019H158.618L158.716 20.8251H168.438L168.536 24.7019H167.985L167.67 23.3834C167.657 23.3572 167.65 23.3178 167.65 23.2653C167.296 21.9796 166.588 21.3367 165.525 21.3367H164.384V32.1211H165.722C165.787 32.1211 165.853 32.1277 165.919 32.1408C166.129 32.1802 166.234 32.3442 166.234 32.6328ZM177.156 32.6328H172.334V32.1211H173.909V27.9294L170.209 21.3367H169.126V20.8251H173.574V21.3367H172.078L175.207 27.0635L178.199 21.3367H176.624V20.8251H180.127C180.127 20.8907 180.121 20.9563 180.108 21.0219C180.068 21.2318 179.904 21.3367 179.616 21.3367C179.209 21.3498 178.855 21.5335 178.553 21.8878L175.581 27.7326V32.1211H176.644C176.71 32.1211 176.775 32.1277 176.841 32.1408C177.051 32.1802 177.156 32.3442 177.156 32.6328Z" fill="black"/>
<circle cx="180.527" cy="10.0761" r="5.03797" fill="#F11B0A"/>
<circle cx="193.962" cy="5.03797" r="5.03797" fill="#CCA856"/>
<circle cx="193.962" cy="17.6327" r="5.03797" fill="#DEDADA"/>
</svg>
