<svg width="354" height="290" viewBox="0 0 354 290" fill="none" xmlns="http://www.w3.org/2000/svg">
    <path d="M11.3438 133V136" stroke="#D2D8DF" stroke-width="2.921" stroke-linecap="round"/>
    <path d="M4.60938 134.625L7.0608 137.149" stroke="#D2D8DF" stroke-width="2.921" stroke-linecap="round"/>
    <path d="M1.74219 141.344H5.20847" stroke="#D2D8DF" stroke-width="2.921" stroke-linecap="round"/>
    <path d="M4.32812 148.18L6.77955 145.656" stroke="#D2D8DF" stroke-width="2.921" stroke-linecap="round"/>
    <path d="M11.3438 149V146" stroke="#D2D8DF" stroke-width="2.921" stroke-linecap="round"/>
    <path d="M16.3438 147L14.3438 145" stroke="#D2D8DF" stroke-width="2.921" stroke-linecap="round"/>
    <path d="M20.3438 142H17.3438" stroke="#D2D8DF" stroke-width="2.921" stroke-linecap="round"/>
    <path d="M18.3438 135L16.3438 137" stroke="#D2D8DF" stroke-width="2.921" stroke-linecap="round"/>
    <path d="M172.344 2V4" stroke="#D2D8DF" stroke-width="2.921" stroke-linecap="round"/>
    <path d="M166.344 8H168.344" stroke="#D2D8DF" stroke-width="2.921" stroke-linecap="round"/>
    <path d="M172.344 14V12" stroke="#D2D8DF" stroke-width="2.921" stroke-linecap="round"/>
    <path d="M177.344 8H175.344" stroke="#D2D8DF" stroke-width="2.921" stroke-linecap="round"/>
    <path d="M56.3438 86V89" stroke="#D2D8DF" stroke-width="2.921" stroke-linecap="round"/>
    <path d="M47.3438 95H50.3438" stroke="#D2D8DF" stroke-width="2.921" stroke-linecap="round"/>
    <path d="M56.3438 103V100" stroke="#D2D8DF" stroke-width="2.921" stroke-linecap="round"/>
    <path d="M64.3438 95H61.3438" stroke="#D2D8DF" stroke-width="2.921" stroke-linecap="round"/>
    <path d="M271.601 195.039C273.991 195.039 275.929 196.978 275.929 199.368C275.929 201.759 273.991 203.697 271.601 203.697C269.212 203.697 267.273 201.759 267.273 199.368" stroke="#D2D8DF" stroke-width="2.921" stroke-linecap="round"/>
    <path fill-rule="evenodd" clip-rule="evenodd" d="M291.406 155.763C293.976 154.962 297.915 151.819 298.827 148.438C299.654 151.427 303.12 154.962 306.248 155.229C302.727 156.476 299.361 160.179 298.827 163.088C298.464 160.123 293.808 156.196 291.406 155.763Z" fill="#EBECEE"/>
    <path fill-rule="evenodd" clip-rule="evenodd" d="M27.6172 193.702C28.9025 193.301 30.8712 191.73 31.3271 190.039C31.7406 191.533 33.4733 193.301 35.0371 193.435C33.2772 194.057 31.5946 195.909 31.3271 197.364C31.1455 195.881 28.8176 193.917 27.6172 193.702Z" fill="#EBECEE"/>
    <path fill-rule="evenodd" clip-rule="evenodd" d="M51.4697 54.5912C51.4697 56.4458 49.967 57.948 48.1137 57.948C46.2596 57.948 44.7578 56.4458 44.7578 54.5912C44.7578 52.7374 46.2596 51.2344 48.1137 51.2344C49.967 51.2344 51.4697 52.7374 51.4697 54.5912Z" fill="#D1D8DF"/>
    <path fill-rule="evenodd" clip-rule="evenodd" d="M275.563 63.6105C275.563 66.7092 273.051 69.2211 269.954 69.2211C266.855 69.2211 264.344 66.7092 264.344 63.6105C264.344 60.5119 266.855 58 269.954 58C273.051 58 275.563 60.5119 275.563 63.6105Z" fill="#EBECEE"/>
    <path fill-rule="evenodd" clip-rule="evenodd" d="M353.257 48.4037C353.257 50.8621 351.266 52.8542 348.809 52.8542C346.351 52.8542 344.359 50.8621 344.359 48.4037C344.359 45.9453 346.351 43.9531 348.809 43.9531C351.266 43.9531 353.257 45.9453 353.257 48.4037Z" fill="#EBECEE"/>
    <path fill-rule="evenodd" clip-rule="evenodd" d="M114.187 256.267C114.187 257.816 112.932 259.072 111.382 259.072C109.834 259.072 108.578 257.816 108.578 256.267C108.578 254.717 109.834 253.461 111.382 253.461C112.932 253.461 114.187 254.717 114.187 256.267Z" stroke="#D2D8DF" stroke-width="2.921" stroke-linecap="round"/>
    <path fill-rule="evenodd" clip-rule="evenodd" d="M112.524 33.0287C112.524 34.8833 111.022 36.3855 109.168 36.3855C107.315 36.3855 105.812 34.8833 105.812 33.0287C105.812 31.1749 107.315 29.6719 109.168 29.6719C111.022 29.6719 112.524 31.1749 112.524 33.0287Z" stroke="#D2D8DF" stroke-width="2.921" stroke-linecap="round"/>
    <path fill-rule="evenodd" clip-rule="evenodd" d="M198.125 287.337C195.981 288.153 193.581 287.076 192.765 284.931C191.949 282.786 193.026 280.385 195.171 279.57C197.314 278.754 199.714 279.83 200.53 281.975C201.347 284.12 200.27 286.521 198.125 287.337Z" stroke="#D2D8DF" stroke-width="2.921" stroke-linecap="round"/>
    <path fill-rule="evenodd" clip-rule="evenodd" d="M196.845 208H114.84C109.068 208 104.344 203.261 104.344 197.47V80.5275C104.344 74.7362 109.068 70 114.84 70H196.845C202.619 70 207.344 74.7362 207.344 80.5275V197.47C207.344 203.261 202.619 208 196.845 208Z" fill="#E0E2EE"/>
    <path fill-rule="evenodd" clip-rule="evenodd" d="M189.845 213H107.84C102.068 213 97.3438 208.261 97.3438 202.47V85.5275C97.3438 79.7362 102.068 75 107.84 75H189.845C195.619 75 200.344 79.7362 200.344 85.5275V202.47C200.344 208.261 195.619 213 189.845 213Z" fill="#E8EBF2"/>
    <path fill-rule="evenodd" clip-rule="evenodd" d="M183.036 216.944H100.862C95.0781 216.944 90.3438 212.225 90.3438 206.458V89.9995C90.3438 84.2322 95.0781 79.5156 100.862 79.5156H183.036C188.822 79.5156 193.557 84.2322 193.557 89.9995V206.458C193.557 212.225 188.822 216.944 183.036 216.944Z" fill="#D8DBEA"/>
    <path fill-rule="evenodd" clip-rule="evenodd" d="M183.036 216.944H100.862C95.0781 216.944 90.3438 212.225 90.3438 206.458V89.9995C90.3438 84.2322 95.0781 79.5156 100.862 79.5156H183.036C188.822 79.5156 193.557 84.2322 193.557 89.9995V206.458C193.557 212.225 188.822 216.944 183.036 216.944Z" fill="#F1F2F7"/>
    <path fill-rule="evenodd" clip-rule="evenodd" d="M171.192 115H110.496C108.763 115 107.344 113.65 107.344 112.001C107.344 110.35 108.763 109 110.496 109H171.192C172.925 109 174.344 110.35 174.344 112.001C174.344 113.65 172.925 115 171.192 115Z" fill="#E0E2EE"/>
    <path fill-rule="evenodd" clip-rule="evenodd" d="M171.192 133H110.496C108.763 133 107.344 131.65 107.344 130.001C107.344 128.35 108.763 127 110.496 127H171.192C172.925 127 174.344 128.35 174.344 130.001C174.344 131.65 172.925 133 171.192 133Z" fill="#E0E2EE"/>
    <path fill-rule="evenodd" clip-rule="evenodd" d="M171.192 151H110.496C108.763 151 107.344 149.65 107.344 148.001C107.344 146.352 108.763 145 110.496 145H171.192C172.925 145 174.344 146.352 174.344 148.001C174.344 149.65 172.925 151 171.192 151Z" fill="#E0E2EE"/>
    <path fill-rule="evenodd" clip-rule="evenodd" d="M171.192 169H110.496C108.763 169 107.344 167.65 107.344 166.001C107.344 164.35 108.763 163 110.496 163H171.192C172.925 163 174.344 164.35 174.344 166.001C174.344 167.65 172.925 169 171.192 169Z" fill="#E0E2EE"/>
    <path fill-rule="evenodd" clip-rule="evenodd" d="M142.178 187H110.509C108.769 187 107.344 185.65 107.344 184.001C107.344 182.35 108.769 181 110.509 181H142.178C143.919 181 145.344 182.35 145.344 184.001C145.344 185.65 143.919 187 142.178 187Z" fill="#E0E2EE"/>
    </svg>
    