<svg width="305" height="284" viewBox="0 0 305 284" fill="none" xmlns="http://www.w3.org/2000/svg">
<path d="M152.5 283.665C236.398 283.665 304.41 244.398 304.41 195.959C304.41 147.52 236.398 108.252 152.5 108.252C68.6027 108.252 0.590332 147.52 0.590332 195.959C0.590332 244.398 68.6027 283.665 152.5 283.665Z" fill="#EFE4CB"/>
<path d="M121.066 262.419C149.997 262.419 173.45 248.879 173.45 232.177C173.45 215.475 149.997 201.936 121.066 201.936C92.1348 201.936 68.6816 215.475 68.6816 232.177C68.6816 248.879 92.1348 262.419 121.066 262.419Z" fill="#DDC58E"/>
<path d="M270.035 194.34L263.89 190.794C263.89 190.794 262.388 177.64 263.387 167.452C264.793 153.137 274.039 135.908 285.065 139.957C296.092 144.007 280.01 158.579 276.431 170.721C272.853 182.863 270.035 194.34 270.035 194.34Z" fill="#CB1708"/>
<path opacity="0.15" d="M270.035 194.34L263.89 190.794C263.89 190.794 262.388 177.64 263.387 167.452C264.793 153.137 274.039 135.908 285.065 139.957C296.092 144.007 280.01 158.579 276.431 170.721C272.853 182.863 270.035 194.34 270.035 194.34Z" fill="#131313"/>
<path d="M266.805 192.851C266.903 192.846 266.995 192.802 267.061 192.73C267.128 192.657 267.163 192.562 267.159 192.464C266.083 160.655 281.919 144.651 282.074 144.497C282.144 144.426 282.183 144.331 282.183 144.232C282.183 144.133 282.144 144.038 282.074 143.968C282.04 143.933 281.999 143.906 281.954 143.887C281.909 143.869 281.861 143.859 281.813 143.859C281.764 143.859 281.716 143.869 281.671 143.887C281.626 143.906 281.586 143.933 281.551 143.968C281.384 144.123 265.322 160.359 266.411 192.49C266.413 192.539 266.425 192.588 266.445 192.633C266.466 192.678 266.496 192.719 266.532 192.753C266.569 192.786 266.612 192.812 266.659 192.829C266.705 192.846 266.755 192.853 266.805 192.851Z" fill="white"/>
<path d="M273.897 196.552L269.526 194.031C269.526 194.031 268.778 185.003 273.208 174.042C277.076 164.498 286.619 156.574 291.43 158.237C296.24 159.901 296.117 163.312 293.77 166.891C291.423 170.469 277.167 178.987 273.897 196.552Z" fill="#CB1708"/>
<path d="M271.589 195.597C271.688 195.596 271.782 195.556 271.852 195.486C271.922 195.416 271.961 195.322 271.963 195.223C271.873 175.105 290.759 161.513 290.953 161.378C290.993 161.35 291.027 161.314 291.053 161.273C291.08 161.232 291.097 161.186 291.105 161.138C291.113 161.089 291.111 161.04 291.099 160.993C291.087 160.945 291.066 160.901 291.036 160.862C290.979 160.782 290.893 160.728 290.797 160.711C290.701 160.694 290.601 160.716 290.521 160.771C290.327 160.907 271.131 174.731 271.215 195.223C271.215 195.323 271.255 195.418 271.325 195.488C271.395 195.558 271.49 195.597 271.589 195.597Z" fill="white"/>
<path d="M42.6637 186.441L48.3379 182.611C48.3379 182.611 50.8333 167.781 48.512 154.697C45.2493 136.346 32.566 130.246 28.0524 132.181C23.5387 134.115 22.5715 139.577 30.9991 150.048C35.9964 156.206 42.4896 169.354 42.6637 186.441Z" fill="#CB1708"/>
<g opacity="0.15">
<path d="M42.6637 186.441L48.3379 182.611C48.3379 182.611 50.8333 167.781 48.512 154.697C45.2493 136.346 32.566 130.246 28.0524 132.181C23.5387 134.115 22.5715 139.577 30.9991 150.048C35.9964 156.206 42.4896 169.354 42.6637 186.441Z" fill="#131313"/>
</g>
<path d="M44.6111 179.09H44.553C44.4951 179.087 44.4385 179.071 44.3871 179.044C44.3357 179.017 44.2906 178.979 44.2546 178.934C44.2187 178.888 44.1929 178.835 44.1787 178.779C44.1646 178.723 44.1625 178.664 44.1726 178.607C46.2231 161.332 38.9303 142.582 30.9928 135.121C30.9164 135.044 30.8735 134.94 30.8735 134.831C30.8735 134.722 30.9164 134.618 30.9928 134.541C31.0306 134.502 31.0757 134.472 31.1256 134.451C31.1754 134.43 31.2289 134.419 31.2829 134.419C31.337 134.419 31.3905 134.43 31.4403 134.451C31.4901 134.472 31.5353 134.502 31.5731 134.541C39.659 142.137 47.0871 161.197 45.0109 178.723C44.9987 178.822 44.9518 178.913 44.8785 178.98C44.8053 179.048 44.7105 179.087 44.6111 179.09Z" fill="white"/>
<path d="M27.8075 196.461C26.9047 197.003 24.2739 195.049 23.5453 194.579C22.2966 193.763 21.2794 192.64 20.5921 191.316C19.8211 189.815 19.535 188.112 19.7732 186.441C19.9052 185.569 20.097 184.708 20.3471 183.862C20.5727 183.017 20.7984 182.173 20.9919 181.321C21.2778 180.494 21.3876 179.615 21.3143 178.742C21.0628 177.021 19.5088 175.841 18.0902 174.828C16.5298 173.7 14.8662 172.21 14.8662 170.134C14.9458 168.503 15.5701 166.945 16.6394 165.711C17.6066 164.421 18.7673 163.299 19.6378 161.951C20.3185 161.018 20.6659 159.882 20.6243 158.727C20.5122 158.016 20.2578 157.334 19.8764 156.722C19.1155 155.381 18.1289 154.143 17.5937 152.718C17.0586 151.293 17.0972 149.462 18.2385 148.398C19.1477 147.527 20.5341 147.385 21.7914 147.443C22.9763 147.561 24.1208 147.938 25.1444 148.546C28.4781 150.319 30.4383 154.188 33.9654 155.536C35.3259 156.052 36.809 156.142 38.2211 156.49C39.6332 156.838 41.0905 157.528 41.7675 158.811C43.1023 161.358 40.7745 164.569 41.7288 167.271C42.58 169.67 44.9529 170.547 46.294 172.694C46.8384 173.647 47.0643 174.75 46.9389 175.841C46.8632 177.682 46.4501 179.494 45.7202 181.186C44.8806 182.941 43.9331 184.642 42.883 186.28C42.883 186.28 27.9429 196.378 27.8075 196.461Z" fill="#CB1708"/>
<path d="M36.5249 191.116C36.4707 191.115 36.4172 191.104 36.3675 191.082C36.3177 191.061 36.2727 191.03 36.235 190.991C36.1973 190.952 36.1676 190.906 36.1476 190.855C36.1277 190.805 36.1178 190.751 36.1187 190.697C36.4798 174.37 28.4455 156.522 22.7583 151.364C22.6775 151.291 22.6287 151.189 22.6227 151.08C22.6167 150.972 22.6538 150.865 22.7261 150.783C22.7639 150.745 22.809 150.714 22.8589 150.693C22.9087 150.672 22.9622 150.662 23.0162 150.662C23.0703 150.662 23.1238 150.672 23.1736 150.693C23.2234 150.714 23.2686 150.745 23.3064 150.783C29.1097 156.006 37.3051 174.164 36.9376 190.716C36.9368 190.77 36.9254 190.822 36.9042 190.871C36.883 190.92 36.8524 190.965 36.8141 191.002C36.7758 191.039 36.7305 191.068 36.6809 191.088C36.6313 191.107 36.5783 191.117 36.5249 191.116Z" fill="white"/>
<path d="M33.514 171.224C33.4759 171.233 33.436 171.233 33.3979 171.224C28.1234 169.702 21.5851 169.547 21.5206 169.541C21.4667 169.54 21.4135 169.528 21.3641 169.507C21.3147 169.485 21.2701 169.454 21.2329 169.415C21.1957 169.376 21.1666 169.33 21.1474 169.28C21.1281 169.229 21.1191 169.176 21.1208 169.122C21.1198 169.067 21.1301 169.013 21.1511 168.963C21.172 168.913 21.2032 168.867 21.2426 168.83C21.282 168.792 21.3288 168.763 21.3799 168.745C21.4311 168.726 21.4856 168.718 21.5399 168.722C21.6044 168.722 28.2459 168.883 33.6236 170.431C33.7275 170.462 33.8149 170.533 33.8668 170.628C33.9187 170.724 33.9309 170.836 33.9009 170.94C33.8758 171.023 33.8245 171.095 33.7547 171.146C33.685 171.198 33.6005 171.225 33.514 171.224Z" fill="white"/>
<path d="M185.489 175.215L183.045 173.803C182.638 173.539 182.299 173.182 182.055 172.762C181.812 172.341 181.672 171.87 181.646 171.385V69.8152C181.672 69.3312 181.812 68.8603 182.054 68.4403C182.296 68.0203 182.633 67.663 183.038 67.3971L250.969 28.18C251.401 27.9608 251.88 27.8466 252.365 27.8466C252.85 27.8466 253.328 27.9608 253.761 28.18L256.204 29.5922C256.612 29.8565 256.951 30.2134 257.194 30.6335C257.437 31.0537 257.577 31.5254 257.604 32.0102V133.58C257.577 134.064 257.437 134.535 257.195 134.955C256.953 135.375 256.616 135.732 256.211 135.998L188.281 175.222C187.848 175.441 187.369 175.555 186.884 175.554C186.398 175.553 185.92 175.437 185.489 175.215Z" fill="#7A7878"/>
<path d="M257.604 31.7845C257.507 31.0623 256.92 30.798 256.217 31.2042L188.281 70.4277C187.87 70.6855 187.531 71.0425 187.294 71.4659L182.052 68.4417C182.286 68.0152 182.626 67.6556 183.038 67.3971L250.969 28.18C251.401 27.9608 251.88 27.8466 252.365 27.8466C252.85 27.8466 253.328 27.9608 253.761 28.18L256.204 29.5922C256.582 29.8352 256.902 30.1569 257.144 30.5353C257.385 30.9137 257.542 31.3398 257.604 31.7845Z" fill="#7A7878"/>
<path d="M188.042 175.331C187.629 175.498 187.185 175.575 186.74 175.556C186.295 175.537 185.86 175.423 185.463 175.222L183.012 173.803C182.607 173.537 182.27 173.18 182.028 172.76C181.786 172.34 181.646 171.869 181.62 171.385V69.8152C181.636 69.3303 181.776 68.8576 182.026 68.4417L187.268 71.4659C187.013 71.8823 186.871 72.3578 186.855 72.8457V174.416C186.881 175.215 187.384 175.583 188.042 175.331Z" fill="#263238"/>
<path d="M186.881 72.8586V174.416C186.881 175.305 187.526 175.666 188.28 175.222L256.21 135.998C256.616 135.732 256.953 135.375 257.195 134.955C257.437 134.535 257.577 134.064 257.603 133.58V32.0102C257.603 31.1203 256.958 30.7592 256.21 31.2042L188.28 70.4277C187.871 70.6933 187.531 71.0522 187.288 71.4748C187.045 71.8974 186.905 72.3716 186.881 72.8586Z" fill="#DDC58E"/>
<path d="M171.019 111.547C170.142 111.025 166.073 108.71 165.86 108.587C165.694 108.488 165.553 108.354 165.446 108.193C165.34 108.032 165.27 107.849 165.244 107.658C165.217 107.466 165.234 107.272 165.293 107.088C165.351 106.904 165.451 106.735 165.583 106.595L181.645 89.3657L186.881 92.3705L170.825 109.613C170.699 109.747 170.603 109.907 170.544 110.081C170.485 110.255 170.464 110.441 170.482 110.624C170.5 110.807 170.558 110.984 170.65 111.144C170.743 111.303 170.869 111.44 171.019 111.547Z" fill="#7A7878"/>
<path d="M186.881 92.3898L170.825 109.613C170.647 109.803 170.531 110.043 170.492 110.301C170.453 110.559 170.493 110.822 170.606 111.057C170.72 111.292 170.903 111.486 171.129 111.615C171.356 111.744 171.617 111.801 171.877 111.779L186.881 110.541V92.3898Z" fill="#DDC58E"/>
<path d="M222.242 61.3811C230.16 56.8094 236.576 60.517 236.576 69.6604C236.576 78.8037 230.16 89.9137 222.242 94.4854C214.324 99.0571 207.908 95.3494 207.908 86.2125C207.908 77.0756 214.324 65.9527 222.242 61.3811Z" fill="#CB1708"/>
<path d="M222.139 68.5772C224.719 67.0941 226.788 68.2935 226.788 71.2596C226.701 72.8719 226.234 74.4408 225.426 75.839C224.618 77.2372 223.492 78.4252 222.139 79.3067C219.56 80.7898 217.484 79.5905 217.484 76.6243C217.572 75.0114 218.04 73.4421 218.849 72.0439C219.658 70.6457 220.785 69.458 222.139 68.5772Z" fill="white"/>
<path d="M231.308 84.3878C231.308 79.5195 227.884 77.5399 223.667 79.9773L221.03 81.499C216.813 83.9364 213.389 89.8815 213.389 94.7369V96.0716C214.185 96.3261 215.016 96.4545 215.852 96.4521C218.115 96.3752 220.317 95.7083 222.242 94.5177C225.908 92.2599 229.009 89.1942 231.308 85.5549V84.3878Z" fill="white"/>
<path d="M213.163 139.744L231.321 129.26C232.095 128.815 232.72 129.176 232.72 130.066V135.914C232.694 136.399 232.554 136.871 232.31 137.291C232.067 137.711 231.728 138.068 231.321 138.332L213.163 148.817C212.39 149.262 211.764 148.901 211.764 148.011V142.162C211.79 141.678 211.931 141.206 212.174 140.786C212.417 140.365 212.756 140.009 213.163 139.744Z" fill="#CB1708"/>
<path d="M204.271 126.681L240.194 105.931C241.116 105.396 241.87 105.828 241.87 106.898V109.071C241.839 109.652 241.67 110.218 241.379 110.722C241.088 111.227 240.682 111.655 240.194 111.973L204.252 132.722C203.33 133.258 202.582 132.826 202.582 131.755V129.602C202.611 129.016 202.78 128.445 203.074 127.937C203.368 127.429 203.778 126.998 204.271 126.681Z" fill="#EFB7B2"/>
<path d="M208.476 111.663C208.966 111.379 209.346 111.334 209.617 111.534C209.888 111.734 210.023 112.179 210.023 112.862C210.037 113.486 209.897 114.104 209.617 114.661C209.364 115.165 208.966 115.583 208.476 115.861L207.509 116.422V118.504C207.507 118.576 207.489 118.647 207.457 118.711C207.434 118.769 207.394 118.819 207.341 118.853L206.851 119.136C206.834 119.149 206.814 119.156 206.793 119.156C206.772 119.156 206.752 119.149 206.735 119.136C206.7 119.093 206.684 119.037 206.69 118.982V112.953C206.689 112.881 206.704 112.811 206.735 112.746C206.759 112.689 206.799 112.64 206.851 112.604L208.476 111.663ZM207.509 115.255L208.444 114.713C208.669 114.586 208.86 114.404 208.998 114.184C209.145 113.925 209.216 113.631 209.204 113.333C209.204 112.985 209.133 112.785 208.998 112.727C208.902 112.704 208.803 112.703 208.707 112.724C208.61 112.745 208.52 112.788 208.444 112.85L207.509 113.391V115.255Z" fill="#EFB7B2"/>
<path d="M212.725 109.206C212.79 109.168 212.841 109.168 212.874 109.206C212.915 109.264 212.943 109.33 212.957 109.4L214.447 114.442C214.447 114.442 214.447 114.481 214.447 114.5C214.446 114.572 214.428 114.643 214.395 114.707C214.373 114.765 214.332 114.815 214.279 114.848L213.841 115.1C213.763 115.145 213.705 115.151 213.673 115.1C213.642 115.067 213.62 115.027 213.609 114.984L213.344 114.1L211.41 115.209L211.152 116.396C211.134 116.46 211.11 116.523 211.081 116.583C211.049 116.662 210.989 116.726 210.913 116.763L210.475 117.015C210.459 117.029 210.438 117.036 210.417 117.036C210.396 117.036 210.375 117.029 210.359 117.015C210.325 116.973 210.309 116.92 210.314 116.867C210.31 116.843 210.31 116.819 210.314 116.796L211.797 110.038C211.815 109.939 211.843 109.842 211.881 109.748C211.912 109.68 211.964 109.624 212.029 109.587L212.725 109.206ZM213.061 113.114L212.416 110.838L211.771 113.881L213.061 113.114Z" fill="#EFB7B2"/>
<path d="M216.703 106.814C216.919 106.678 217.165 106.596 217.419 106.576C217.599 106.559 217.779 106.6 217.935 106.692C218.076 106.784 218.186 106.916 218.251 107.072C218.321 107.231 218.361 107.402 218.367 107.575C218.371 107.647 218.356 107.718 218.322 107.781C218.299 107.84 218.258 107.889 218.206 107.923L217.78 108.168C217.709 108.207 217.657 108.213 217.625 108.168C217.585 108.142 217.552 108.107 217.529 108.065C217.503 108.007 217.465 107.955 217.419 107.912C217.372 107.868 217.317 107.835 217.258 107.814C217.061 107.786 216.862 107.837 216.703 107.955C216.599 108.023 216.499 108.098 216.407 108.181C216.311 108.269 216.226 108.369 216.155 108.478C216.087 108.583 216.03 108.695 215.987 108.813C215.949 108.925 215.93 109.043 215.929 109.161C215.922 109.27 215.942 109.379 215.987 109.477C216.007 109.512 216.035 109.541 216.069 109.562C216.103 109.584 216.141 109.597 216.181 109.6C216.3 109.62 216.423 109.62 216.542 109.6L217.103 109.477C217.312 109.415 217.53 109.389 217.748 109.4C217.903 109.399 218.055 109.449 218.18 109.542C218.298 109.641 218.383 109.774 218.425 109.922C218.488 110.131 218.516 110.349 218.509 110.567C218.508 110.855 218.467 111.142 218.386 111.418C218.307 111.702 218.193 111.975 218.044 112.231C217.888 112.492 217.702 112.734 217.49 112.953C217.273 113.178 217.026 113.371 216.755 113.527C216.556 113.648 216.338 113.733 216.11 113.778C215.924 113.814 215.733 113.798 215.555 113.733C215.394 113.658 215.261 113.534 215.175 113.378C215.07 113.179 215.012 112.959 215.007 112.734C215.007 112.66 215.022 112.588 215.052 112.521C215.081 112.466 215.123 112.419 215.175 112.385L215.601 112.14C215.665 112.102 215.717 112.089 215.755 112.108C215.794 112.127 215.82 112.16 215.846 112.218C215.872 112.284 215.907 112.347 215.949 112.405C215.989 112.461 216.045 112.504 216.11 112.527C216.195 112.547 216.283 112.547 216.368 112.527C216.505 112.495 216.635 112.44 216.755 112.366C216.88 112.295 216.998 112.213 217.109 112.121C217.326 111.949 217.499 111.728 217.612 111.476C217.664 111.347 217.69 111.209 217.69 111.07C217.696 111.019 217.691 110.968 217.677 110.919C217.663 110.871 217.638 110.825 217.606 110.786C217.571 110.755 217.53 110.733 217.485 110.719C217.441 110.706 217.394 110.702 217.348 110.709C217.202 110.715 217.057 110.739 216.916 110.78C216.748 110.818 216.555 110.864 216.329 110.902C216.156 110.945 215.978 110.959 215.8 110.941C215.661 110.932 215.529 110.875 215.426 110.78C215.315 110.671 215.237 110.532 215.201 110.38C215.149 110.156 215.125 109.926 215.13 109.696C215.129 109.413 215.171 109.13 215.252 108.858C215.329 108.578 215.442 108.31 215.588 108.059C215.727 107.809 215.896 107.578 216.091 107.369C216.267 107.156 216.474 106.969 216.703 106.814Z" fill="#EFB7B2"/>
<path d="M220.94 104.377C221.154 104.236 221.4 104.152 221.656 104.132C221.835 104.116 222.015 104.157 222.171 104.248C222.309 104.342 222.417 104.474 222.481 104.628C222.551 104.787 222.591 104.958 222.597 105.131C222.605 105.203 222.589 105.275 222.552 105.337C222.529 105.396 222.488 105.445 222.436 105.479L222.01 105.724C221.946 105.763 221.894 105.776 221.855 105.724C221.814 105.698 221.783 105.66 221.765 105.615C221.706 105.502 221.607 105.414 221.488 105.37C221.392 105.356 221.294 105.361 221.199 105.385C221.105 105.41 221.017 105.453 220.94 105.512C220.832 105.577 220.731 105.653 220.637 105.737C220.543 105.826 220.461 105.925 220.392 106.034C220.321 106.137 220.264 106.25 220.224 106.369C220.184 106.481 220.162 106.599 220.16 106.717C220.152 106.826 220.172 106.935 220.218 107.033C220.237 107.068 220.265 107.097 220.299 107.119C220.333 107.14 220.371 107.153 220.411 107.156C220.531 107.177 220.653 107.177 220.772 107.156L221.333 107.033C221.543 106.975 221.76 106.949 221.978 106.956C222.134 106.955 222.285 107.004 222.41 107.098C222.528 107.198 222.615 107.33 222.661 107.478C222.718 107.688 222.744 107.906 222.739 108.123C222.738 108.411 222.697 108.698 222.616 108.974C222.538 109.259 222.423 109.532 222.275 109.787C222.119 110.051 221.933 110.295 221.72 110.515C221.502 110.735 221.257 110.925 220.991 111.083C220.793 111.203 220.574 111.288 220.347 111.334C220.163 111.369 219.974 111.354 219.798 111.289C219.634 111.216 219.498 111.092 219.412 110.934C219.306 110.736 219.25 110.515 219.25 110.29C219.243 110.218 219.259 110.145 219.296 110.083C219.318 110.025 219.359 109.975 219.412 109.941L219.837 109.696C219.902 109.658 219.96 109.645 219.992 109.664C220.014 109.674 220.034 109.689 220.05 109.708C220.065 109.727 220.077 109.75 220.082 109.774C220.111 109.839 220.146 109.901 220.185 109.961C220.228 110.017 220.286 110.06 220.353 110.083C220.438 110.103 220.526 110.103 220.611 110.083C220.748 110.051 220.879 109.997 220.998 109.922C221.12 109.849 221.236 109.767 221.346 109.677C221.459 109.589 221.559 109.484 221.643 109.368C221.726 109.256 221.795 109.135 221.849 109.006C221.901 108.877 221.927 108.739 221.926 108.6C221.932 108.55 221.928 108.498 221.914 108.45C221.899 108.401 221.875 108.356 221.843 108.316C221.808 108.286 221.767 108.263 221.722 108.25C221.677 108.236 221.631 108.233 221.585 108.239C221.441 108.248 221.298 108.272 221.159 108.31C220.991 108.349 220.791 108.394 220.572 108.433C220.397 108.476 220.216 108.489 220.037 108.471C219.897 108.464 219.764 108.407 219.663 108.31C219.554 108.2 219.478 108.062 219.444 107.91C219.387 107.689 219.361 107.461 219.366 107.233C219.369 106.947 219.41 106.663 219.489 106.389C219.569 106.11 219.681 105.841 219.824 105.589C219.964 105.338 220.135 105.106 220.334 104.899C220.507 104.694 220.712 104.518 220.94 104.377Z" fill="#EFB7B2"/>
<path d="M225.64 105.183L225.118 108.271C225.103 108.364 225.077 108.455 225.041 108.542C225.016 108.612 224.968 108.671 224.905 108.71L224.415 108.994C224.351 109.032 224.306 109.032 224.273 108.994C224.23 108.941 224.205 108.875 224.202 108.807L223.429 103.358C223.429 103.358 223.429 103.306 223.429 103.287C223.431 103.215 223.448 103.145 223.48 103.081C223.505 103.023 223.545 102.974 223.596 102.939L224.041 102.681C224.079 102.666 224.12 102.666 224.157 102.681C224.196 102.681 224.222 102.733 224.235 102.836L224.744 106.505L225.189 103.751C225.201 103.683 225.22 103.616 225.247 103.551C225.273 103.47 225.328 103.401 225.402 103.358L225.898 103.068C225.969 103.029 226.021 103.036 226.053 103.068C226.081 103.109 226.101 103.155 226.111 103.203L226.562 105.441L227.072 101.185C227.078 101.101 227.102 101.02 227.143 100.946C227.173 100.898 227.212 100.857 227.259 100.824L227.704 100.566C227.721 100.553 227.741 100.547 227.762 100.547C227.783 100.547 227.803 100.553 227.82 100.566C227.838 100.587 227.852 100.612 227.861 100.638C227.87 100.665 227.873 100.693 227.871 100.721C227.874 100.746 227.874 100.772 227.871 100.798L227.098 107.137C227.085 107.229 227.061 107.32 227.027 107.407C226.997 107.476 226.948 107.535 226.885 107.575L226.388 107.859C226.33 107.891 226.285 107.891 226.253 107.859C226.22 107.799 226.194 107.737 226.176 107.672L225.64 105.183Z" fill="#EFB7B2"/>
<path d="M228.658 102.449C228.672 102.091 228.716 101.735 228.787 101.385C228.861 101.042 228.973 100.709 229.122 100.392C229.265 100.083 229.447 99.7951 229.664 99.5342C229.885 99.2754 230.149 99.0572 230.444 98.8894C230.671 98.7353 230.937 98.6482 231.212 98.6379C231.416 98.6402 231.613 98.721 231.76 98.8636C231.916 99.0392 232.029 99.249 232.089 99.4762C232.172 99.7723 232.217 100.078 232.224 100.385C232.224 100.501 232.224 100.63 232.224 100.772C232.224 100.914 232.224 101.062 232.224 101.217C232.224 101.372 232.224 101.52 232.224 101.662C232.224 101.804 232.224 101.939 232.224 102.062C232.21 102.417 232.167 102.771 232.095 103.119C232.02 103.461 231.91 103.794 231.766 104.112C231.62 104.42 231.435 104.708 231.218 104.97C230.998 105.226 230.736 105.444 230.444 105.615C230.212 105.768 229.942 105.855 229.664 105.866C229.564 105.868 229.464 105.85 229.371 105.812C229.278 105.775 229.193 105.718 229.122 105.647C228.954 105.466 228.838 105.244 228.787 105.002C228.71 104.705 228.667 104.4 228.658 104.093C228.658 103.977 228.658 103.848 228.658 103.706C228.658 103.564 228.658 103.416 228.658 103.261C228.658 103.106 228.658 102.965 228.658 102.816C228.658 102.668 228.652 102.565 228.658 102.449ZM231.405 100.908C231.419 100.75 231.402 100.591 231.353 100.44C231.304 100.289 231.225 100.15 231.121 100.031C230.954 99.8824 230.722 99.8889 230.444 100.031C230.143 100.208 229.905 100.473 229.761 100.792C229.578 101.168 229.481 101.579 229.477 101.997C229.477 102.236 229.477 102.5 229.477 102.79C229.477 103.081 229.477 103.339 229.477 103.571C229.463 103.728 229.48 103.887 229.529 104.038C229.578 104.189 229.657 104.328 229.761 104.448C229.928 104.59 230.161 104.577 230.444 104.415C230.74 104.237 230.976 103.974 231.121 103.661C231.304 103.287 231.401 102.878 231.405 102.462C231.405 102.217 231.405 101.952 231.405 101.662C231.405 101.372 231.411 101.14 231.405 100.908Z" fill="#EFB7B2"/>
<path d="M235.036 96.3166C235.545 96.0265 235.925 95.9813 236.19 96.1941C236.346 96.3667 236.463 96.5719 236.531 96.7948C236.599 97.0178 236.617 97.2531 236.583 97.4837C236.588 97.9217 236.521 98.3575 236.383 98.7733C236.252 99.1607 236.049 99.5195 235.784 99.8308L236.622 101.656C236.625 101.686 236.625 101.716 236.622 101.746C236.622 101.804 236.609 101.861 236.583 101.914C236.565 101.96 236.534 102.001 236.493 102.03L235.977 102.326C235.893 102.371 235.835 102.378 235.796 102.326C235.762 102.292 235.734 102.253 235.713 102.21L234.92 100.489L234.114 100.953V103.132C234.114 103.203 234.099 103.274 234.068 103.339C234.042 103.395 234.002 103.443 233.952 103.48L233.462 103.764C233.446 103.778 233.425 103.785 233.404 103.785C233.383 103.785 233.362 103.778 233.346 103.764C233.328 103.744 233.314 103.721 233.305 103.695C233.296 103.67 233.292 103.643 233.295 103.616V97.5869C233.296 97.5152 233.314 97.4447 233.346 97.3805C233.369 97.3222 233.41 97.2725 233.462 97.2387L235.036 96.3166ZM234.126 99.7857L235.036 99.2956C235.258 99.1716 235.448 98.9971 235.59 98.7862C235.739 98.5378 235.811 98.2504 235.796 97.9609C235.796 97.6127 235.726 97.4192 235.59 97.3805C235.394 97.3538 235.195 97.4047 235.036 97.5224L234.159 98.0253L234.126 99.7857Z" fill="#EFB7B2"/>
<path d="M239.355 93.8342C239.589 93.6815 239.857 93.5885 240.136 93.5634C240.337 93.556 240.534 93.6277 240.684 93.7633C240.855 93.9429 240.973 94.1659 241.025 94.4081C241.112 94.7279 241.16 95.057 241.167 95.3882C241.167 95.8396 241.167 96.3038 241.167 96.7745C241.154 97.1584 241.107 97.5404 241.025 97.9158C240.952 98.2647 240.839 98.6043 240.69 98.9282C240.546 99.2256 240.364 99.5031 240.149 99.7535C239.933 100.01 239.676 100.228 239.388 100.398L237.859 101.23C237.843 101.244 237.823 101.251 237.801 101.251C237.78 101.251 237.76 101.244 237.743 101.23C237.725 101.211 237.71 101.187 237.701 101.162C237.692 101.136 237.689 101.109 237.692 101.082V95.0529C237.694 94.9812 237.711 94.9107 237.743 94.8466C237.766 94.7882 237.807 94.7385 237.859 94.7047L239.355 93.8342ZM240.348 95.8396C240.346 95.6649 240.32 95.4915 240.271 95.3237C240.241 95.1968 240.176 95.0807 240.084 94.9884C240.044 94.9479 239.995 94.9162 239.942 94.8951C239.889 94.874 239.832 94.8641 239.775 94.8659C239.613 94.8767 239.457 94.9301 239.323 95.0206L238.511 95.4849V99.689L239.355 99.2054C239.519 99.1103 239.665 98.9882 239.787 98.8444C239.908 98.7029 240.009 98.5469 240.091 98.3801C240.171 98.2024 240.231 98.0165 240.271 97.8256C240.316 97.6264 240.342 97.4235 240.348 97.2194C240.368 96.7487 240.368 96.2909 240.348 95.8396Z" fill="#EFB7B2"/>
<path d="M150.811 0.247083C151.924 0.494739 152.996 0.898515 153.996 1.44642C154.954 1.96116 155.812 2.6424 156.53 3.45821C157.218 4.24298 157.728 5.16668 158.026 6.1664C158.33 7.23654 158.353 8.3672 158.091 9.44846C157.918 10.3057 157.578 11.1207 157.091 11.8471C156.647 12.4683 156.117 13.024 155.518 13.4978C154.929 13.9547 154.301 14.3582 153.641 14.7036L151.784 15.6902C151.225 15.9819 150.694 16.3252 150.198 16.7154C149.75 17.0595 149.406 17.5217 149.205 18.0502C149.107 18.2916 148.944 18.5013 148.734 18.6563C148.635 18.7333 148.52 18.7867 148.397 18.8124C148.274 18.8381 148.147 18.8355 148.025 18.8046L145.291 18.1985C145.16 18.1709 145.035 18.1173 144.924 18.0409C144.813 17.9645 144.719 17.8668 144.646 17.7536C144.569 17.6482 144.518 17.5262 144.497 17.3974C144.475 17.2686 144.485 17.1366 144.524 17.012C144.744 16.1653 145.132 15.3715 145.665 14.6778C146.152 14.0642 146.715 13.5159 147.342 13.0465C147.952 12.5996 148.599 12.2048 149.276 11.8665C149.921 11.5376 150.566 11.2217 151.127 10.9057C151.649 10.6252 152.139 10.2902 152.59 9.90627C152.986 9.57483 153.261 9.12117 153.371 8.61666C153.473 8.17857 153.468 7.72216 153.356 7.28646C153.244 6.85076 153.027 6.44875 152.726 6.11482C151.972 5.29159 150.964 4.74452 149.863 4.56083C147.825 4.10947 146.106 4.79511 144.704 6.61776C144.569 6.81672 144.399 6.98934 144.201 7.12716C143.979 7.23749 143.722 7.25601 143.486 7.17874L140.578 6.53394C140.37 6.49386 140.187 6.37331 140.068 6.19864C140.005 6.10531 139.962 5.99943 139.943 5.88817C139.924 5.77691 139.93 5.66289 139.959 5.55383C140.206 4.65784 140.666 3.8349 141.3 3.15516C142.015 2.36685 142.864 1.71187 143.808 1.22074C144.84 0.68065 145.953 0.31051 147.103 0.12457C148.335 -0.0758419 149.595 -0.0342295 150.811 0.247083ZM147.722 20.9969C147.978 21.057 148.2 21.2147 148.341 21.4365C148.482 21.6582 148.531 21.9263 148.477 22.1834L147.78 25.3429C147.757 25.4752 147.705 25.601 147.63 25.7122C147.554 25.8233 147.456 25.9172 147.342 25.9877C147.234 26.0622 147.111 26.1132 146.983 26.1376C146.854 26.1621 146.721 26.1593 146.594 26.1296L143.473 25.4139C143.34 25.3915 143.214 25.3407 143.103 25.265C142.991 25.1894 142.898 25.0906 142.828 24.9754C142.756 24.8665 142.706 24.744 142.683 24.6154C142.66 24.4867 142.663 24.3547 142.693 24.2274L143.395 21.0679C143.456 20.8117 143.613 20.5891 143.835 20.447C144.056 20.305 144.324 20.2548 144.582 20.307L147.722 20.9969Z" fill="#CB1708"/>
<path d="M154.254 30.4949C155.03 30.3703 155.82 30.3551 156.601 30.4497C157.347 30.5384 158.071 30.7566 158.742 31.0945C159.38 31.4258 159.943 31.8871 160.392 32.4486C160.797 32.9982 161.081 33.6264 161.228 34.2928C161.375 34.9592 161.38 35.6489 161.243 36.3175C161.121 36.8315 160.923 37.3246 160.657 37.7812C160.4 38.2252 160.102 38.6441 159.767 39.0321C159.438 39.419 159.122 39.7865 158.832 40.1412C158.548 40.4716 158.295 40.8277 158.077 41.2051C157.873 41.5358 157.77 41.9191 157.781 42.3077C157.775 42.4893 157.724 42.6667 157.633 42.8235C157.586 42.8958 157.524 42.9574 157.452 43.0041C157.38 43.0508 157.298 43.0816 157.213 43.0944L155.279 43.4039C155.189 43.4203 155.096 43.4185 155.006 43.3985C154.916 43.3786 154.832 43.341 154.757 43.2878C154.681 43.2399 154.617 43.1746 154.571 43.0972C154.525 43.0199 154.498 42.9327 154.492 42.8429C154.411 42.2429 154.455 41.6326 154.621 41.0503C154.773 40.5349 154.99 40.0409 155.266 39.5802C155.537 39.1381 155.848 38.7215 156.195 38.3357C156.536 37.9488 156.839 37.5877 157.136 37.2395C157.401 36.9286 157.63 36.589 157.82 36.2272C157.987 35.9157 158.048 35.5579 157.994 35.2084C157.945 34.9008 157.823 34.6094 157.638 34.3591C157.453 34.1087 157.21 33.9068 156.93 33.7705C156.237 33.4356 155.452 33.3404 154.699 33.4997C154.017 33.5994 153.382 33.9076 152.882 34.3821C152.383 34.8565 152.042 35.474 151.907 36.1498C151.869 36.3124 151.803 36.4672 151.713 36.6076C151.598 36.73 151.442 36.8058 151.275 36.8204L149.237 37.1493C149.094 37.1767 148.946 37.1465 148.824 37.0654C148.762 37.0228 148.71 36.9673 148.671 36.9028C148.632 36.8383 148.608 36.7663 148.599 36.6914C148.538 36.0516 148.638 35.4067 148.889 34.8151C149.144 34.1266 149.52 33.489 149.998 32.9322C150.523 32.3225 151.141 31.8002 151.829 31.3847C152.572 30.9341 153.396 30.6319 154.254 30.4949ZM157.581 44.5839C157.67 44.5698 157.76 44.5734 157.848 44.5944C157.935 44.6154 158.018 44.6535 158.09 44.7064C158.166 44.7563 158.231 44.8218 158.28 44.8985C158.329 44.9752 158.361 45.0613 158.374 45.1513L158.735 47.363C158.763 47.5424 158.719 47.7256 158.613 47.8729C158.507 48.0201 158.347 48.1196 158.168 48.1496L156.008 48.5043C155.828 48.532 155.645 48.488 155.498 48.3818C155.423 48.3312 155.36 48.2654 155.312 48.1888C155.265 48.1121 155.233 48.0263 155.221 47.9369L154.86 45.7252C154.844 45.6364 154.846 45.5452 154.867 45.4575C154.888 45.3697 154.927 45.2874 154.982 45.2158C155.033 45.141 155.099 45.0777 155.175 45.0299C155.252 44.9821 155.338 44.951 155.427 44.9385L157.581 44.5839Z" fill="#CB1708"/>
<g opacity="0.2">
<path d="M154.254 30.4949C155.03 30.3703 155.82 30.3551 156.601 30.4497C157.347 30.5384 158.071 30.7566 158.742 31.0945C159.38 31.4258 159.943 31.8871 160.392 32.4486C160.797 32.9982 161.081 33.6264 161.228 34.2928C161.375 34.9592 161.38 35.6489 161.243 36.3175C161.121 36.8315 160.923 37.3246 160.657 37.7812C160.4 38.2252 160.102 38.6441 159.767 39.0321C159.438 39.419 159.122 39.7865 158.832 40.1412C158.548 40.4716 158.295 40.8277 158.077 41.2051C157.873 41.5358 157.77 41.9191 157.781 42.3077C157.775 42.4893 157.724 42.6667 157.633 42.8235C157.586 42.8958 157.524 42.9574 157.452 43.0041C157.38 43.0508 157.298 43.0816 157.213 43.0944L155.279 43.4039C155.189 43.4203 155.096 43.4185 155.006 43.3985C154.916 43.3786 154.832 43.341 154.757 43.2878C154.681 43.2399 154.617 43.1746 154.571 43.0972C154.525 43.0199 154.498 42.9327 154.492 42.8429C154.411 42.2429 154.455 41.6326 154.621 41.0503C154.773 40.5349 154.99 40.0409 155.266 39.5802C155.537 39.1381 155.848 38.7215 156.195 38.3357C156.536 37.9488 156.839 37.5877 157.136 37.2395C157.401 36.9286 157.63 36.589 157.82 36.2272C157.987 35.9157 158.048 35.5579 157.994 35.2084C157.945 34.9008 157.823 34.6094 157.638 34.3591C157.453 34.1087 157.21 33.9068 156.93 33.7705C156.237 33.4356 155.452 33.3404 154.699 33.4997C154.017 33.5994 153.382 33.9076 152.882 34.3821C152.383 34.8565 152.042 35.474 151.907 36.1498C151.869 36.3124 151.803 36.4672 151.713 36.6076C151.598 36.73 151.442 36.8058 151.275 36.8204L149.237 37.1493C149.094 37.1767 148.946 37.1465 148.824 37.0654C148.762 37.0228 148.71 36.9673 148.671 36.9028C148.632 36.8383 148.608 36.7663 148.599 36.6914C148.538 36.0516 148.638 35.4067 148.889 34.8151C149.144 34.1266 149.52 33.489 149.998 32.9322C150.523 32.3225 151.141 31.8002 151.829 31.3847C152.572 30.9341 153.396 30.6319 154.254 30.4949ZM157.581 44.5839C157.67 44.5698 157.76 44.5734 157.848 44.5944C157.935 44.6154 158.018 44.6535 158.09 44.7064C158.166 44.7563 158.231 44.8218 158.28 44.8985C158.329 44.9752 158.361 45.0613 158.374 45.1513L158.735 47.363C158.763 47.5424 158.719 47.7256 158.613 47.8729C158.507 48.0201 158.347 48.1196 158.168 48.1496L156.008 48.5043C155.828 48.532 155.645 48.488 155.498 48.3818C155.423 48.3312 155.36 48.2654 155.312 48.1888C155.265 48.1121 155.233 48.0263 155.221 47.9369L154.86 45.7252C154.844 45.6364 154.846 45.5452 154.867 45.4575C154.888 45.3697 154.927 45.2874 154.982 45.2158C155.033 45.141 155.099 45.0777 155.175 45.0299C155.252 44.9821 155.338 44.951 155.427 44.9385L157.581 44.5839Z" fill="#131313"/>
</g>
<path d="M172.489 33.9704C172.577 34.0315 172.652 34.1099 172.708 34.2008C172.765 34.2918 172.802 34.3933 172.818 34.4991C172.839 34.604 172.837 34.712 172.814 34.8164C172.791 34.9207 172.746 35.019 172.683 35.1052L171.148 37.2653C171.087 37.3533 171.009 37.4278 170.918 37.4843C170.827 37.5409 170.725 37.5782 170.619 37.5942C170.514 37.6147 170.406 37.6133 170.302 37.59C170.198 37.5667 170.099 37.522 170.013 37.4588L167.898 35.9564C167.81 35.8961 167.736 35.8178 167.68 35.7266C167.625 35.6355 167.589 35.5336 167.576 35.4276C167.555 35.3227 167.557 35.2147 167.58 35.1104C167.603 35.0061 167.648 34.9077 167.711 34.8215L169.265 32.6614C169.391 32.4864 169.581 32.3679 169.793 32.3316C170.005 32.2954 170.224 32.3444 170.4 32.468L172.489 33.9704ZM181.413 19.3397C182.185 19.8802 182.871 20.5321 183.451 21.2742C184.016 21.9644 184.453 22.7507 184.741 23.5955C185.008 24.405 185.098 25.2627 185.005 26.1102C184.896 27.014 184.554 27.8739 184.012 28.6056C183.61 29.1973 183.092 29.7017 182.49 30.0887C181.961 30.4207 181.385 30.6728 180.782 30.8366C180.194 30.9902 179.594 31.0938 178.989 31.1461L177.274 31.3009C176.759 31.342 176.25 31.4305 175.752 31.5653C175.293 31.6696 174.872 31.9021 174.54 32.2359C174.39 32.3884 174.2 32.4956 173.992 32.5454C173.893 32.5738 173.788 32.578 173.687 32.5578C173.586 32.5377 173.492 32.4936 173.411 32.4293L171.541 31.101C171.363 30.9734 171.24 30.7816 171.2 30.5658C171.176 30.4612 171.176 30.3525 171.202 30.2483C171.228 30.1441 171.278 30.0474 171.348 29.9661C171.785 29.3993 172.331 28.9258 172.954 28.5734C173.514 28.2671 174.113 28.0352 174.733 27.8834C175.332 27.7381 175.943 27.6453 176.558 27.6062C177.164 27.5675 177.732 27.5223 178.26 27.4707C178.744 27.428 179.222 27.3329 179.685 27.187C180.091 27.0521 180.44 26.7868 180.678 26.4326C180.894 26.1335 181.034 25.7868 181.087 25.4219C181.14 25.0571 181.103 24.6849 180.981 24.337C180.676 23.4776 180.093 22.7446 179.324 22.2543C177.931 21.2613 176.412 21.229 174.765 22.1575C174.6 22.263 174.416 22.3373 174.224 22.3768C174.124 22.3838 174.023 22.3708 173.928 22.3387C173.833 22.3066 173.745 22.256 173.669 22.1898L171.683 20.7777C171.611 20.7299 171.55 20.6682 171.502 20.5962C171.455 20.5242 171.422 20.4434 171.406 20.3585C171.391 20.2708 171.394 20.1808 171.415 20.0942C171.436 20.0077 171.475 19.9264 171.529 19.8556C171.997 19.2552 172.606 18.7792 173.302 18.4693C174.092 18.1112 174.939 17.893 175.804 17.8245C176.755 17.7449 177.714 17.8211 178.641 18.0501C179.642 18.2913 180.584 18.7297 181.413 19.3397Z" fill="#CB1708"/>
<g opacity="0.6">
<path d="M172.489 33.9704C172.577 34.0315 172.652 34.1099 172.708 34.2008C172.765 34.2918 172.802 34.3933 172.818 34.4991C172.839 34.604 172.837 34.712 172.814 34.8164C172.791 34.9207 172.746 35.019 172.683 35.1052L171.148 37.2653C171.087 37.3533 171.009 37.4278 170.918 37.4843C170.827 37.5409 170.725 37.5782 170.619 37.5942C170.514 37.6147 170.406 37.6133 170.302 37.59C170.198 37.5667 170.099 37.522 170.013 37.4588L167.898 35.9564C167.81 35.8961 167.736 35.8178 167.68 35.7266C167.625 35.6355 167.589 35.5336 167.576 35.4276C167.555 35.3227 167.557 35.2147 167.58 35.1104C167.603 35.0061 167.648 34.9077 167.711 34.8215L169.265 32.6614C169.391 32.4864 169.581 32.3679 169.793 32.3316C170.005 32.2954 170.224 32.3444 170.4 32.468L172.489 33.9704ZM181.413 19.3397C182.185 19.8802 182.871 20.5321 183.451 21.2742C184.016 21.9644 184.453 22.7507 184.741 23.5955C185.008 24.405 185.098 25.2627 185.005 26.1102C184.896 27.014 184.554 27.8739 184.012 28.6056C183.61 29.1973 183.092 29.7017 182.49 30.0887C181.961 30.4207 181.385 30.6728 180.782 30.8366C180.194 30.9902 179.594 31.0938 178.989 31.1461L177.274 31.3009C176.759 31.342 176.25 31.4305 175.752 31.5653C175.293 31.6696 174.872 31.9021 174.54 32.2359C174.39 32.3884 174.2 32.4956 173.992 32.5454C173.893 32.5738 173.788 32.578 173.687 32.5578C173.586 32.5377 173.492 32.4936 173.411 32.4293L171.541 31.101C171.363 30.9734 171.24 30.7816 171.2 30.5658C171.176 30.4612 171.176 30.3525 171.202 30.2483C171.228 30.1441 171.278 30.0474 171.348 29.9661C171.785 29.3993 172.331 28.9258 172.954 28.5734C173.514 28.2671 174.113 28.0352 174.733 27.8834C175.332 27.7381 175.943 27.6453 176.558 27.6062C177.164 27.5675 177.732 27.5223 178.26 27.4707C178.744 27.428 179.222 27.3329 179.685 27.187C180.091 27.0521 180.44 26.7868 180.678 26.4326C180.894 26.1335 181.034 25.7868 181.087 25.4219C181.14 25.0571 181.103 24.6849 180.981 24.337C180.676 23.4776 180.093 22.7446 179.324 22.2543C177.931 21.2613 176.412 21.229 174.765 22.1575C174.6 22.263 174.416 22.3373 174.224 22.3768C174.124 22.3838 174.023 22.3708 173.928 22.3387C173.833 22.3066 173.745 22.256 173.669 22.1898L171.683 20.7777C171.611 20.7299 171.55 20.6682 171.502 20.5962C171.455 20.5242 171.422 20.4434 171.406 20.3585C171.391 20.2708 171.394 20.1808 171.415 20.0942C171.436 20.0077 171.475 19.9264 171.529 19.8556C171.997 19.2552 172.606 18.7792 173.302 18.4693C174.092 18.1112 174.939 17.893 175.804 17.8245C176.755 17.7449 177.714 17.8211 178.641 18.0501C179.642 18.2913 180.584 18.7297 181.413 19.3397Z" fill="white"/>
</g>
<path d="M124.47 91.0487H101.561V35.5438C101.561 30.723 103.476 26.0996 106.884 22.6907C110.293 19.2818 114.917 17.3668 119.738 17.3668H121.853C126.673 17.3668 131.297 19.2818 134.706 22.6907C138.115 26.0996 140.03 30.723 140.03 35.5438V75.5218C140.021 79.6428 138.378 83.592 135.461 86.503C132.544 89.4139 128.591 91.0487 124.47 91.0487Z" fill="#263238"/>
<path d="M99.3293 224.672C98.9241 226.971 98.7084 229.301 98.6845 231.636C98.6007 235.866 97.8269 237.368 97.7238 240.837C97.6013 244.803 98.2912 246.286 99.8968 248.517C101.502 250.748 105.7 252.766 107.518 249C109.337 245.235 109.072 242.765 108.498 238.877C107.912 234.853 107.854 232.629 107.493 229.566C107.196 226.864 106.848 224.807 106.848 224.807L99.3293 224.672Z" fill="#263238"/>
<path d="M111.336 196.578L97.4082 196.326C97.6145 205.624 99.0911 215.948 99.3426 224.698C99.3942 226.342 99.3039 237.458 99.923 240.818C100.858 245.899 106.88 245.209 107.203 242.172C107.525 239.135 106.816 226.155 106.835 224.814C106.777 219.217 109.414 209.77 110.775 199.724C110.833 199.241 111.272 197.061 111.336 196.578Z" fill="#FFA8A7"/>
<path d="M129.229 217.437C129.229 217.437 128.681 217.14 128.584 217.727C128.449 218.424 128.243 219.861 127.94 221.009C127.54 222.602 127.204 225.226 127.443 226.529C127.682 227.831 130.712 229.495 132.679 230.101C135.103 230.849 137.313 232.164 139.127 233.938C141.061 235.769 145.272 237.497 148.154 237.478C151.539 237.478 153.899 236.349 155.015 234.537C156.13 232.725 153.996 232.506 150.127 230.024L147.129 228.089C140.997 224.085 138.746 221.944 137.025 217.94L129.229 217.437Z" fill="#263238"/>
<path d="M137.077 214.955C136.973 212.079 138.959 187.634 138.959 187.634L125.734 193.663C128.565 210.57 129.171 214.561 129.216 217.327C129.158 217.559 129.134 217.798 129.145 218.037C129.145 221.319 132.866 223.092 135.755 225.284C138.21 227.208 140.827 228.917 143.576 230.391C145.678 231.442 149.947 231.539 150.476 230.191C146.955 227.503 141.835 223.479 139.037 220.41C137.67 218.965 137.18 217.837 137.077 214.955Z" fill="#FFA8A7"/>
<path d="M103.114 105.847C98.0334 116.996 98.0334 125.623 98.8781 139.854C99.6261 152.911 100.871 164.421 100.871 164.421C100.677 166.736 97.4595 171.256 97.0404 181.496C96.6535 191.065 97.6852 203.232 97.6852 203.232C97.6852 203.232 104.914 207.236 110.259 203.193C110.259 203.193 115.417 178.568 116.926 166.588C118.216 156.135 120.537 142.782 120.537 142.782L125.418 166.517C124.365 169.884 123.601 173.336 123.136 176.834C122.452 183.881 126.398 197.719 126.398 197.719C126.398 197.719 133.865 199.944 138.424 195.901C138.424 195.901 140.126 173.403 140.765 164.918C141.616 153.55 139.823 122.78 138.424 106.485L103.114 105.847Z" fill="#7A7878"/>
<path d="M120.55 142.762L122.556 124.875C122.556 124.875 131.544 123.676 135.619 119.846C134.453 121.671 132.899 123.216 131.068 124.373C129.237 125.53 127.174 126.269 125.025 126.539L122.124 143.181L125.419 166.517L120.55 142.762Z" fill="#263238"/>
<path d="M156.949 101.449C157.32 98.1853 157.484 94.9009 157.439 91.6161C157.239 88.7789 156.73 88.3147 152.764 83.2916C147.412 76.5018 142.841 70.3955 138.005 64.3279C134.549 59.9948 130.912 59.3306 127.378 59.5241C124.902 59.6595 129.738 71.569 132.169 78.6168L146.052 93.5634C146.482 94.1533 146.679 94.881 146.606 95.6074L145.768 108.323L149.927 113.894C149.927 113.894 156.227 108.465 156.949 101.449Z" fill="#FFA8A7"/>
<path d="M113.992 59.911C111.303 60.098 106.416 60.5559 106.416 60.5559C103.598 62.1292 102.882 63.4252 102.36 67.1651C102.134 68.7642 103.437 73.0135 104.552 79.0553L106.667 90.2556L106.435 95.8138C105.339 99.2055 102.856 103.416 100.664 109.626C111.432 115.635 120.46 115.861 128.649 114.784C134.89 113.978 138.198 112.469 139.301 110.973C139.069 104.841 138.656 101.05 138.527 94.6403C138.482 91.9515 138.643 89.2304 138.753 86.1353C142.938 82.692 142.989 76.9662 140.687 73.2392C135.38 64.6439 130.216 59.234 126.798 59.5113L113.992 59.911Z" fill="#CB1708"/>
<path opacity="0.6" d="M113.992 59.911C111.303 60.098 106.416 60.5559 106.416 60.5559C103.598 62.1292 102.882 63.4252 102.36 67.1651C102.134 68.7642 103.437 73.0135 104.552 79.0553L106.667 90.2556L106.435 95.8138C105.339 99.2055 102.856 103.416 100.664 109.626C111.432 115.635 120.46 115.861 128.649 114.784C134.89 113.978 138.198 112.469 139.301 110.973C139.069 104.841 138.656 101.05 138.527 94.6403C138.482 91.9515 138.643 89.2304 138.753 86.1353C142.938 82.692 142.989 76.9662 140.687 73.2392C135.38 64.6439 130.216 59.234 126.798 59.5113L113.992 59.911Z" fill="white"/>
<path opacity="0.1" d="M130.416 86.2191C130.416 86.2191 125.502 90.0364 119.886 88.0439C118.309 87.547 116.887 86.6514 115.757 85.4438C114.628 84.2363 113.829 82.7576 113.438 81.1509C113.438 81.1509 112.845 87.5668 119.918 89.7526C126.773 91.8612 130.416 86.2191 130.416 86.2191Z" fill="#131313"/>
<path d="M137.083 42.3013C136.87 51.6123 133.859 53.9078 132.337 54.5526C130.816 55.1974 127.901 54.8106 125.064 54.3398V59.9626C125.064 59.9626 128.339 63.3929 128.094 65.9528C127.849 68.5127 122.936 68.8028 119.274 66.2945C117.253 64.9064 115.425 63.2564 113.838 61.3876C113.533 61.027 113.366 60.57 113.367 60.098V46.9439C113.367 46.9439 111.813 48.5882 109.066 46.7053C108.474 46.3271 107.966 45.8297 107.576 45.2447C107.186 44.6597 106.922 43.9999 106.801 43.3074C106.679 42.6148 106.703 41.9046 106.871 41.2218C107.04 40.5391 107.348 39.8988 107.777 39.3417C108.976 37.9295 112.019 37.8328 113.477 39.9865C114.302 41.592 114.412 43.2105 115.334 42.5657C117.784 40.7989 116.469 36.7624 119.428 34.828C120.399 34.3211 121.408 33.89 122.446 33.5384C127.727 31.7136 132.305 30.179 133.408 26.5681C135.484 27.7545 137.341 31.3203 137.083 42.3013Z" fill="#FFA8A7"/>
<path d="M126.669 50.6193C127.346 50.6193 127.894 50.0708 127.894 49.3942C127.894 48.7176 127.346 48.1691 126.669 48.1691C125.992 48.1691 125.444 48.7176 125.444 49.3942C125.444 50.0708 125.992 50.6193 126.669 50.6193Z" fill="#B16668"/>
<path d="M125.857 40.8892C125.856 41.1415 125.782 41.3881 125.643 41.5986C125.504 41.809 125.306 41.9741 125.074 42.0733C124.842 42.1725 124.586 42.2015 124.338 42.1568C124.09 42.112 123.86 41.9955 123.678 41.8215C123.495 41.6475 123.367 41.4238 123.31 41.1781C123.254 40.9323 123.27 40.6753 123.358 40.4388C123.446 40.2023 123.601 39.9968 123.804 39.8476C124.008 39.6985 124.251 39.6122 124.502 39.5996C124.677 39.5909 124.852 39.6178 125.016 39.6787C125.18 39.7395 125.33 39.8331 125.456 39.9538C125.583 40.0744 125.684 40.2196 125.753 40.3804C125.821 40.5412 125.857 40.7143 125.857 40.8892Z" fill="#263238"/>
<path d="M135.625 41.0182C135.639 41.176 135.62 41.3348 135.571 41.4854C135.523 41.636 135.444 41.7754 135.341 41.8954C135.238 42.0155 135.112 42.1138 134.97 42.1846C134.829 42.2554 134.674 42.2973 134.516 42.3078C134.357 42.3226 134.196 42.3032 134.045 42.2511C133.894 42.1989 133.755 42.1152 133.639 42.0054C133.522 41.8957 133.43 41.7624 133.369 41.6144C133.308 41.4664 133.279 41.3072 133.285 41.1472C133.268 40.9883 133.284 40.8276 133.332 40.6751C133.379 40.5226 133.458 40.3814 133.562 40.2602C133.666 40.139 133.794 40.0403 133.937 39.9703C134.081 39.9002 134.237 39.8602 134.397 39.8527C134.557 39.8452 134.716 39.8705 134.866 39.9268C135.015 39.9831 135.152 40.0694 135.267 40.1803C135.382 40.2913 135.473 40.4245 135.534 40.5719C135.596 40.7193 135.627 40.8778 135.625 41.0376V41.0182Z" fill="#263238"/>
<path d="M124.2 44.2036C123.087 44.2036 122.021 43.7622 121.234 42.9764C120.447 42.1906 120.004 41.1245 120.002 40.0123C120.002 37.1623 122.942 37.1623 124.2 37.1623C125.457 37.1623 128.391 37.1623 128.391 40.0123C128.389 41.1234 127.947 42.1885 127.161 42.9741C126.376 43.7597 125.311 44.2019 124.2 44.2036ZM124.2 37.82C121.62 37.82 120.666 38.4648 120.666 40.0123C120.666 40.9529 121.04 41.855 121.705 42.52C122.37 43.1851 123.272 43.5588 124.213 43.5588C125.153 43.5588 126.055 43.1851 126.72 42.52C127.385 41.855 127.759 40.9529 127.759 40.0123C127.733 38.4326 126.74 37.82 124.2 37.82Z" fill="#7A7878"/>
<path d="M134.846 44.2036C133.733 44.2036 132.667 43.7622 131.88 42.9764C131.093 42.1906 130.65 41.1245 130.648 40.0123C130.648 37.1623 133.588 37.1623 134.846 37.1623C136.103 37.1623 139.037 37.1623 139.037 40.0123C139.035 41.1234 138.593 42.1885 137.807 42.9741C137.022 43.7597 135.957 44.2019 134.846 44.2036ZM134.846 37.82C132.305 37.82 131.312 38.4648 131.312 40.0123C131.312 40.9529 131.686 41.855 132.351 42.52C133.016 43.1851 133.918 43.5588 134.859 43.5588C135.799 43.5588 136.701 43.1851 137.366 42.52C138.031 41.855 138.405 40.9529 138.405 40.0123C138.379 38.4326 137.386 37.82 134.846 37.82Z" fill="#7A7878"/>
<path d="M129.042 38.6582L129.248 46.4926L133.369 45.2159L129.042 38.6582Z" fill="#F28F8F"/>
<path d="M125.057 54.3592C122.065 53.9659 115.908 52.1991 114.947 49.7618C115.333 50.9936 116.087 52.0779 117.107 52.8697C118.945 54.4495 125.057 56.2227 125.057 56.2227V54.3592Z" fill="#F28F8F"/>
<path d="M125.205 34.8538L122.471 36.5239C122.256 36.1486 122.193 35.7047 122.297 35.2844C122.4 34.8641 122.661 34.4998 123.026 34.2671C123.206 34.1576 123.407 34.0859 123.616 34.0562C123.825 34.0265 124.038 34.0395 124.241 34.0943C124.445 34.1491 124.635 34.2447 124.801 34.3753C124.967 34.5058 125.104 34.6686 125.205 34.8538Z" fill="#263238"/>
<path d="M136.329 36.7109L133.285 35.647C133.344 35.4453 133.444 35.2578 133.578 35.096C133.712 34.9341 133.877 34.8014 134.065 34.706C134.252 34.6106 134.457 34.5545 134.666 34.5411C134.876 34.5277 135.086 34.5574 135.284 34.6282C135.692 34.7749 136.028 35.073 136.223 35.4607C136.417 35.8484 136.455 36.2961 136.329 36.7109Z" fill="#263238"/>
<path d="M128.062 40.3476C128.018 40.3476 127.975 40.3389 127.934 40.322C127.894 40.305 127.858 40.2802 127.827 40.249C127.796 40.2178 127.772 40.1808 127.756 40.1401C127.74 40.0995 127.732 40.056 127.733 40.0123C127.733 39.4771 128.79 39.1289 129.745 39.1289C130.699 39.1289 131.312 39.4771 131.312 40.0123C131.292 40.0824 131.249 40.144 131.191 40.1879C131.133 40.2318 131.062 40.2555 130.989 40.2555C130.916 40.2555 130.845 40.2318 130.787 40.1879C130.729 40.144 130.687 40.0824 130.667 40.0123C130.667 39.9478 130.338 39.7866 129.764 39.7866C129.302 39.7768 128.842 39.8556 128.41 40.0187C128.41 40.0636 128.401 40.108 128.383 40.1492C128.366 40.1904 128.34 40.2276 128.307 40.2584C128.274 40.2892 128.236 40.313 128.194 40.3283C128.151 40.3437 128.107 40.3502 128.062 40.3476Z" fill="#7A7878"/>
<path d="M120.344 40.0639H120.305L112.935 39.4191C112.591 39.0778 112.181 38.8101 111.729 38.6324L120.383 39.432C120.47 39.4433 120.548 39.4881 120.603 39.5567C120.657 39.6254 120.682 39.7125 120.673 39.7995C120.658 39.8752 120.617 39.9431 120.557 39.9914C120.496 40.0398 120.421 40.0654 120.344 40.0639Z" fill="#7A7878"/>
<path d="M90.083 47.75C92.4946 44.5259 94.1388 42.095 96.3376 39.3675C97.5885 37.8006 98.3881 36.6787 99.5617 35.0731C100.387 33.964 100.851 33.029 101.793 32.6873C102.81 32.2705 103.726 31.6419 104.482 30.8432C104.946 30.3296 105.376 29.7869 105.771 29.2182C107.153 27.358 108.795 25.7056 110.646 24.3113C112.58 22.854 114.74 21.7321 116.733 20.3457C117.919 19.5139 119.19 18.134 117.745 16.8444C117.302 16.4713 116.772 16.2163 116.204 16.1029C112.69 15.342 109.634 16.5478 106.197 17.4247C104.704 17.7974 103.244 18.2912 101.831 18.9014C101.137 19.1761 100.485 19.5497 99.897 20.0104C99.0747 20.8395 98.4008 21.8035 97.9045 22.8605C96.4021 25.5429 93.1781 27.9415 90.9213 30.0629C88.284 32.5454 85.924 34.8216 82.9128 37.5556C80.2046 40.0252 77.5544 42.2949 75.0719 44.9902C73.015 47.2148 73.7823 48.9558 74.0531 49.5619C75.7296 53.0051 77.606 54.2432 79.8564 56.3775C83.7252 60.0722 97.105 70.7051 101.535 74.2192C102.487 74.9668 103.234 75.9427 103.708 77.0564L104.559 79.0231C109.614 79.9516 112.987 72.3622 108.802 63.2253C108.109 61.7478 107.05 60.4717 105.726 59.5177C100.439 55.6682 90.083 47.75 90.083 47.75Z" fill="#FFA8A7"/>
<path d="M90.083 47.75C88.4739 49.7294 86.3297 51.2044 83.9058 51.9993C83.9058 51.9993 87.1298 52.8246 91.5467 48.8591L90.083 47.75Z" fill="#F28F8F"/>
<path d="M155.634 94.724L154.809 94.0148C154.685 93.9335 154.545 93.8824 154.398 93.8656C154.251 93.8488 154.103 93.8668 153.964 93.918L145.008 96.3554C144.557 96.5058 144.143 96.7519 143.796 97.0769C143.449 97.4019 143.176 97.798 142.996 98.2382L136.548 116.828C136.47 116.979 136.44 117.151 136.46 117.32C136.481 117.489 136.552 117.648 136.664 117.776L137.515 118.511C137.639 118.596 137.782 118.65 137.931 118.668C138.081 118.686 138.232 118.668 138.373 118.614L147.342 116.177C147.793 116.026 148.206 115.78 148.554 115.455C148.901 115.13 149.174 114.734 149.354 114.294C150.643 110.638 154.512 99.3602 155.802 95.7041C155.956 95.2463 155.879 94.8981 155.634 94.724Z" fill="#7A7878"/>
<path d="M137.392 117.544L143.841 98.954C144.02 98.514 144.293 98.1183 144.64 97.7943C144.987 97.4703 145.401 97.2257 145.852 97.0776L154.802 94.6402C155.634 94.4145 156.092 94.8917 155.795 95.7041C154.506 99.3602 150.637 110.638 149.347 114.294C149.167 114.734 148.894 115.13 148.547 115.455C148.2 115.78 147.787 116.026 147.335 116.177L138.385 118.64C137.56 118.833 137.115 118.356 137.392 117.544Z" fill="#CB1708"/>
<path d="M144.879 97.5935C144.413 97.9461 144.052 98.4186 143.834 98.9604L137.386 117.544C137.312 117.691 137.282 117.857 137.298 118.021C137.314 118.185 137.376 118.342 137.476 118.472L136.677 117.789C136.562 117.662 136.489 117.503 136.467 117.334C136.445 117.165 136.476 116.993 136.554 116.841L143.002 98.2512C143.206 97.7458 143.537 97.3016 143.963 96.9615L144.879 97.5935Z" fill="#DDC58E"/>
<path d="M153.177 103.197C152.532 105.086 150.295 106.35 146.593 107.227C142.892 108.104 140.848 112.031 141.435 113.224C142.022 114.416 148.006 115.532 150.398 115.19C152.79 114.848 155.189 111.392 155.917 110.322C156.646 109.252 157.484 101.785 156.717 100.759C155.95 99.7342 154.331 99.8954 154.331 99.8954L153.177 103.197Z" fill="#F28F8F"/>
</svg>
