<svg width="247" height="234" viewBox="0 0 247 234" fill="none" xmlns="http://www.w3.org/2000/svg">
<path d="M214.072 33.4634L212.909 31.5473C203.107 15.392 185.389 5.65884 166.701 6.83798C164.298 6.9898 161.908 7.31882 159.553 7.82235C142.566 11.4598 127.784 24.304 121.652 40.7541C118.046 50.4293 117.041 61.5733 110.203 69.2535C101.301 79.2551 86.1934 79.5604 72.9123 79.1499C59.6312 78.7393 44.4866 79.0867 35.6536 89.1199C30.1053 95.4052 28.3418 104.343 28.8103 112.761C29.9947 135.043 45.5236 154.968 65.269 164.874C85.0143 174.781 108.265 175.666 129.88 171.312C160.153 165.206 188.942 148.445 206.25 122.562C223.558 96.679 227.922 61.3996 214.072 33.4634Z" fill="#EBEBEB"/>
<path d="M18.5814 99.3938C22.0021 95.9731 22.0021 90.427 18.5814 87.0062C15.1606 83.5855 9.61452 83.5855 6.19378 87.0062C2.77305 90.427 2.77305 95.9731 6.19378 99.3938C9.61452 102.815 15.1606 102.815 18.5814 99.3938Z" fill="#EBEBEB"/>
<path d="M231.262 13.6687C232.366 8.95867 229.443 4.24559 224.733 3.14174C220.023 2.03788 215.31 4.96124 214.206 9.67127C213.102 14.3813 216.025 19.0944 220.735 20.1982C225.445 21.3021 230.158 18.3787 231.262 13.6687Z" fill="#EBEBEB"/>
<path d="M31.9173 20.4086C27.2577 22.3227 23.5475 26.0068 21.6005 30.6528C19.6535 35.2988 19.6286 40.5273 21.5314 45.1916L33.3281 73.9858L38.5921 71.8223L26.8007 43.0228C25.466 39.7629 25.481 36.1063 26.8423 32.8575C28.2037 29.6086 30.7999 27.0336 34.0598 25.6989C37.3197 24.3642 40.9763 24.3792 44.2251 25.7406C47.474 27.1019 50.049 29.6981 51.3837 32.958L56.674 30.7892C54.7609 26.1352 51.081 22.4294 46.4405 20.4836C41.8001 18.5378 36.5776 18.5108 31.9173 20.4086Z" fill="#D54539"/>
<g opacity="0.3">
<path d="M31.9173 20.4086C27.2577 22.3227 23.5475 26.0068 21.6005 30.6528C19.6535 35.2988 19.6286 40.5273 21.5314 45.1916L33.3281 73.9858L38.5921 71.8223L26.8007 43.0228C25.466 39.7629 25.481 36.1063 26.8423 32.8575C28.2037 29.6086 30.7999 27.0336 34.0598 25.6989C37.3197 24.3642 40.9763 24.3792 44.2251 25.7406C47.474 27.1019 50.049 29.6981 51.3837 32.958L56.674 30.7892C54.7609 26.1352 51.081 22.4294 46.4405 20.4836C41.8001 18.5378 36.5776 18.5108 31.9173 20.4086Z" fill="black"/>
</g>
<path d="M66.5359 45.4284L24.8029 62.5188C23.2398 63.1589 22.4916 64.945 23.1317 66.5081L33.2659 91.2547C33.906 92.8178 35.6921 93.566 37.2552 92.9259L78.9882 75.8355C80.5513 75.1953 81.2996 73.4093 80.6594 71.8462L70.5253 47.0996C69.8851 45.5365 68.0991 44.7882 66.5359 45.4284Z" fill="#D54539"/>
<g opacity="0.5">
<path d="M54.2259 63.5946C53.9267 62.8559 53.4273 62.2155 52.7838 61.7454C52.1403 61.2752 51.3783 60.9941 50.5836 60.9337C49.789 60.8733 48.9933 61.0359 48.2861 61.4034C47.5789 61.7708 46.9883 62.3284 46.5809 63.0133C46.1736 63.6982 45.9655 64.4833 45.9802 65.2801C45.9949 66.0769 46.2319 66.8538 46.6643 67.5232C47.0967 68.1926 47.7075 68.728 48.4277 69.069C49.148 69.4101 49.9492 69.5432 50.7411 69.4535L53.1625 75.3755L55.326 74.4911L52.8993 68.5691C53.6323 67.9978 54.1586 67.2027 54.3981 66.3047C54.6376 65.4067 54.5771 64.4551 54.2259 63.5946Z" fill="black"/>
</g>
<path d="M35.7659 90.1674C35.6554 90.2148 33.4919 85.1771 30.9335 78.9235C28.3752 72.6698 26.3802 67.5637 26.4907 67.5163C26.6013 67.4689 28.7648 72.5066 31.3231 78.7655C33.8814 85.0245 35.8712 90.1253 35.7659 90.1674Z" fill="#FAFAFA"/>
<path d="M49.2409 71.5696C49.0484 71.5829 48.8551 71.5579 48.6724 71.4959C48.1615 71.36 47.6736 71.1489 47.2248 70.8695C46.4629 70.4204 45.81 69.8082 45.3128 69.0769C44.8156 68.3455 44.4865 67.5132 44.3491 66.6396C44.2117 65.766 44.2695 64.8728 44.5182 64.0241C44.7669 63.1755 45.2004 62.3924 45.7877 61.7312C46.1241 61.3196 46.5239 60.9642 46.9721 60.6784C47.2879 60.4836 47.4985 60.4099 47.4985 60.431C46.9705 60.8823 46.4778 61.3733 46.0246 61.8996C45.5029 62.5452 45.1224 63.293 44.9076 64.0947C44.6927 64.8964 44.6484 65.7342 44.7773 66.5541C44.9063 67.3741 45.2057 68.1578 45.6563 68.8549C46.1069 69.5519 46.6986 70.1468 47.3932 70.6011C47.9839 70.9698 48.6015 71.2936 49.2409 71.5696Z" fill="#FAFAFA"/>
<path d="M15.645 76.7599L15.9029 76.0125L16.3925 76.6336C16.7862 77.1229 17.3125 77.4884 17.9085 77.6864L18.656 77.9444L18.0349 78.4339C17.5484 78.8302 17.1835 79.3557 16.9821 79.9499L16.7294 80.7132L16.203 80.0973C15.8058 79.6094 15.2783 79.2443 14.6817 79.0445L13.9395 78.7866L14.5553 78.297C15.0587 77.9 15.4369 77.3663 15.645 76.7599Z" fill="#D54539"/>
<path d="M40.6291 47.392L40.7765 46.9603L41.0607 47.3183C41.288 47.6126 41.5949 47.8355 41.9451 47.9605L42.3767 48.1079L42.0188 48.3974C41.7298 48.6241 41.5123 48.9294 41.3924 49.2765L41.245 49.7082L40.9449 49.3291C40.7194 49.0401 40.4136 48.8241 40.0658 48.708L39.6289 48.5553L39.9921 48.2711C40.2839 48.0447 40.5049 47.7397 40.6291 47.392Z" fill="#D54539"/>
<path d="M10.5875 51.0505L11.0191 49.7924L11.8456 50.8452C12.5039 51.6779 13.3886 52.303 14.3934 52.6455L15.6462 53.0771L14.5934 53.9036C13.7607 54.5631 13.1342 55.4471 12.7878 56.4514L12.3562 57.7042L11.535 56.6514C10.8769 55.8171 9.99237 55.1903 8.98721 54.8458L7.73438 54.4142L8.78718 53.593C9.61692 52.934 10.2415 52.052 10.5875 51.0505Z" fill="#D54539"/>
<path d="M155.732 233.728L78.0299 233.68C73.5418 233.678 69.2386 231.893 66.066 228.718C62.8935 225.544 61.1113 221.239 61.1113 216.751L61.1482 21.9457C61.1489 19.7221 61.5876 17.5204 62.4393 15.4664C63.2911 13.4124 64.5391 11.5463 66.1122 9.97469C67.6852 8.4031 69.5525 7.1568 71.6073 6.30698C73.6621 5.45716 75.8642 5.02047 78.0878 5.02185L155.79 5.06397C160.278 5.06676 164.581 6.85159 167.754 10.0261C170.926 13.2006 172.709 17.505 172.709 21.9931L172.672 216.804C172.671 219.028 172.232 221.229 171.381 223.283C170.529 225.337 169.281 227.203 167.708 228.775C166.135 230.347 164.267 231.593 162.213 232.443C160.158 233.293 157.956 233.729 155.732 233.728Z" fill="#263238"/>
<path d="M155.701 11.9546H140.646C140.154 11.9648 139.67 12.0719 139.22 12.2695C138.77 12.4672 138.364 12.7517 138.024 13.1067C137.684 13.4617 137.418 13.8802 137.24 14.3382C137.062 14.7963 136.976 15.285 136.987 15.7762V18.4819C137.008 19.4737 136.635 20.4334 135.949 21.15C135.263 21.8666 134.32 22.2815 133.329 22.3036H103.966C103.472 22.2954 102.985 22.1898 102.533 21.9928C102.08 21.7958 101.671 21.5114 101.328 21.1558C100.986 20.8002 100.717 20.3805 100.538 19.9207C100.358 19.4609 100.271 18.9702 100.281 18.4767V15.7499C100.292 15.2584 100.207 14.7695 100.029 14.3111C99.8509 13.8527 99.5845 13.4339 99.2448 13.0785C98.905 12.7231 98.4986 12.4381 98.0487 12.2399C97.5988 12.0416 97.1142 11.9339 96.6226 11.923H78.1617C75.0218 11.9216 72.0094 13.1654 69.7851 15.3817C67.5609 17.5981 66.3064 20.606 66.2966 23.746L66.2598 213.893C66.2598 217.036 67.508 220.051 69.73 222.274C71.9521 224.497 74.966 225.746 78.1091 225.748L155.659 225.795C157.216 225.796 158.758 225.491 160.198 224.895C161.637 224.3 162.945 223.427 164.046 222.326C165.148 221.225 166.021 219.918 166.617 218.479C167.213 217.04 167.519 215.498 167.518 213.94L167.555 23.7986C167.553 20.6564 166.302 17.6438 164.079 15.423C161.857 13.2021 158.843 11.9546 155.701 11.9546Z" fill="white"/>
<path d="M109.709 211.277C109.712 211.571 109.628 211.86 109.467 212.107C109.305 212.354 109.075 212.547 108.804 212.663C108.533 212.778 108.234 212.811 107.944 212.757C107.655 212.702 107.388 212.563 107.177 212.357C106.967 212.151 106.822 211.887 106.761 211.599C106.701 211.31 106.727 211.01 106.837 210.737C106.947 210.464 107.135 210.229 107.378 210.063C107.622 209.896 107.909 209.806 108.203 209.803C108.598 209.8 108.978 209.953 109.26 210.23C109.542 210.506 109.703 210.882 109.709 211.277Z" fill="#263238"/>
<path d="M118.047 211.208C118.05 211.503 117.965 211.792 117.804 212.039C117.643 212.286 117.412 212.479 117.141 212.595C116.869 212.71 116.57 212.743 116.28 212.688C115.99 212.633 115.723 212.493 115.513 212.287C115.303 212.08 115.158 211.816 115.099 211.527C115.039 211.238 115.066 210.938 115.176 210.665C115.287 210.392 115.476 210.157 115.72 209.992C115.964 209.826 116.252 209.737 116.546 209.734C116.941 209.732 117.32 209.885 117.601 210.161C117.882 210.438 118.043 210.814 118.047 211.208Z" fill="#263238"/>
<path d="M126.39 211.145C126.393 211.44 126.308 211.729 126.147 211.976C125.986 212.223 125.755 212.416 125.483 212.532C125.212 212.647 124.913 212.68 124.623 212.625C124.333 212.57 124.066 212.43 123.856 212.224C123.646 212.017 123.501 211.753 123.441 211.464C123.381 211.175 123.408 210.875 123.519 210.602C123.63 210.329 123.819 210.094 124.063 209.929C124.307 209.763 124.594 209.673 124.889 209.671C125.283 209.668 125.663 209.822 125.944 210.098C126.225 210.375 126.385 210.751 126.39 211.145Z" fill="#263238"/>
<path d="M156.163 31.1578C156.163 31.1999 154.2 31.2525 151.784 31.2736C149.367 31.2946 147.409 31.2736 147.409 31.2262C147.409 31.1788 149.383 31.1157 151.784 31.1157C154.184 31.1157 156.158 31.1157 156.163 31.1578Z" fill="#263238"/>
<path d="M156.18 33.395C156.18 33.4423 154.222 33.495 151.805 33.516C149.389 33.5371 147.426 33.516 147.426 33.4687C147.426 33.4213 149.384 33.3686 151.805 33.3476C154.227 33.3265 156.18 33.3476 156.18 33.395Z" fill="#263238"/>
<path d="M156.227 35.6322C156.227 35.6795 154.263 35.7322 151.847 35.7532C149.431 35.7743 147.473 35.7532 147.473 35.7059C147.473 35.6585 149.431 35.6111 151.847 35.59C154.263 35.569 156.195 35.59 156.227 35.6322Z" fill="#263238"/>
<path d="M76.5557 38.1905H76.7346H77.261L79.135 38.1484L79.0877 38.1958C79.0877 37.7852 79.0877 37.3325 79.0877 36.8429C79.0746 36.5834 79.0746 36.3234 79.0877 36.0639C79.1152 35.9153 79.1901 35.7797 79.3011 35.6773C79.4121 35.5748 79.5533 35.511 79.7036 35.4953C80.0036 35.4953 80.2721 35.4953 80.5984 35.4953C80.7681 35.5208 80.9229 35.6067 81.0342 35.7373C81.1454 35.8679 81.2057 36.0344 81.2038 36.206C81.2038 36.8377 81.2038 37.5009 81.2038 38.1853L81.1248 38.1063H83.4831L83.4042 38.1853C83.4042 37.2377 83.4042 36.2534 83.4042 35.2479C83.4042 35.0005 83.4042 34.7215 83.4042 34.5004C83.4 34.3921 83.3673 34.2868 83.3094 34.1951C83.2358 34.1027 83.1549 34.0165 83.0673 33.9372C82.7198 33.595 82.3777 33.2529 82.0145 32.9212L81.0196 31.9421C80.8616 31.7789 80.6985 31.621 80.5405 31.4631C80.3826 31.3052 80.2457 31.1367 80.0457 31.0999C79.9556 31.0781 79.8618 31.0762 79.7709 31.0944C79.68 31.1125 79.5941 31.1504 79.5193 31.2052C79.3772 31.3262 79.2245 31.4947 79.0824 31.6368L78.2349 32.4896C77.7085 33.016 77.1505 33.5424 76.7452 34.0267C76.6281 34.3058 76.5881 34.6112 76.6294 34.911C76.6294 35.2058 76.6294 35.4796 76.6294 35.7428C76.6294 36.2692 76.6294 36.7008 76.6294 37.0798C76.6294 37.4588 76.6294 37.7115 76.6294 37.9379C76.6294 38.1642 76.6294 38.2432 76.6294 38.2432C76.6294 38.2432 76.6294 38.1484 76.6294 37.9589C76.6294 37.7694 76.6294 37.4325 76.6294 37.1167C76.6294 36.8008 76.6294 36.2849 76.603 35.7691C76.603 35.5006 76.603 35.2427 76.603 34.9216C76.603 34.7689 76.603 34.6163 76.603 34.4583C76.6024 34.2863 76.6479 34.1173 76.7346 33.9688C77.1716 33.4424 77.6927 32.9634 78.2296 32.3896L79.0666 31.5315C79.2193 31.3841 79.3456 31.2315 79.5193 31.0788C79.6153 31.0072 79.7262 30.9581 79.8438 30.9353C79.9614 30.9125 80.0826 30.9166 80.1984 30.9472C80.418 31.026 80.6112 31.1646 80.7564 31.3473L81.2406 31.8211L82.2408 32.8002L83.2936 33.8161C83.3904 33.902 83.4786 33.9972 83.5568 34.1004C83.6306 34.2174 83.6723 34.3517 83.6779 34.4899C83.6779 34.7426 83.6779 35.0163 83.6779 35.2427C83.6779 36.2481 83.6779 37.2325 83.6779 38.18V38.259H83.5937H81.2354H81.1617V38.18C81.1617 37.4957 81.1617 36.8377 81.1617 36.206C81.1637 36.0669 81.1161 35.9316 81.0273 35.8245C80.9385 35.7174 80.8145 35.6455 80.6774 35.6217C80.4037 35.6217 80.0826 35.6217 79.8194 35.6217C79.6933 35.6315 79.5739 35.682 79.4789 35.7656C79.384 35.8491 79.3188 35.9611 79.293 36.0849C79.293 36.3271 79.293 36.6113 79.293 36.8377C79.293 37.3272 79.293 37.7799 79.293 38.1958V38.2432H79.2456H77.3453H76.7399C76.6767 38.2325 76.6149 38.2149 76.5557 38.1905Z" fill="#263238"/>
<path d="M96.4647 83.3347C96.4647 85.1613 95.096 86.2983 92.9062 86.2983H91.2585V88.5513H89.374V80.3658H92.9167C95.096 80.3658 96.4647 81.5028 96.4647 83.3347ZM94.5433 83.3347C94.5433 82.4345 93.959 81.9081 92.8009 81.9081H91.2585V84.7507H92.8009C93.959 84.7507 94.5433 84.2243 94.5433 83.3347Z" fill="#263238"/>
<path d="M103.187 84.9613V88.5514H101.481V87.767C101.27 88.0719 100.98 88.3143 100.643 88.469C100.306 88.6236 99.9338 88.6848 99.5649 88.6461C98.091 88.6461 97.2119 87.8302 97.2119 86.7406C97.2119 85.6509 97.9963 84.856 99.9124 84.856H101.365C101.365 84.0717 100.897 83.619 99.9124 83.619C99.2615 83.6133 98.6263 83.8183 98.1015 84.2033L97.4435 82.9294C98.2529 82.4104 99.1986 82.1447 100.16 82.1661C102.076 82.1766 103.187 83.0557 103.187 84.9613ZM101.365 86.5668V85.9246H100.112C99.2596 85.9246 98.9912 86.2352 98.9912 86.6563C98.9912 87.0775 99.3754 87.4407 100.018 87.4407C100.306 87.4598 100.594 87.385 100.837 87.2275C101.079 87.0701 101.265 86.8383 101.365 86.5668Z" fill="#263238"/>
<path d="M104.229 87.9671L104.839 86.6563C105.499 87.0529 106.254 87.2639 107.024 87.2669C107.866 87.2669 108.182 87.0459 108.182 86.6932C108.182 85.6404 104.381 86.6932 104.381 84.2033C104.381 83.0083 105.434 82.1661 107.292 82.1661C108.132 82.1495 108.964 82.3393 109.714 82.7188L109.108 84.0138C108.553 83.7036 107.928 83.5422 107.292 83.5453C106.476 83.5453 106.124 83.8032 106.124 84.1348C106.124 85.1877 109.924 84.1664 109.924 86.6458C109.924 87.8144 108.835 88.6461 106.955 88.6461C106.002 88.6656 105.061 88.4312 104.229 87.9671Z" fill="#263238"/>
<path d="M110.43 87.9671L111.035 86.6564C111.697 87.0522 112.453 87.263 113.225 87.267C114.067 87.267 114.383 87.0459 114.383 86.6932C114.383 85.6404 110.582 86.6932 110.582 84.2033C110.582 83.0084 111.635 82.1661 113.493 82.1661C114.333 82.1502 115.165 82.34 115.915 82.7189L115.304 84.0138C114.752 83.7023 114.128 83.5407 113.493 83.5453C112.672 83.5453 112.325 83.8033 112.325 84.1349C112.325 85.1877 116.125 84.1665 116.125 86.6458C116.125 87.8144 115.036 88.6462 113.156 88.6462C112.203 88.6664 111.262 88.432 110.43 87.9671Z" fill="#263238"/>
<path d="M127.243 82.2609L124.964 88.5777H123.211L121.795 84.6718L120.331 88.5777H118.578L116.31 82.2609H118.031L119.515 86.5195L121.058 82.2609H122.6L124.1 86.5195L125.632 82.2609H127.243Z" fill="#263238"/>
<path d="M127.459 85.4088C127.459 83.5137 128.917 82.1661 130.917 82.1661C132.918 82.1661 134.371 83.5137 134.371 85.4088C134.371 87.3038 132.918 88.6461 130.917 88.6461C128.917 88.6461 127.459 87.3038 127.459 85.4088ZM132.523 85.4088C132.497 85.0969 132.382 84.7991 132.189 84.552C131.997 84.3049 131.738 84.119 131.442 84.0172C131.146 83.9154 130.826 83.902 130.523 83.9786C130.22 84.0553 129.945 84.2187 129.733 84.4488C129.521 84.679 129.38 84.966 129.329 85.2746C129.277 85.5833 129.317 85.9004 129.442 86.187C129.568 86.4737 129.774 86.7175 130.036 86.8887C130.298 87.0599 130.604 87.1511 130.917 87.1512C131.143 87.1584 131.367 87.1173 131.575 87.0306C131.783 86.9439 131.971 86.8136 132.124 86.6486C132.278 86.4835 132.394 86.2874 132.466 86.0736C132.537 85.8597 132.562 85.633 132.539 85.4088H132.523Z" fill="#263238"/>
<path d="M139.494 82.1767V83.8611C139.341 83.8611 139.225 83.8611 139.083 83.8611C138.078 83.8611 137.409 84.3875 137.409 85.6141V88.583H135.588V82.2661H137.33V83.0979C137.589 82.7804 137.921 82.5307 138.298 82.3702C138.675 82.2098 139.086 82.1433 139.494 82.1767Z" fill="#263238"/>
<path d="M146.93 79.8763V88.5514H145.172V87.8302C144.928 88.1063 144.625 88.3233 144.285 88.4647C143.944 88.606 143.576 88.6681 143.209 88.6461C142.372 88.6124 141.581 88.2563 141.001 87.6524C140.421 87.0484 140.097 86.2435 140.097 85.4061C140.097 84.5687 140.421 83.7638 141.001 83.1599C141.581 82.556 142.372 82.1999 143.209 82.1661C143.559 82.1488 143.908 82.2082 144.233 82.34C144.557 82.4719 144.849 82.673 145.088 82.9294V79.8763H146.93ZM145.141 85.4088C145.115 85.0957 144.998 84.7971 144.805 84.5495C144.612 84.3019 144.35 84.1162 144.053 84.0152C143.755 83.9143 143.435 83.9025 143.131 83.9813C142.827 84.0601 142.553 84.2261 142.342 84.4588C142.131 84.6916 141.992 84.9809 141.944 85.2912C141.895 85.6015 141.938 85.9192 142.068 86.2053C142.198 86.4914 142.408 86.7333 142.673 86.9014C142.939 87.0694 143.247 87.1563 143.561 87.1512C143.783 87.1523 144.003 87.1068 144.206 87.0174C144.409 86.928 144.591 86.7969 144.74 86.6325C144.889 86.4681 145.002 86.2742 145.071 86.0633C145.14 85.8525 145.164 85.6294 145.141 85.4088Z" fill="#263238"/>
<path d="M160.964 95.3367C160.964 95.4104 141.487 95.4736 117.436 95.4736C93.3849 95.4736 73.8975 95.4104 73.8975 95.3367C73.8975 95.263 93.3743 95.1998 117.436 95.1998C141.498 95.1998 160.964 95.2472 160.964 95.3367Z" fill="#E0E0E0"/>
<path d="M158.938 175.471C158.938 175.55 139.461 175.608 115.405 175.608C91.348 175.608 71.8711 175.55 71.8711 175.471C71.8711 175.392 91.348 175.334 115.405 175.334C139.461 175.334 158.938 175.397 158.938 175.471Z" fill="#E0E0E0"/>
<path d="M139.246 181.493C139.246 181.567 128.418 181.63 115.063 181.63C101.708 181.63 90.8799 181.567 90.8799 181.493C90.8799 181.419 101.703 181.356 115.063 181.356C128.423 181.356 139.246 181.414 139.246 181.493Z" fill="#E0E0E0"/>
<path d="M81.7415 118.656L83.3891 119.546L82.6469 120.788L80.9835 119.804L81.015 121.636H79.5938V119.788L77.9251 120.788L77.2144 119.551L78.8463 118.656L77.1934 117.746L77.9198 116.509L79.5885 117.503V115.661H81.0098L80.9782 117.503L82.6416 116.509L83.3838 117.746L81.7415 118.656Z" fill="#D54539"/>
<path d="M100.649 118.656L102.297 119.546L101.555 120.788L99.9016 119.804V121.657H98.4751V119.809L96.8117 120.809L96.1221 119.551L97.796 118.656L96.1484 117.746L96.8748 116.509L98.5383 117.503V115.661H99.9016L99.8701 117.503L101.533 116.509L102.276 117.746L100.649 118.656Z" fill="#D54539"/>
<path d="M119.052 118.656L120.7 119.546L119.958 120.788L118.294 119.804L118.326 121.657H116.905V119.809L115.236 120.809L114.525 119.551L116.178 118.662L114.525 117.751L115.252 116.514L116.921 117.509V115.666H118.326L118.294 117.509L119.958 116.514L120.7 117.751L119.052 118.656Z" fill="#D54539"/>
<path d="M136.882 118.656L138.529 119.546L137.803 120.788L136.139 119.804L136.171 121.636H134.75V119.788L133.086 120.788L132.354 119.551L134.007 118.662L132.354 117.751L133.081 116.514L134.744 117.509V115.666H136.166L136.134 117.509L137.797 116.514L138.54 117.751L136.882 118.656Z" fill="#D54539"/>
<path d="M154.569 118.656L156.227 119.551L155.485 120.794L153.821 119.809L153.847 121.641H152.426V119.793L150.763 120.794L150.047 119.551L151.695 118.662L150.047 117.751L150.773 116.514L152.437 117.509V115.666H153.858L153.832 117.509L155.495 116.514L156.237 117.751L154.569 118.656Z" fill="#D54539"/>
<path d="M84.6732 130.121H76.6982C75.7116 130.12 74.7658 129.727 74.0681 129.03C73.3705 128.332 72.978 127.386 72.9766 126.4V112.24C72.978 111.253 73.3707 110.308 74.0685 109.611C74.7663 108.915 75.7121 108.523 76.6982 108.523H84.6732C85.6594 108.523 86.6052 108.915 87.303 109.611C88.0008 110.308 88.3935 111.253 88.3949 112.24V126.394C88.3949 127.382 88.0029 128.329 87.3052 129.028C86.6074 129.727 85.6608 130.12 84.6732 130.121ZM76.6982 108.786C75.7819 108.786 74.903 109.15 74.2546 109.797C73.6061 110.445 73.2412 111.323 73.2398 112.24V126.394C73.2412 127.311 73.606 128.19 74.2543 128.838C74.9025 129.487 75.7814 129.852 76.6982 129.853H84.6732C85.5905 129.853 86.4701 129.489 87.1187 128.84C87.7673 128.191 88.1317 127.312 88.1317 126.394V112.234C88.1303 111.318 87.7653 110.44 87.1169 109.792C86.4684 109.145 85.5896 108.781 84.6732 108.781L76.6982 108.786Z" fill="#263238"/>
<path d="M103.197 130.121H95.2222C94.7315 130.123 94.2451 130.029 93.7911 129.842C93.3371 129.656 92.9244 129.382 92.5767 129.035C92.2289 128.689 91.953 128.278 91.7647 127.824C91.5764 127.371 91.4795 126.885 91.4795 126.394V112.234C91.4809 111.248 91.8736 110.303 92.5714 109.606C93.2692 108.909 94.215 108.518 95.2012 108.518H103.176C104.162 108.518 105.108 108.909 105.806 109.606C106.504 110.303 106.896 111.248 106.898 112.234V126.394C106.898 127.378 106.509 128.322 105.816 129.021C105.122 129.719 104.181 130.114 103.197 130.121ZM95.2222 108.786C94.3059 108.786 93.427 109.15 92.7786 109.797C92.1301 110.445 91.7651 111.323 91.7637 112.239V126.394C91.7651 127.311 92.13 128.19 92.7782 128.838C93.4265 129.487 94.3054 129.852 95.2222 129.853H103.197C104.114 129.853 104.994 129.489 105.643 128.84C106.291 128.191 106.656 127.312 106.656 126.394V112.234C106.654 111.318 106.289 110.44 105.641 109.792C104.992 109.145 104.114 108.781 103.197 108.781L95.2222 108.786Z" fill="#263238"/>
<path d="M121.216 130.121H113.235C112.249 130.12 111.303 129.727 110.605 129.03C109.908 128.332 109.515 127.386 109.514 126.4V112.24C109.515 111.253 109.908 110.308 110.606 109.611C111.303 108.915 112.249 108.523 113.235 108.523H121.216C122.201 108.525 123.145 108.917 123.842 109.613C124.539 110.31 124.931 111.254 124.932 112.24V126.394C124.933 126.883 124.837 127.367 124.651 127.819C124.464 128.271 124.191 128.682 123.846 129.028C123.501 129.374 123.091 129.648 122.639 129.836C122.188 130.024 121.704 130.121 121.216 130.121ZM113.235 108.786C112.319 108.786 111.44 109.15 110.792 109.797C110.143 110.445 109.778 111.323 109.777 112.24V126.394C109.778 127.311 110.143 128.19 110.791 128.838C111.44 129.487 112.319 129.852 113.235 129.853H121.216C122.132 129.852 123.01 129.487 123.658 128.838C124.305 128.19 124.669 127.311 124.669 126.394V112.234C124.669 111.318 124.305 110.44 123.657 109.792C123.01 109.145 122.131 108.781 121.216 108.781L113.235 108.786Z" fill="#263238"/>
<path d="M139.434 130.121H131.454C130.467 130.12 129.522 129.727 128.824 129.03C128.126 128.332 127.734 127.386 127.732 126.4V112.24C127.734 111.253 128.127 110.308 128.824 109.611C129.522 108.915 130.468 108.523 131.454 108.523H139.434C140.42 108.525 141.364 108.917 142.061 109.613C142.757 110.31 143.149 111.254 143.151 112.24V126.394C143.151 126.883 143.056 127.367 142.869 127.819C142.683 128.271 142.41 128.682 142.064 129.028C141.719 129.374 141.309 129.648 140.858 129.836C140.407 130.024 139.923 130.121 139.434 130.121ZM131.454 108.786C130.538 108.786 129.659 109.15 129.01 109.797C128.362 110.445 127.997 111.323 127.996 112.24V126.394C127.997 127.311 128.362 128.19 129.01 128.838C129.658 129.487 130.537 129.852 131.454 129.853H139.434C140.351 129.852 141.229 129.487 141.876 128.838C142.524 128.19 142.888 127.311 142.888 126.394V112.234C142.888 111.318 142.524 110.44 141.876 109.792C141.229 109.145 140.35 108.781 139.434 108.781L131.454 108.786Z" fill="#263238"/>
<path d="M157.122 130.121H149.147C148.161 130.12 147.215 129.727 146.517 129.03C145.82 128.332 145.427 127.386 145.426 126.4V112.24C145.427 111.253 145.82 110.308 146.518 109.611C147.215 108.915 148.161 108.523 149.147 108.523H157.122C158.109 108.523 159.054 108.915 159.752 109.611C160.45 110.308 160.843 111.253 160.844 112.24V126.394C160.844 127.382 160.452 128.329 159.754 129.028C159.057 129.727 158.11 130.12 157.122 130.121ZM149.147 108.786C148.231 108.786 147.352 109.15 146.704 109.797C146.055 110.445 145.69 111.323 145.689 112.24V126.394C145.689 127.312 146.053 128.191 146.702 128.84C147.351 129.489 148.23 129.853 149.147 129.853H157.122C158.039 129.852 158.918 129.487 159.566 128.838C160.215 128.19 160.579 127.311 160.581 126.394V112.234C160.579 111.318 160.215 110.44 159.566 109.792C158.918 109.145 158.039 108.781 157.122 108.781L149.147 108.786Z" fill="#263238"/>
<path d="M156.537 147.219H79.0456C75.7634 147.219 73.1025 149.88 73.1025 153.162V156.931C73.1025 160.213 75.7634 162.874 79.0456 162.874H156.537C159.82 162.874 162.48 160.213 162.48 156.931V153.162C162.48 149.88 159.82 147.219 156.537 147.219Z" fill="#D54539"/>
<path d="M106.508 151.899H108.913C110.645 151.899 111.835 152.951 111.835 154.531C111.835 156.11 110.645 157.163 108.913 157.163H106.508V151.899ZM108.85 156.189C109.286 156.189 109.704 156.016 110.012 155.708C110.32 155.4 110.493 154.982 110.493 154.546C110.493 154.111 110.32 153.693 110.012 153.385C109.704 153.077 109.286 152.904 108.85 152.904H107.729V156.189H108.85Z" fill="white"/>
<path d="M112.373 155.162C112.346 154.714 112.454 154.268 112.683 153.881C112.912 153.495 113.252 153.187 113.659 152.996C114.065 152.805 114.52 152.74 114.963 152.811C115.407 152.881 115.819 153.083 116.147 153.391C116.474 153.698 116.702 154.097 116.8 154.535C116.898 154.974 116.862 155.431 116.697 155.849C116.532 156.267 116.246 156.625 115.875 156.878C115.504 157.131 115.065 157.267 114.616 157.268C114.328 157.287 114.039 157.246 113.768 157.149C113.496 157.051 113.248 156.899 113.038 156.702C112.827 156.504 112.66 156.266 112.546 156.001C112.431 155.736 112.373 155.451 112.373 155.162ZM115.653 155.162C115.653 154.883 115.542 154.615 115.344 154.418C115.147 154.22 114.879 154.11 114.6 154.11C114.321 154.11 114.053 154.22 113.856 154.418C113.658 154.615 113.547 154.883 113.547 155.162C113.547 155.442 113.658 155.709 113.856 155.907C114.053 156.104 114.321 156.215 114.6 156.215C114.879 156.215 115.147 156.104 115.344 155.907C115.542 155.709 115.653 155.442 115.653 155.162Z" fill="white"/>
<path d="M121.795 154.867V157.194H120.616V155.046C120.616 154.388 120.311 154.088 119.79 154.088C119.269 154.088 118.816 154.436 118.816 155.183V157.194H117.637V153.125H118.763V153.604C118.939 153.427 119.149 153.289 119.381 153.198C119.613 153.108 119.862 153.067 120.111 153.078C121.069 153.067 121.795 153.625 121.795 154.867Z" fill="white"/>
<path d="M126.875 155.494H123.796C123.86 155.747 124.012 155.968 124.226 156.118C124.439 156.267 124.699 156.336 124.959 156.31C125.147 156.318 125.335 156.287 125.511 156.219C125.687 156.152 125.846 156.048 125.98 155.915L126.612 156.599C126.397 156.825 126.135 157.001 125.845 157.115C125.555 157.228 125.244 157.277 124.933 157.257C123.522 157.257 122.606 156.373 122.606 155.152C122.6 154.868 122.653 154.586 122.762 154.324C122.87 154.061 123.031 153.824 123.235 153.626C123.439 153.429 123.681 153.275 123.947 153.175C124.213 153.076 124.496 153.032 124.78 153.046C125.06 153.033 125.34 153.078 125.601 153.179C125.863 153.28 126.101 153.434 126.299 153.633C126.497 153.831 126.652 154.069 126.753 154.33C126.854 154.592 126.899 154.872 126.885 155.152C126.896 155.268 126.88 155.394 126.875 155.494ZM123.78 154.82H125.785C125.747 154.582 125.624 154.366 125.441 154.209C125.257 154.053 125.024 153.967 124.783 153.967C124.541 153.967 124.308 154.053 124.124 154.209C123.941 154.366 123.818 154.582 123.78 154.82Z" fill="white"/>
<path d="M116.91 72.475C125.646 72.475 132.729 65.3929 132.729 56.6566C132.729 47.9204 125.646 40.8383 116.91 40.8383C108.174 40.8383 101.092 47.9204 101.092 56.6566C101.092 65.3929 108.174 72.475 116.91 72.475Z" fill="#D54539"/>
<path d="M114.115 53.7772H113.852V52.3033C113.852 51.4852 114.177 50.7006 114.755 50.1221C115.334 49.5436 116.118 49.2186 116.936 49.2186C117.754 49.2186 118.539 49.5436 119.118 50.1221C119.696 50.7006 120.021 51.4852 120.021 52.3033V53.5035H119.758V52.3033C119.758 51.555 119.461 50.8373 118.931 50.3082C118.402 49.779 117.685 49.4818 116.936 49.4818C116.188 49.4818 115.47 49.779 114.941 50.3082C114.412 50.8373 114.115 51.555 114.115 52.3033V53.7772Z" fill="white"/>
<path d="M120.832 64.0947H112.989C112.644 64.0933 112.314 63.9559 112.071 63.7124C111.827 63.4688 111.69 63.1389 111.688 62.7945V54.9458C111.69 54.6014 111.827 54.2715 112.071 54.028C112.314 53.7844 112.644 53.647 112.989 53.6456H120.832C121.176 53.647 121.506 53.7844 121.75 54.028C121.993 54.2715 122.131 54.6014 122.132 54.9458V62.7945C122.131 63.1389 121.993 63.4688 121.75 63.7124C121.506 63.9559 121.176 64.0933 120.832 64.0947ZM112.989 53.9088C112.709 53.9088 112.442 54.0198 112.244 54.2172C112.047 54.4146 111.936 54.6824 111.936 54.9616V62.8103C111.936 63.0895 112.047 63.3573 112.244 63.5547C112.442 63.7522 112.709 63.8631 112.989 63.8631H120.832C121.111 63.8631 121.379 63.7522 121.577 63.5547C121.774 63.3573 121.885 63.0895 121.885 62.8103V54.9458C121.885 54.6666 121.774 54.3988 121.577 54.2014C121.379 54.004 121.111 53.893 120.832 53.893L112.989 53.9088Z" fill="white"/>
<path d="M116.947 59.1255C116.703 59.1255 116.465 59.0532 116.262 58.9179C116.06 58.7825 115.902 58.5902 115.809 58.3651C115.715 58.14 115.691 57.8923 115.739 57.6534C115.786 57.4145 115.903 57.195 116.076 57.0227C116.248 56.8504 116.467 56.7331 116.706 56.6856C116.945 56.6381 117.193 56.6625 117.418 56.7557C117.643 56.8489 117.835 57.0068 117.971 57.2094C118.106 57.4119 118.178 57.6501 118.178 57.8937C118.178 58.2204 118.049 58.5337 117.818 58.7647C117.587 58.9957 117.273 59.1255 116.947 59.1255ZM116.947 56.9304C116.755 56.9304 116.567 56.9873 116.408 57.094C116.249 57.2007 116.124 57.3522 116.051 57.5295C115.978 57.7068 115.959 57.9018 115.997 58.0899C116.035 58.2779 116.128 58.4505 116.264 58.5857C116.4 58.721 116.573 58.8128 116.761 58.8496C116.949 58.8864 117.144 58.8664 117.321 58.7923C117.498 58.7182 117.649 58.5932 117.755 58.4332C117.86 58.2733 117.916 58.0855 117.915 57.8937C117.917 57.7652 117.894 57.6375 117.846 57.5182C117.798 57.3989 117.727 57.2902 117.637 57.1986C117.547 57.107 117.44 57.0342 117.321 56.9845C117.202 56.9349 117.075 56.9093 116.947 56.9093V56.9304Z" fill="white"/>
<path d="M117.042 58.9412H116.778V61.1626H117.042V58.9412Z" fill="white"/>
<path d="M226.925 222.605L216.991 199.691L205.595 207.008L217.681 227.953L223.74 225.237L226.925 222.605Z" fill="#FFBE9D"/>
<path d="M226.704 221.326L227.03 221.979C227.03 221.979 240.269 220.847 241.443 222.879L219.524 233.78L216.191 226.337C220.203 226.232 223.698 224.705 226.704 221.326Z" fill="#D54539"/>
<g opacity="0.6">
<path d="M219.571 227.574C219.392 227.743 219.282 227.971 219.261 228.216C219.241 228.461 219.312 228.705 219.46 228.901C219.622 229.086 219.849 229.202 220.094 229.225C220.339 229.247 220.584 229.174 220.777 229.022C220.965 228.843 221.081 228.6 221.102 228.34C221.122 228.081 221.046 227.823 220.887 227.616C220.701 227.438 220.453 227.338 220.195 227.338C219.937 227.338 219.689 227.438 219.503 227.616" fill="white"/>
</g>
<g opacity="0.6">
<path d="M219.524 233.78L218.724 231.991L240.022 222.2C240.022 222.2 241.212 222.142 241.443 222.884L219.524 233.78Z" fill="white"/>
</g>
<path d="M227.141 222C227.188 222.11 226.677 222.421 226.325 223.052C225.972 223.684 225.909 224.247 225.798 224.253C225.688 224.258 225.53 223.563 225.972 222.837C226.414 222.11 227.114 221.889 227.141 222Z" fill="#263238"/>
<path d="M229.921 221.805C230 221.9 229.626 222.331 229.489 222.942C229.353 223.553 229.489 224.111 229.374 224.158C229.258 224.205 228.895 223.631 229.084 222.847C229.274 222.063 229.858 221.705 229.921 221.805Z" fill="#263238"/>
<path d="M232.589 223.905C232.499 223.979 232.062 223.516 232.062 222.794C232.062 222.073 232.431 221.589 232.52 221.657C232.61 221.726 232.457 222.184 232.478 222.784C232.499 223.384 232.689 223.842 232.589 223.905Z" fill="#263238"/>
<path d="M208.244 226.585L208.623 201.607L195.226 203.586L197.615 227.653L204.259 227.669L208.244 226.585Z" fill="#FFBE9D"/>
<path d="M208.564 225.326L208.601 226.053C208.601 226.053 221.129 230.475 221.361 232.807L196.894 233.723L196.92 225.569C200.62 227.116 204.437 227.164 208.564 225.326Z" fill="#D54539"/>
<g opacity="0.6">
<path d="M199.494 228.08C199.262 228.161 199.068 228.325 198.948 228.541C198.829 228.756 198.793 229.008 198.847 229.248C198.919 229.484 199.079 229.683 199.293 229.804C199.507 229.926 199.76 229.96 199.999 229.901C200.247 229.815 200.453 229.641 200.579 229.411C200.705 229.181 200.74 228.913 200.679 228.659C200.575 228.423 200.385 228.237 200.148 228.139C199.91 228.041 199.644 228.038 199.405 228.132" fill="white"/>
</g>
<g opacity="0.6">
<path d="M196.894 233.723V231.764L220.339 231.601C220.339 231.601 221.45 232.033 221.355 232.807L196.894 233.723Z" fill="white"/>
</g>
<path d="M208.685 226.116C208.685 226.237 208.09 226.316 207.517 226.721C206.943 227.127 206.653 227.637 206.537 227.595C206.422 227.553 206.58 226.858 207.28 226.379C207.98 225.9 208.706 226.006 208.685 226.116Z" fill="#263238"/>
<path d="M211.291 227.085C211.322 227.195 210.817 227.422 210.427 227.943C210.038 228.464 209.943 228.996 209.822 228.996C209.701 228.996 209.606 228.322 210.096 227.68C210.585 227.037 211.285 226.969 211.291 227.085Z" fill="#263238"/>
<path d="M212.866 230.096C212.76 230.122 212.571 229.532 212.866 228.869C213.16 228.206 213.697 227.922 213.755 228.016C213.813 228.111 213.476 228.48 213.229 229.027C212.981 229.575 212.987 230.096 212.866 230.096Z" fill="#263238"/>
<path d="M198.605 124.757L198.105 105.091L178.965 106.096L178.333 108.423C177.304 112.026 176.467 115.681 175.827 119.372C174.543 127.61 174.695 135.106 177.933 143.913C181.17 152.72 186.229 169.465 186.229 169.465L205.216 221.91L227.325 214.641L198.605 124.757Z" fill="#263238"/>
<path d="M210.18 104.454L211.849 109.902C214.302 111.481 218.266 119.22 218.629 122.389C218.992 125.557 219.682 136.407 218.961 149.124C218.345 159.584 213.17 220.805 213.17 220.805L192.251 221.91L194.43 122.915L195.351 105.238L210.18 104.454Z" fill="#263238"/>
<path d="M174.332 121.183C174.565 121.282 174.809 121.354 175.058 121.399C175.728 121.548 176.41 121.64 177.096 121.673C179.38 121.796 181.657 121.328 183.707 120.313C185.757 119.299 187.51 117.773 188.798 115.882C189.189 115.317 189.529 114.718 189.814 114.092C189.931 113.869 190.021 113.632 190.082 113.387C190.029 113.361 189.635 114.371 188.629 115.766C187.321 117.587 185.587 119.06 183.578 120.055C181.569 121.051 179.347 121.54 177.106 121.478C176.177 121.427 175.251 121.328 174.332 121.183Z" fill="#CCA856"/>
<path d="M209.391 110.666C209.405 110.824 209.446 110.979 209.512 111.123C209.648 111.527 209.809 111.92 209.996 112.303C211.217 114.863 213.128 117.032 215.513 118.567C215.87 118.798 216.241 119.008 216.623 119.193C216.759 119.274 216.907 119.335 217.06 119.372C217.087 119.325 216.502 119.009 215.628 118.393C213.344 116.799 211.476 114.679 210.18 112.213C209.67 111.271 209.427 110.65 209.391 110.666Z" fill="#CCA856"/>
<path d="M199.531 127.384C199.531 127.384 199.584 127.516 199.674 127.789L200.058 128.995C200.395 130.048 200.884 131.627 201.511 133.632C202.764 137.675 204.574 143.508 206.812 150.714C211.349 165.117 217.113 185.178 224.841 206.892C225.725 209.492 226.603 212.059 227.473 214.593L227.515 214.73L227.383 214.772L205.274 222.031L205.153 222.073L205.111 221.952L192.399 186.683L188.782 176.582C188.366 175.413 188.051 174.508 187.83 173.892C187.724 173.59 187.645 173.358 187.593 173.197L187.514 172.96C187.514 172.96 187.551 173.034 187.608 173.192C187.666 173.35 187.756 173.581 187.872 173.876L188.861 176.55C189.719 178.903 190.967 182.34 192.546 186.631L205.348 221.847L205.19 221.768L227.299 214.493L227.21 214.667C226.346 212.133 225.469 209.566 224.578 206.966C216.85 185.246 211.118 165.18 206.627 150.762C204.427 143.539 202.648 137.696 201.411 133.654C200.805 131.632 200.332 130.069 200.01 128.995C199.853 128.468 199.731 128.063 199.653 127.784C199.574 127.505 199.531 127.384 199.531 127.384Z" fill="#CCA856"/>
<path d="M218.34 70.3063C218.34 70.3063 217.339 64.7106 214.47 62.0312C211.602 59.3518 199.647 56.3198 199.647 56.3198C199.647 56.3198 199.789 60.4731 197.115 61.5838C194.283 62.7682 191.451 62.3681 189.219 60.0046C187.874 58.5356 186.936 56.7411 186.497 54.7985C186.497 54.7985 172.327 56.8672 170.311 60.71C168.294 64.5527 166.184 79.134 166.184 79.134L179.023 81.1607L178.607 106.102L212.349 104.328L210.443 81.0554L219.698 81.8819L218.34 70.3063Z" fill="#CCA856"/>
<path d="M181.581 81.8608C181.601 81.6754 181.601 81.4883 181.581 81.3028C181.581 80.9396 181.549 80.4185 181.512 79.771C181.444 78.4866 181.333 76.7073 181.186 74.7439C181.038 72.7804 180.896 71.0011 180.775 69.7167C180.712 69.0745 180.659 68.5534 180.617 68.1954C180.609 68.0075 180.575 67.8216 180.517 67.6427C180.49 67.8277 180.49 68.0157 180.517 68.2007C180.517 68.5639 180.549 69.085 180.586 69.7273C180.654 71.0169 180.765 72.7962 180.912 74.7597C181.06 76.7231 181.202 78.5024 181.323 79.7868C181.381 80.429 181.439 80.9502 181.481 81.3081C181.486 81.4964 181.519 81.6828 181.581 81.8608Z" fill="#263238"/>
<path d="M213.001 69.9484C212.923 69.9484 212.265 72.4909 211.528 75.6704C211.035 77.5794 210.638 79.512 210.338 81.4608C210.925 79.5795 211.417 77.6697 211.812 75.7388C212.305 73.8297 212.702 71.8971 213.001 69.9484Z" fill="#263238"/>
<path d="M171.669 59.7625C171.669 59.8151 172.28 59.8941 173.248 60.1994C174.477 60.5986 175.628 61.2077 176.649 61.9997C177.663 62.8008 178.534 63.7693 179.223 64.8633C179.749 65.7108 179.97 66.2899 180.023 66.2688C180.005 66.123 179.964 65.981 179.902 65.8477C179.765 65.4714 179.598 65.107 179.402 64.758C178.077 62.4344 175.885 60.7308 173.306 60.0204C172.922 59.9107 172.529 59.8349 172.132 59.7941C171.981 59.7548 171.824 59.7441 171.669 59.7625Z" fill="#263238"/>
<path d="M214.739 63.1577C214.471 63.721 214.293 64.3233 214.213 64.9422C214.045 65.5394 213.972 66.1594 213.997 66.7794C214.254 66.2155 214.423 65.6154 214.497 65.0001C214.674 64.4026 214.756 63.7808 214.739 63.1577Z" fill="#263238"/>
<path d="M168.458 79.5078C168.458 79.5078 173.28 98.6215 173.801 100.253C174.322 101.885 175.259 106.296 179.913 106.97C186.198 107.886 210.57 105.733 210.57 105.733L205.659 100.143L183.976 95.2788L180.292 81.3818L168.458 79.5078Z" fill="#FFBE9D"/>
<path d="M205.891 96.8633C205.808 97.004 205.754 97.1597 205.733 97.3213C205.626 97.747 205.566 98.1829 205.554 98.6215C205.501 100.085 205.882 101.532 206.649 102.78C207.059 103.469 207.564 104.096 208.149 104.644C208.635 105.091 209.208 105.431 209.833 105.644C210.254 105.779 210.692 105.853 211.134 105.865C211.294 105.883 211.457 105.868 211.613 105.823C211.034 105.751 210.463 105.626 209.907 105.449C209.319 105.222 208.782 104.88 208.328 104.443C207.776 103.901 207.294 103.291 206.896 102.627C206.162 101.419 205.769 100.035 205.759 98.6215C205.754 97.5371 205.943 96.8738 205.891 96.8633Z" fill="#DDC58E"/>
<path d="M181.428 77.2127C181.234 77.2139 181.04 77.1945 180.849 77.1548L179.27 76.9284C177.954 76.7389 176.112 76.5231 174.117 76.2599C172.392 76.0502 170.679 75.7533 168.984 75.3703C168.337 75.2124 167.816 75.0702 167.463 74.9544C167.28 74.9082 167.104 74.841 166.937 74.7544C166.937 74.707 167.747 74.9176 169.042 75.1755C170.337 75.4334 172.158 75.7019 174.169 75.9809C176.18 76.2599 178.007 76.5073 179.317 76.7284C179.975 76.8495 180.502 76.96 180.865 77.0495C181.06 77.0765 181.249 77.1315 181.428 77.2127Z" fill="#D54539"/>
<path d="M180.439 70.8485C180.276 70.8782 180.109 70.8871 179.944 70.8748C179.623 70.8748 179.16 70.8748 178.586 70.8327C177.444 70.7748 175.864 70.6484 174.127 70.4326C172.39 70.2168 170.827 69.9483 169.706 69.722C169.142 69.6062 168.69 69.5061 168.379 69.4272C168.214 69.4054 168.054 69.3555 167.905 69.2798C168.523 69.3188 169.137 69.4014 169.742 69.5272C170.869 69.7009 172.432 69.9378 174.159 70.1536C175.886 70.3694 177.459 70.5274 178.602 70.6326C179.219 70.6599 179.833 70.732 180.439 70.8485Z" fill="#D54539"/>
<path d="M179.338 66.0055C178.84 66.063 178.336 66.063 177.838 66.0055C175.427 65.8405 173.043 65.3935 170.737 64.6737C170.25 64.5493 169.779 64.3728 169.331 64.1473C169.826 64.2207 170.314 64.3351 170.789 64.4895C171.679 64.7211 172.921 65.0159 174.3 65.2791C175.679 65.5423 176.932 65.7055 177.859 65.8055C178.356 65.833 178.851 65.8999 179.338 66.0055Z" fill="#D54539"/>
<path d="M188.334 59.1044C187.785 59.3277 187.218 59.5038 186.639 59.6308C185.586 59.9046 184.117 60.2415 182.491 60.5678C180.864 60.8942 179.375 61.1416 178.28 61.2995C177.7 61.4125 177.112 61.4742 176.521 61.4838C177.085 61.3164 177.661 61.1897 178.243 61.1048L182.412 60.2941L186.576 59.4361C187.152 59.2797 187.74 59.1688 188.334 59.1044Z" fill="#D54539"/>
<path d="M214.491 64.8054C214.284 64.757 214.083 64.6864 213.891 64.5948L212.28 63.9316C210.927 63.3736 209.053 62.5998 206.969 61.7838C204.884 60.9679 202.984 60.2678 201.605 59.7625L199.978 59.1624C199.772 59.1006 199.574 59.014 199.389 58.9044C199.601 58.9325 199.809 58.9837 200.01 59.0571C200.41 59.1676 200.973 59.3466 201.673 59.5835C203.068 60.0415 204.984 60.7152 207.074 61.5312C209.164 62.3471 211.027 63.1472 212.338 63.7578C213.007 64.0632 213.544 64.3158 213.917 64.5001C214.12 64.5793 214.312 64.6818 214.491 64.8054Z" fill="#D54539"/>
<path d="M213.002 69.7114C212.892 69.7111 212.783 69.6987 212.676 69.6746L211.739 69.5272L208.317 68.9271C205.427 68.4007 201.432 67.7216 196.989 67.1847C194.768 66.9268 192.646 66.7425 190.709 66.6267C188.772 66.5109 187.024 66.4846 185.566 66.5109C184.834 66.5109 184.171 66.5425 183.587 66.5583C183.003 66.5741 182.508 66.5951 182.097 66.6267L181.155 66.6741C181.045 66.6867 180.933 66.6867 180.823 66.6741C180.93 66.6445 181.039 66.6268 181.15 66.6215L182.087 66.5214C182.497 66.4741 182.997 66.432 183.582 66.4056C184.166 66.3793 184.829 66.3214 185.561 66.3161C187.03 66.2688 188.782 66.2898 190.725 66.374C192.667 66.4583 194.794 66.653 197.042 66.9004C201.49 67.4269 205.464 68.1691 208.37 68.7271C209.807 69.0061 211.002 69.2535 211.776 69.4114L212.702 69.6167C212.806 69.6356 212.907 69.6674 213.002 69.7114Z" fill="#D54539"/>
<path d="M199.389 78.3128C199.149 78.3349 198.908 78.3349 198.668 78.3128C198.199 78.2865 197.531 78.2286 196.699 78.1444C195.046 77.9707 192.762 77.6706 190.261 77.2126C187.761 76.7547 185.524 76.2335 183.907 75.8124C183.102 75.5966 182.455 75.4176 182.012 75.286C181.778 75.228 181.549 75.1487 181.328 75.0491C181.569 75.0657 181.808 75.1098 182.039 75.1807L183.955 75.6282C185.576 76.0019 187.819 76.4915 190.314 76.9494C192.809 77.4074 195.078 77.7338 196.725 77.9549L198.678 78.2181C198.918 78.2244 199.156 78.2561 199.389 78.3128Z" fill="#D54539"/>
<path d="M210.838 78.4919C209.058 78.6466 207.272 78.7099 205.485 78.6814C203.702 78.7417 201.917 78.7118 200.137 78.5919C201.915 78.4337 203.7 78.3704 205.485 78.4024C207.27 78.3359 209.057 78.3658 210.838 78.4919Z" fill="#D54539"/>
<path d="M195.799 86.051C195.603 86.0689 195.407 86.0601 195.214 86.0247C194.846 85.9931 194.304 85.9247 193.635 85.8299C192.308 85.6404 190.477 85.3035 188.492 84.8561C186.508 84.4086 184.723 83.8664 183.454 83.4506C182.817 83.24 182.307 83.061 181.954 82.9242C181.77 82.8674 181.594 82.7897 181.428 82.6926C181.622 82.7087 181.813 82.7512 181.996 82.8189L183.518 83.2611C184.797 83.6296 186.576 84.1139 188.56 84.5824C190.545 85.0509 192.356 85.3983 193.672 85.6352L195.251 85.9194C195.438 85.9406 195.622 85.9848 195.799 86.051Z" fill="#D54539"/>
<path d="M208.196 86.5984C207.633 86.6548 207.065 86.6548 206.501 86.5984C205.448 86.5615 204.011 86.4563 202.427 86.251C200.842 86.0457 199.416 85.7772 198.395 85.5509C197.837 85.4544 197.29 85.3027 196.763 85.0981C197.326 85.1412 197.886 85.2274 198.437 85.3561C199.463 85.5351 200.884 85.7667 202.464 85.972C204.043 86.1773 205.475 86.3141 206.512 86.4036C207.077 86.4286 207.64 86.4937 208.196 86.5984Z" fill="#D54539"/>
<path d="M205.611 93.4733C205.544 93.5149 205.471 93.5451 205.395 93.5628C205.253 93.6049 205.042 93.6786 204.763 93.7523C203.984 93.9621 203.193 94.1256 202.395 94.2418C199.754 94.6096 197.077 94.6326 194.43 94.3102C191.788 93.991 189.17 93.5005 186.592 92.8416C185.602 92.5994 184.807 92.3889 184.255 92.2362C183.965 92.1754 183.681 92.0873 183.407 91.973C183.702 92.0057 183.994 92.0584 184.281 92.1309L186.639 92.6573C189.219 93.2547 191.828 93.7168 194.456 94.0418C197.079 94.3506 199.729 94.3506 202.352 94.0418C203.358 93.9154 204.169 93.7628 204.727 93.6417C205.017 93.564 205.312 93.5077 205.611 93.4733Z" fill="#D54539"/>
<path d="M217.776 73.7174C216.894 73.8605 216.001 73.9327 215.107 73.9333C214.214 74.0282 213.311 74.007 212.423 73.8701C213.305 73.727 214.198 73.6548 215.092 73.6543C215.986 73.5593 216.888 73.5805 217.776 73.7174Z" fill="#D54539"/>
<path d="M217.065 67.3058C216.092 67.4326 215.103 67.3682 214.154 67.1163C215.128 66.9965 216.115 67.0608 217.065 67.3058Z" fill="#D54539"/>
<path d="M194.777 86.509C194.751 86.4616 195.33 86.1721 196.12 85.5193C196.576 85.1345 196.995 84.708 197.372 84.2454C198.292 83.1029 198.939 81.7651 199.262 80.3343C199.39 79.7493 199.462 79.1536 199.478 78.555C199.504 77.5338 199.367 76.9021 199.42 76.8916C199.486 77.0294 199.528 77.177 199.546 77.3285C199.588 77.5016 199.616 77.6776 199.631 77.8549C199.659 78.0873 199.675 78.321 199.678 78.555C199.69 79.1698 199.636 79.784 199.515 80.3869C199.211 81.8679 198.543 83.2499 197.572 84.4086C197.176 84.8791 196.73 85.3046 196.241 85.6772C196.056 85.8222 195.863 85.9558 195.662 86.0773C195.514 86.1744 195.359 86.2606 195.198 86.3353C195.069 86.4165 194.926 86.4753 194.777 86.509Z" fill="#263238"/>
<g opacity="0.3">
<path d="M199.29 81.3818L197.242 84.4244C195.857 86.1559 193.922 87.3614 191.757 87.8407C192.705 88.1734 193.725 88.2508 194.713 88.0652C195.701 87.8795 196.622 87.4374 197.385 86.7831C198.149 86.1287 198.726 85.2853 199.06 84.3373C199.395 83.3892 199.474 82.37 199.29 81.3818Z" fill="black"/>
</g>
<path d="M205.358 49.6661C207.312 49.8368 209.274 49.4383 211.006 48.5185C208.459 46.9393 206.853 44.1704 206.074 41.2805C205.295 38.3905 204.295 33.4634 204.268 30.4734L199.604 51.1979C202.063 51.7532 204.631 51.5532 206.974 50.6241C206.648 50.6063 206.33 50.5099 206.049 50.3431C205.767 50.1763 205.53 49.944 205.358 49.6661Z" fill="#263238"/>
<path d="M192.051 52.1717C191.037 49.8431 190.649 47.29 190.924 44.7652L181.523 41.2015C181.09 43.7588 180.062 46.1787 178.522 48.2658C177.949 49.0449 177.264 49.9503 177.533 50.8978C177.65 51.2123 177.845 51.4919 178.101 51.7101C178.356 51.9284 178.662 52.0781 178.991 52.1454C179.653 52.2586 180.329 52.2586 180.991 52.1454L179.791 53.4561C183.834 52.6789 187.935 52.2491 192.051 52.1717Z" fill="#263238"/>
<path d="M192.846 21.1982C189.882 20.8929 187.376 22.1931 185.013 24.0039C182.657 25.8671 180.927 28.4053 180.054 31.2788C179.072 34.2889 179.094 37.5366 180.117 40.533C180.64 42.0182 181.459 43.3819 182.524 44.5418C183.589 45.7017 184.878 46.6337 186.313 47.2815C190.25 48.9659 195.088 47.971 198.331 45.1758C201.573 42.3806 203.242 37.9799 203.126 33.6897C203.089 30.714 202.115 27.8256 200.342 25.4358C199.447 24.2576 198.321 23.2758 197.031 22.5514C195.742 21.8269 194.317 21.3753 192.846 21.2245" fill="#263238"/>
<path d="M185.176 31.7157C185.529 30.5682 185.281 29.3259 185.371 28.1257C185.576 25.4937 187.55 23.2459 189.919 22.0668C192.13 20.9666 194.914 21.014 197.704 21.6983C199.641 22.1478 201.409 23.1414 202.8 24.5619C203.69 25.5284 204.336 26.6944 204.684 27.962C205.031 29.2296 205.069 30.5619 204.795 31.8473L191.272 30.7945C190.146 31.9799 188.834 32.9722 187.387 33.7319C186.962 33.955 186.487 34.0639 186.008 34.0477C185.761 34.0347 185.524 33.9494 185.325 33.8024C185.127 33.6554 184.976 33.4533 184.892 33.2212C184.734 32.737 185.002 32.2158 185.176 31.7157Z" fill="#263238"/>
<path d="M198.22 25.3779L186.687 28.6205C186.144 28.6924 185.647 28.9653 185.295 29.3853C184.943 29.8053 184.762 30.342 184.786 30.8893L186.587 56.1935C186.71 57.9208 187.398 59.5596 188.545 60.8574L189.756 62.2208C192.514 65.3371 197.652 64.6686 199.347 60.8732C199.449 60.6573 199.523 60.429 199.568 60.1941C199.606 60.003 199.63 59.8096 199.641 59.6151C199.761 58.3343 199.745 57.0445 199.594 55.7671C199.562 53.5088 199.536 52.5824 199.536 52.6087C199.536 52.635 204.274 51.6875 205.105 45.4443C205.516 42.3333 205.227 37.2693 204.853 33.1265C204.521 29.3996 201.926 24.8831 198.22 25.3779Z" fill="#FFBE9D"/>
<path d="M202.637 37.1061C202.643 37.3145 202.568 37.5171 202.428 37.6712C202.287 37.8253 202.093 37.919 201.885 37.9326C201.784 37.9434 201.682 37.934 201.585 37.9047C201.487 37.8754 201.397 37.8269 201.319 37.7621C201.241 37.6974 201.177 37.6176 201.13 37.5275C201.084 37.4374 201.055 37.3389 201.048 37.2377C201.039 37.0303 201.112 36.8278 201.25 36.6733C201.389 36.5189 201.583 36.4248 201.79 36.4113C201.891 36.3996 201.994 36.4085 202.092 36.4374C202.19 36.4663 202.282 36.5145 202.361 36.5793C202.44 36.6441 202.505 36.7242 202.552 36.8147C202.6 36.9051 202.629 37.0043 202.637 37.1061Z" fill="#263238"/>
<path d="M203.827 35.7901C203.727 35.8954 203.111 35.4638 202.248 35.4901C201.384 35.5164 200.774 35.9638 200.668 35.8586C200.563 35.7533 200.716 35.6217 200.984 35.4164C201.348 35.1497 201.786 35.0026 202.237 34.9953C202.685 34.9811 203.126 35.1102 203.495 35.3637C203.779 35.5585 203.874 35.7427 203.827 35.7901Z" fill="#263238"/>
<path d="M194.509 37.5325C194.516 37.7404 194.442 37.9429 194.303 38.0972C194.163 38.2515 193.969 38.3454 193.762 38.3589C193.661 38.3698 193.558 38.3604 193.461 38.3312C193.363 38.3019 193.273 38.2535 193.194 38.1888C193.116 38.1241 193.051 38.0443 193.004 37.9542C192.957 37.8641 192.928 37.7654 192.919 37.6641C192.912 37.4562 192.986 37.2536 193.126 37.0993C193.265 36.9451 193.459 36.8512 193.667 36.8376C193.768 36.8268 193.87 36.8362 193.968 36.8654C194.065 36.8946 194.156 36.943 194.234 37.0078C194.313 37.0725 194.378 37.1523 194.425 37.2424C194.472 37.3325 194.501 37.4311 194.509 37.5325Z" fill="#263238"/>
<path d="M195.389 36.1744C195.294 36.2797 194.679 35.8533 193.81 35.8743C192.941 35.8954 192.336 36.3481 192.231 36.2428C192.125 36.1375 192.278 36.0112 192.552 35.8006C192.916 35.5339 193.354 35.3868 193.805 35.3795C194.251 35.3665 194.69 35.4955 195.058 35.748C195.342 35.9428 195.437 36.127 195.389 36.1744Z" fill="#263238"/>
<path d="M198.674 42.4596C199.123 42.3049 199.59 42.2076 200.063 42.1701C200.284 42.1701 200.49 42.0911 200.521 41.9437C200.533 41.7164 200.476 41.4909 200.358 41.2963L199.663 39.6434C198.7 37.2903 198 35.3532 198.084 35.3163C198.168 35.2795 199.037 37.1535 200 39.5275L200.663 41.191C200.809 41.4517 200.858 41.7558 200.8 42.049C200.772 42.1285 200.726 42.2001 200.664 42.2578C200.603 42.3155 200.529 42.3576 200.448 42.3806C200.328 42.4159 200.204 42.4353 200.079 42.4386C199.613 42.505 199.141 42.512 198.674 42.4596Z" fill="#263238"/>
<path d="M199.536 52.6034C196.61 52.7245 193.707 52.0321 191.15 50.6031C191.15 50.6031 193.356 54.8512 199.573 54.1037L199.536 52.6034Z" fill="#DDC58E"/>
<path d="M198.368 44.5389C198.198 44.3396 197.981 44.1867 197.736 44.0946C197.491 44.0025 197.226 43.9743 196.967 44.0125C196.78 44.0303 196.597 44.0861 196.432 44.1766C196.266 44.2671 196.121 44.3904 196.004 44.5389C195.888 44.6881 195.822 44.8698 195.814 45.0586C195.807 45.2474 195.858 45.4338 195.962 45.5917C196.105 45.74 196.289 45.843 196.49 45.8879C196.691 45.9329 196.901 45.9177 197.094 45.8444C197.497 45.691 197.866 45.4583 198.178 45.1601C198.271 45.0874 198.35 45.0003 198.415 44.9022C198.446 44.8544 198.463 44.7986 198.463 44.7416C198.463 44.6846 198.446 44.6289 198.415 44.5811" fill="#DDC58E"/>
<path d="M196.168 43.1176C196.305 43.1176 196.331 44.0388 197.147 44.6968C197.963 45.3548 198.952 45.2232 198.963 45.339C198.973 45.4548 198.747 45.5232 198.326 45.5443C197.78 45.5676 197.243 45.398 196.81 45.0652C196.396 44.7438 196.124 44.2735 196.052 43.7545C196.004 43.3492 196.099 43.1176 196.168 43.1176Z" fill="#263238"/>
<path d="M195.468 33.5739C195.389 33.8108 194.526 33.7213 193.526 33.874C192.525 34.0267 191.715 34.3162 191.573 34.1109C191.509 34.0109 191.646 33.7898 191.967 33.5529C192.399 33.2685 192.891 33.0883 193.405 33.0265C193.919 32.9517 194.444 33.0005 194.936 33.1686C195.31 33.2844 195.5 33.4634 195.468 33.5739Z" fill="#263238"/>
<path d="M203.474 32.0421C203.332 32.2421 202.732 32.0421 202.021 32.0421C201.311 32.0421 200.71 32.2106 200.568 32.0105C200.505 31.9105 200.595 31.7157 200.853 31.521C201.199 31.289 201.607 31.1652 202.024 31.1652C202.441 31.1652 202.848 31.289 203.195 31.521C203.453 31.7473 203.542 31.9474 203.474 32.0421Z" fill="#263238"/>
<path d="M182.896 30.0628C183.875 26.4201 188.85 21.2245 192.619 21.314L198.783 24.6409C198.634 25.6731 198.209 26.6459 197.553 27.4567C196.897 28.2674 196.035 28.8859 195.056 29.2469C194.003 29.6206 192.74 29.7733 192.15 30.705C191.561 31.6368 191.987 33.0054 191.429 33.995C190.661 35.3637 188.387 35.4058 187.829 36.8745C187.581 37.5114 187.76 38.2589 187.502 38.8958C187.165 39.7433 185.107 40.8962 184.223 40.6593C183.339 40.4224 183.27 38.938 182.949 38.1747C182.55 37.3135 182.461 36.341 182.696 35.4216C182.996 33.6423 182.428 31.7894 182.896 30.0628Z" fill="#263238"/>
<path d="M186.83 41.2647C186.83 40.8015 186.251 39.7223 185.777 39.6855C184.55 39.5276 182.355 39.6855 182.413 42.786C182.503 47.0288 186.74 46.0707 186.746 45.9444C186.751 45.8181 186.872 42.865 186.83 41.2647Z" fill="#FFBE9D"/>
<path d="M185.429 44.3441C185.429 44.3441 185.355 44.3968 185.234 44.46C185.057 44.5311 184.859 44.5311 184.681 44.46C184.229 44.3073 183.839 43.6019 183.802 42.8386C183.783 42.4783 183.846 42.1183 183.987 41.7858C184.021 41.6539 184.087 41.5323 184.178 41.4315C184.27 41.3306 184.385 41.2535 184.513 41.2068C184.598 41.1817 184.689 41.1874 184.77 41.2231C184.851 41.2588 184.916 41.322 184.955 41.4016C185.013 41.5174 184.992 41.6016 185.013 41.6121C185.034 41.6226 185.103 41.5384 185.066 41.3647C185.038 41.2602 184.977 41.1677 184.892 41.1015C184.834 41.0574 184.768 41.0257 184.697 41.0085C184.627 40.9913 184.553 40.9889 184.481 41.0015C184.309 41.0409 184.148 41.1233 184.016 41.2411C183.883 41.3589 183.783 41.5082 183.723 41.6753C183.55 42.0449 183.47 42.4518 183.492 42.8597C183.534 43.7177 183.987 44.5073 184.603 44.6705C184.717 44.7022 184.837 44.7073 184.954 44.6854C185.071 44.6635 185.181 44.6152 185.276 44.5442C185.424 44.4494 185.445 44.3547 185.429 44.3441Z" fill="#DDC58E"/>
<path d="M181.918 29.01C181.844 27.6835 180.139 26.9044 178.828 26.7096C177.496 26.5688 176.158 26.9168 175.064 27.6888C174.411 28.1046 173.759 28.6784 173.658 29.4469C173.558 30.2155 174.348 31.0735 175.053 30.7524C174.711 30.8937 174.404 31.1089 174.154 31.3826C173.904 31.6564 173.718 31.982 173.608 32.3361C173.499 32.6902 173.469 33.0642 173.521 33.4311C173.573 33.7981 173.705 34.1491 173.908 34.459C174.112 34.7689 174.381 35.0301 174.697 35.2238C175.013 35.4176 175.368 35.5391 175.736 35.5798C176.105 35.6204 176.477 35.5792 176.828 35.4591C177.179 35.3389 177.498 35.1428 177.764 34.8847C177.476 36.1356 176.768 37.2501 175.759 38.0431C176.863 38.1244 177.97 37.914 178.967 37.4329C179.965 36.9518 180.818 36.2168 181.442 35.3018C182.066 34.3868 182.438 33.3239 182.522 32.2196C182.605 31.1153 182.397 30.0084 181.918 29.01Z" fill="#263238"/>
<path d="M174.532 47.1814C174.532 46.9814 175.085 46.8866 175.837 46.655C176.799 46.3882 177.701 45.9417 178.496 45.339C179.275 44.7139 179.927 43.9456 180.417 43.0755C180.822 42.3964 181.038 41.9069 181.238 41.9385C181.438 41.97 181.554 42.5333 181.344 43.4387C181.03 44.631 180.335 45.688 179.365 46.4483C178.394 47.2087 177.202 47.6307 175.969 47.6499C175.037 47.6341 174.511 47.3657 174.532 47.1814Z" fill="#263238"/>
<path d="M179.423 35.9322C179.271 35.5297 179.189 35.1042 179.181 34.6741C179.032 32.5842 179.588 30.5048 180.76 28.7678C180.981 28.3977 181.264 28.0684 181.597 27.794C180.785 28.9746 180.159 30.2722 179.739 31.642C179.416 33.0478 179.31 34.4944 179.423 35.9322Z" fill="#D54539"/>
<path d="M197.473 23.4301C197.973 25.1252 200.736 27.1623 201.973 28.431C204.332 30.8419 204.821 31.6631 205.174 37.3798C206.079 35.3374 206.753 33.3476 206.516 31.1261C206.319 28.8771 205.308 26.7771 203.674 25.2199C202.85 24.4599 201.861 23.902 200.785 23.5904C199.709 23.2788 198.575 23.2222 197.473 23.4249" fill="#263238"/>
<path d="M225.13 72.9278C225.13 72.9278 222.298 84.6982 221.134 89.7727C219.918 95.1788 217.212 107.444 210.032 105.654C204.568 104.307 205.784 97.2318 205.784 97.2318L210.443 81.0555L214.759 81.545L218.723 71.7855L222.998 67.2848L225.13 72.9278Z" fill="#FFBE9D"/>
<path d="M207.69 97.6529C207.45 96.7967 207.401 95.898 207.548 95.0209C207.728 94.0814 208.07 93.1802 208.558 92.3573C209.187 91.354 209.89 90.4002 210.664 89.5042C211.441 88.5944 212.145 87.6246 212.77 86.6037C213.266 85.7632 213.693 84.8828 214.044 83.9717C214.278 83.3578 214.475 82.7302 214.633 82.0925C214.704 81.8614 214.748 81.623 214.765 81.3818C214.666 81.6014 214.585 81.8285 214.523 82.0609C214.38 82.4978 214.17 83.1137 213.849 83.8928C213.476 84.7819 213.038 85.6423 212.538 86.4669C211.905 87.4667 211.201 88.4202 210.432 89.32C209.651 90.2281 208.946 91.2001 208.327 92.2257C207.832 93.0789 207.499 94.0156 207.342 94.9893C207.241 95.6483 207.27 96.3206 207.427 96.9686C207.47 97.1484 207.528 97.3245 207.6 97.495C207.648 97.6003 207.679 97.6582 207.69 97.6529Z" fill="#DDC58E"/>
<path d="M218.392 72.7014C218.392 72.4908 218.497 69.064 218.565 68.1691C218.62 67.6027 218.779 67.0513 219.034 66.5425C219.132 66.3562 219.271 66.1948 219.441 66.0706C219.611 65.9465 219.807 65.8629 220.015 65.8264C220.222 65.7898 220.435 65.8011 220.637 65.8596C220.839 65.918 221.026 66.022 221.182 66.1635L221.26 66.2319C221.667 65.4365 222.244 64.7408 222.95 64.1947C223.956 63.5367 224.782 63.0893 225.645 63.6052C225.881 63.7219 226.082 63.8986 226.228 64.1176C226.374 64.3366 226.46 64.5901 226.477 64.8527C226.477 64.8527 227.756 64.679 228.309 65.1949C228.862 65.7108 228.309 67.2689 228.309 67.2689C228.309 67.2689 229.446 66.9215 229.725 67.7532C229.864 68.3284 229.778 68.9351 229.483 69.4482C229.483 69.4482 230.378 69.722 230.483 70.38C230.588 71.038 229.588 71.7591 229.588 71.7591L226.467 74.2437C226.05 75.5412 225.201 76.6563 224.061 77.4022C221.892 78.2339 218.392 72.7014 218.392 72.7014Z" fill="#FFBE9D"/>
<path d="M220.772 68.9693C220.803 68.9693 220.798 69.1009 220.703 69.2588C220.586 69.4688 220.4 69.6323 220.177 69.722C219.944 69.7999 219.693 69.7999 219.461 69.722C219.287 69.6641 219.203 69.5799 219.219 69.543C219.234 69.5062 219.645 69.6009 220.077 69.4325C220.508 69.264 220.698 68.9324 220.772 68.9693Z" fill="#DDC58E"/>
<path d="M223.246 65.9056C223.198 65.9687 222.898 65.7582 222.846 65.3476C222.793 64.937 223.019 64.658 223.083 64.7054C223.146 64.7527 223.083 65.0054 223.125 65.3107C223.167 65.616 223.304 65.8582 223.246 65.9056Z" fill="#DDC58E"/>
<path d="M228.463 67.2374C228.463 67.2374 228.242 67.5585 227.773 67.9638C227.154 68.4755 226.506 68.9501 225.831 69.3851C225.467 69.6719 225.042 69.8701 224.588 69.9641C224.394 69.9968 224.194 69.9776 224.009 69.9082C223.824 69.8389 223.661 69.722 223.536 69.5693C223.456 69.4596 223.406 69.331 223.391 69.1962C223.377 69.0615 223.397 68.9251 223.451 68.8008C223.536 68.6323 223.641 68.5902 223.651 68.606C223.662 68.6218 223.593 68.6902 223.551 68.8429C223.527 68.9488 223.527 69.0588 223.552 69.1646C223.577 69.2704 223.625 69.3692 223.693 69.4535C223.807 69.5664 223.947 69.6488 224.1 69.693C224.254 69.7371 224.417 69.7417 224.573 69.7062C224.981 69.6038 225.364 69.4153 225.694 69.1535C226.478 68.6271 227.178 68.1691 227.668 67.8059C227.914 67.5911 228.18 67.4007 228.463 67.2374Z" fill="#DDC58E"/>
<path d="M229.462 69.4325C228.515 70.0204 227.52 70.5275 226.488 70.9485C226.092 71.1696 225.651 71.2991 225.199 71.3275C224.998 71.3376 224.799 71.2879 224.627 71.1849C224.454 71.0818 224.316 70.93 224.23 70.7485C224.199 70.6753 224.183 70.5965 224.183 70.5169C224.183 70.4373 224.199 70.3585 224.23 70.2853C224.276 70.1775 224.355 70.0871 224.456 70.0273C224.63 69.9326 224.741 69.9852 224.735 69.9957C224.73 70.0063 224.635 69.9957 224.52 70.1168C224.448 70.182 224.4 70.2685 224.382 70.3634C224.364 70.4583 224.377 70.5564 224.42 70.6432C224.499 70.7774 224.615 70.886 224.754 70.956C224.893 71.026 225.049 71.0545 225.204 71.038C225.617 70.9952 226.016 70.868 226.378 70.6643C227.371 70.1707 228.403 69.7587 229.462 69.4325Z" fill="#DDC58E"/>
<path d="M227.946 72.2382C227.946 72.2698 227.777 72.4014 227.419 72.4856C227.216 72.5333 227.007 72.5545 226.798 72.5488C226.53 72.5541 226.264 72.4945 226.024 72.375C225.948 72.3291 225.887 72.2628 225.847 72.1837C225.807 72.1046 225.79 72.0159 225.798 71.9276C225.816 71.786 225.874 71.6526 225.966 71.5433C226.097 71.3804 226.248 71.2338 226.414 71.1064C226.698 70.8959 226.908 70.8274 226.94 70.859C226.972 70.8906 226.793 71.0222 226.561 71.2591C226.426 71.3937 226.302 71.5399 226.193 71.696C226.072 71.8697 226.029 72.0487 226.193 72.1382C226.393 72.2301 226.609 72.282 226.83 72.2908C227.02 72.3093 227.212 72.3093 227.403 72.2908C227.73 72.2592 227.93 72.2013 227.946 72.2382Z" fill="#DDC58E"/>
<path d="M224.983 72.7593C225 72.2814 224.882 71.8084 224.642 71.3943C224.403 70.9803 224.052 70.642 223.63 70.418C223.207 70.1941 222.73 70.0935 222.253 70.1279C221.776 70.1623 221.319 70.3303 220.933 70.6126C220.547 70.8948 220.248 71.28 220.07 71.7241C219.893 72.1682 219.844 72.6533 219.93 73.1238C220.015 73.5943 220.231 74.0313 220.553 74.3848C220.875 74.7383 221.29 74.9941 221.751 75.1229L221.724 75.8335L222.419 76.3599L221.687 76.7705L221.656 77.6601L222.351 78.1865L221.619 78.5971L221.593 79.3604L222.014 79.6762L221.572 79.9236V80.3711L222.098 80.9712L223.151 80.3448L223.351 75.0807C223.822 74.8986 224.228 74.5808 224.519 74.1676C224.809 73.7544 224.971 73.2643 224.983 72.7593ZM222.503 70.8011C222.648 70.8064 222.788 70.8544 222.905 70.9391C223.022 71.0238 223.112 71.1414 223.162 71.277C223.213 71.4126 223.222 71.5601 223.189 71.7009C223.155 71.8416 223.081 71.9694 222.975 72.0679C222.869 72.1665 222.736 72.2314 222.593 72.2546C222.451 72.2777 222.304 72.258 222.173 72.1979C222.041 72.1378 221.93 72.04 221.854 71.917C221.778 71.7939 221.74 71.651 221.745 71.5065C221.749 71.4104 221.771 71.3159 221.811 71.2284C221.851 71.1409 221.908 71.0622 221.978 70.9966C222.048 70.9311 222.131 70.8801 222.221 70.8466C222.311 70.813 222.407 70.7976 222.503 70.8011Z" fill="#263238"/>
<path d="M222.503 70.8011C222.503 70.8011 222.44 70.8011 222.329 70.8327C222.171 70.8703 222.031 70.9591 221.929 71.0854C221.85 71.1884 221.802 71.311 221.788 71.4399C221.775 71.5688 221.797 71.6989 221.852 71.816C221.908 71.9331 221.995 72.0326 222.103 72.1036C222.212 72.1745 222.338 72.2143 222.467 72.2185C222.597 72.2226 222.725 72.191 222.837 72.1271C222.95 72.0632 223.043 71.9695 223.106 71.8562C223.169 71.743 223.2 71.6146 223.194 71.4851C223.189 71.3556 223.148 71.23 223.077 71.1222C222.985 70.9886 222.852 70.8888 222.698 70.838C222.592 70.8064 222.524 70.8064 222.524 70.7958H222.55C222.596 70.7899 222.642 70.7899 222.687 70.7958C222.851 70.8389 222.994 70.9375 223.092 71.0748C223.167 71.1777 223.214 71.2978 223.23 71.4239C223.246 71.55 223.229 71.678 223.182 71.796C223.126 71.9361 223.029 72.0556 222.903 72.1382C222.77 72.2294 222.611 72.2755 222.45 72.2698C222.288 72.2638 222.131 72.2067 222.003 72.1066C221.885 72.0106 221.797 71.8827 221.75 71.7381C221.714 71.617 221.708 71.489 221.733 71.3651C221.758 71.2412 221.812 71.1253 221.892 71.0275C222.004 70.8985 222.156 70.8112 222.324 70.7801C222.368 70.7758 222.412 70.7758 222.455 70.7801L222.503 70.8011Z" fill="#263238"/>
<path d="M224.983 72.7593V72.812V72.9646C224.962 73.1583 224.92 73.349 224.856 73.5331C224.751 73.8308 224.59 74.1059 224.382 74.3438C224.1 74.6722 223.737 74.9224 223.33 75.0702C223.277 76.4336 223.214 78.2286 223.14 80.3342L222.087 80.9659L221.561 80.3658C221.561 80.2237 221.561 80.071 221.561 79.9184L222.003 79.671V79.7236L221.577 79.4025C221.577 79.1656 221.577 78.8761 221.603 78.6392L222.335 78.2339V78.2865L221.64 77.7601V77.439C221.64 77.2179 221.64 77.0021 221.666 76.7863L222.398 76.3757V76.4283L221.703 75.9019C221.703 75.6598 221.703 75.4229 221.729 75.1913V75.2229C221.338 75.1105 220.977 74.9087 220.677 74.6333C220.53 74.5007 220.401 74.3504 220.292 74.1859C220.03 73.8026 219.877 73.3549 219.85 72.8911C219.823 72.4273 219.923 71.9649 220.14 71.5539C220.333 71.1786 220.616 70.8571 220.964 70.6178C221.312 70.3786 221.713 70.2291 222.133 70.1828C222.552 70.1364 222.977 70.1945 223.368 70.352C223.76 70.5095 224.107 70.7614 224.377 71.0854C224.601 71.348 224.768 71.6546 224.867 71.9855L224.898 72.0803V72.175C224.898 72.2382 224.925 72.2908 224.93 72.3487C224.935 72.4066 224.956 72.5435 224.956 72.6172V72.7014C224.959 72.7189 224.959 72.7366 224.956 72.7541V72.533C224.956 72.4593 224.956 72.3698 224.925 72.2645C224.917 72.2075 224.905 72.1511 224.888 72.0961V72.0013L224.856 71.9065C224.757 71.5806 224.59 71.2792 224.367 71.0222C224.07 70.6756 223.687 70.414 223.256 70.2642C222.801 70.1115 222.311 70.0917 221.845 70.2071C221.379 70.3225 220.956 70.5683 220.624 70.9158C220.293 71.2632 220.067 71.6979 219.974 72.1689C219.881 72.6399 219.924 73.1277 220.098 73.5752C220.163 73.7609 220.252 73.9377 220.361 74.1016C220.468 74.2626 220.596 74.4094 220.74 74.5386C221.032 74.8085 221.383 75.0052 221.766 75.1123H221.793C221.793 75.3492 221.793 75.5861 221.766 75.823L222.466 76.3494H222.503L222.461 76.3757L221.729 76.781V76.7547C221.729 76.9705 221.729 77.1916 221.729 77.4074V77.6443L222.424 78.1707L222.461 78.2023H222.419L221.687 78.6129C221.687 78.8761 221.687 79.1393 221.661 79.3762L222.087 79.692L222.124 79.7236H222.082L221.64 79.9763C221.64 80.1289 221.64 80.2816 221.64 80.4185L222.166 81.0186H222.129L223.182 80.3921V80.4185C223.267 78.3129 223.335 76.502 223.388 75.1544C223.781 75.0075 224.132 74.7651 224.409 74.4491C224.613 74.2126 224.773 73.9416 224.883 73.6489C224.948 73.4648 224.994 73.2743 225.019 73.0804V72.933C225.022 72.8729 225.009 72.8131 224.983 72.7593Z" fill="#263238"/>
<path d="M224.719 72.6172C224.738 72.1378 224.621 71.6629 224.381 71.2471C224.142 70.8312 223.79 70.4912 223.367 70.266C222.943 70.0407 222.465 69.9394 221.986 69.9736C221.508 70.0078 221.049 70.1761 220.661 70.4593C220.274 70.7425 219.974 71.1291 219.797 71.5747C219.619 72.0204 219.571 72.5071 219.657 72.979C219.743 73.451 219.961 73.8891 220.284 74.2431C220.608 74.5971 221.025 74.8528 221.487 74.9807L221.461 75.6861L222.156 76.2125L221.424 76.6178L221.393 77.5075L222.087 78.0339L221.356 78.4392L221.324 79.2025L221.751 79.5236L221.303 79.771V80.2132L221.83 80.8133L222.882 80.1869L223.082 74.9228C223.552 74.7432 223.959 74.4283 224.25 74.018C224.542 73.6076 224.705 73.1202 224.719 72.6172ZM222.24 70.659C222.336 70.6624 222.431 70.6847 222.518 70.7246C222.606 70.7646 222.684 70.8214 222.75 70.8918C222.815 70.9622 222.866 71.0448 222.9 71.1349C222.934 71.225 222.949 71.3209 222.946 71.417C222.942 71.5131 222.919 71.6075 222.879 71.6948C222.838 71.7821 222.781 71.8606 222.711 71.9259C222.64 71.9912 222.557 72.0419 222.467 72.0751C222.377 72.1084 222.281 72.1235 222.185 72.1197C222.089 72.1159 221.994 72.0932 221.907 72.053C221.82 72.0127 221.741 71.9556 221.676 71.885C221.611 71.8143 221.56 71.7315 221.527 71.6413C221.493 71.5511 221.478 71.4552 221.482 71.3591C221.49 71.1659 221.575 70.9838 221.717 70.8527C221.859 70.7215 222.047 70.6518 222.24 70.659Z" fill="#D54539"/>
<path d="M222.24 70.659C222.18 70.656 222.12 70.656 222.061 70.659C221.905 70.6969 221.766 70.7858 221.666 70.9117C221.592 71.0031 221.541 71.1118 221.52 71.2278C221.499 71.3437 221.508 71.4631 221.545 71.5749C221.59 71.7121 221.675 71.8323 221.79 71.9198C221.904 72.0072 222.043 72.0577 222.187 72.0645C222.33 72.0667 222.47 72.0263 222.59 71.9485C222.71 71.8707 222.805 71.759 222.861 71.6276C222.899 71.5361 222.918 71.4376 222.915 71.3385C222.913 71.2394 222.89 71.1418 222.848 71.0521C222.806 70.9623 222.746 70.8824 222.671 70.8174C222.596 70.7525 222.508 70.7039 222.413 70.6748C222.356 70.6578 222.298 70.6438 222.24 70.6327H222.287C222.331 70.6272 222.375 70.6272 222.419 70.6327C222.584 70.6737 222.73 70.7727 222.829 70.9117C222.943 71.0765 222.987 71.2799 222.952 71.4772C222.916 71.6745 222.804 71.8497 222.64 71.9645C222.505 72.0564 222.345 72.1026 222.182 72.0961C222.02 72.0875 221.866 72.0286 221.74 71.9276C221.636 71.8574 221.552 71.7612 221.497 71.6486C221.466 71.548 221.456 71.4419 221.468 71.3371C221.48 71.2323 221.514 71.1313 221.567 71.0404C221.621 70.9496 221.693 70.8711 221.779 70.8099C221.865 70.7487 221.963 70.7063 222.066 70.6853C222.111 70.6777 222.158 70.6777 222.203 70.6853L222.24 70.659Z" fill="#263238"/>
<path d="M224.72 72.6172V72.6698V72.8172C224.699 73.0125 224.657 73.2049 224.594 73.391C224.484 73.6866 224.324 73.9609 224.12 74.2016C223.834 74.5267 223.472 74.7762 223.067 74.9281C223.02 76.2914 222.957 78.0865 222.883 80.1921L221.83 80.8185L221.304 80.2184C221.304 80.0815 221.304 79.9289 221.304 79.7762L221.746 79.5236V79.5762L221.325 79.2604C221.325 79.0182 221.325 78.7603 221.351 78.4971L222.083 78.0865V78.1391L221.388 77.6127V77.3758C221.388 77.16 221.388 76.9389 221.414 76.7231L222.146 76.3178V76.3704L221.451 75.844C221.451 75.6071 221.451 75.3702 221.477 75.1334V75.1649C221.084 75.0571 220.722 74.8547 220.425 74.5754C220.277 74.4427 220.146 74.2925 220.035 74.1279C219.925 73.9637 219.835 73.787 219.767 73.6015C219.641 73.2769 219.582 72.9302 219.594 72.5823C219.606 72.2345 219.688 71.8926 219.836 71.5773C219.984 71.2621 220.193 70.9799 220.453 70.7479C220.712 70.5159 221.016 70.3388 221.346 70.2273C221.886 70.0475 222.469 70.0475 223.009 70.2273C223.43 70.3406 223.816 70.5578 224.13 70.859C224.353 71.1229 224.519 71.4291 224.62 71.7591L224.652 71.8591V71.9539C224.652 72.0118 224.678 72.0697 224.683 72.1223C224.688 72.175 224.71 72.3224 224.71 72.3908V72.6172C224.711 72.5979 224.711 72.5785 224.71 72.5592V72.3961C224.71 72.3224 224.709 72.2329 224.683 72.1223C224.657 72.0118 224.657 72.0171 224.646 71.9539V71.8644L224.615 71.7644C224.511 71.4392 224.343 71.1384 224.12 70.88C223.826 70.5322 223.441 70.2718 223.009 70.1273C222.48 69.948 221.907 69.948 221.377 70.1273C220.766 70.3426 220.259 70.7806 219.956 71.3538C219.791 71.6726 219.696 72.0227 219.676 72.381C219.656 72.7394 219.712 73.098 219.84 73.4331C219.911 73.6177 220.001 73.7942 220.109 73.9595C220.216 74.1206 220.343 74.2674 220.488 74.3964C220.78 74.6656 221.132 74.8621 221.514 74.9702H221.498V74.9965C221.498 75.2281 221.498 75.465 221.498 75.7071V75.6808C221.73 75.8493 221.962 76.0282 222.193 76.2072L222.235 76.2388H222.193L221.462 76.6494V76.6231C221.462 76.8389 221.462 77.0547 221.435 77.2758C221.435 77.3548 221.435 77.4337 221.435 77.5074L222.13 78.0338H222.172L222.13 78.0602L221.398 78.4655C221.398 78.7287 221.398 78.9919 221.367 79.2288L221.793 79.5499L221.83 79.5762H221.788L221.341 79.8236C221.341 79.9763 221.341 80.1289 221.341 80.2658L221.867 80.8711H221.83L222.883 80.2447V80.271C222.962 78.1654 223.036 76.3546 223.088 75.007C223.482 74.8559 223.834 74.6122 224.115 74.2964C224.317 74.0587 224.477 73.7881 224.588 73.4962C224.655 73.3141 224.701 73.1252 224.725 72.933V72.7803C224.71 72.756 224.702 72.7281 224.701 72.6995C224.7 72.6708 224.706 72.6424 224.72 72.6172Z" fill="#263238"/>
<path d="M224.414 72.6382C224.407 72.4614 224.386 72.2854 224.351 72.1118C224.308 71.9011 224.231 71.6986 224.125 71.5117C223.993 71.2625 223.814 71.0409 223.598 70.859C223.31 70.6197 222.965 70.4582 222.596 70.3901C222.228 70.3219 221.848 70.3492 221.493 70.4695C221.288 70.5322 221.095 70.6263 220.919 70.7484C220.828 70.8107 220.742 70.8793 220.661 70.9537C220.58 71.0311 220.505 71.1137 220.435 71.2011C220.138 71.5711 219.968 72.0267 219.95 72.5006C219.932 72.9746 220.067 73.4417 220.335 73.8332C220.4 73.9261 220.471 74.0158 220.545 74.1016C220.621 74.1807 220.702 74.2546 220.787 74.3227C220.945 74.4564 221.123 74.5647 221.314 74.6438C221.682 74.7932 222.084 74.8423 222.477 74.786C222.818 74.7392 223.143 74.611 223.425 74.4122C223.659 74.2472 223.861 74.0402 224.02 73.8016C224.137 73.6206 224.227 73.4239 224.288 73.2173C224.337 73.0448 224.372 72.8688 224.393 72.6909V72.8383C224.393 72.8856 224.393 72.9435 224.393 73.012C224.393 73.0804 224.367 73.1541 224.341 73.2436C224.283 73.4549 224.193 73.6557 224.072 73.8384C223.916 74.0832 223.714 74.2959 223.477 74.4648C223.19 74.6696 222.858 74.8031 222.509 74.8544C222.107 74.9148 221.697 74.8676 221.319 74.7175C221.115 74.637 220.925 74.5251 220.756 74.3859C220.668 74.3147 220.584 74.2392 220.503 74.1595C220.426 74.0742 220.355 73.9827 220.293 73.8858C220.018 73.4861 219.88 73.0087 219.898 72.5243C219.916 72.0399 220.089 71.5741 220.393 71.1959C220.464 71.105 220.542 71.0189 220.624 70.9379C220.709 70.8633 220.799 70.7947 220.893 70.7327C221.15 70.554 221.441 70.4316 221.749 70.3735C222.056 70.3155 222.373 70.323 222.677 70.3958C223.022 70.4719 223.344 70.6309 223.614 70.859C223.831 71.0464 224.009 71.2733 224.141 71.5275C224.243 71.7195 224.317 71.9251 224.362 72.1381C224.379 72.2161 224.389 72.2953 224.393 72.375C224.398 72.4328 224.398 72.4909 224.393 72.5487V72.6909L224.414 72.6382Z" fill="#263238"/>
<path d="M223.077 71.4275C223.071 71.3586 223.06 71.29 223.046 71.2222C223.006 71.036 222.902 70.8699 222.751 70.7537C222.649 70.6719 222.531 70.6143 222.403 70.5853C222.258 70.5549 222.107 70.564 221.967 70.6116C221.809 70.6587 221.671 70.7545 221.572 70.8853C221.464 71.022 221.403 71.1901 221.398 71.3644C221.391 71.5361 221.438 71.7056 221.533 71.8491C221.627 71.9927 221.764 72.103 221.924 72.1645C222.054 72.216 222.194 72.2353 222.332 72.2206C222.471 72.2059 222.604 72.1578 222.719 72.0803C222.875 71.9719 222.99 71.8143 223.046 71.6328C223.066 71.5656 223.082 71.497 223.093 71.4275C223.093 71.4275 223.093 71.4275 223.093 71.4854C223.09 71.5388 223.081 71.5917 223.067 71.6434C223.016 71.8341 222.9 72.0015 222.74 72.1171C222.628 72.1973 222.498 72.2496 222.361 72.2698C222.197 72.2957 222.028 72.2743 221.876 72.2081C221.723 72.1419 221.592 72.0337 221.498 71.896C221.391 71.742 221.335 71.5575 221.34 71.3696C221.348 71.178 221.416 70.9936 221.535 70.8432C221.644 70.7056 221.793 70.6046 221.961 70.5537C222.114 70.5091 222.277 70.5091 222.43 70.5537C222.563 70.5852 222.687 70.6464 222.793 70.7327C222.951 70.8669 223.054 71.0542 223.083 71.2591C223.089 71.3115 223.089 71.3646 223.083 71.417C223.077 71.4117 223.077 71.4275 223.077 71.4275Z" fill="#263238"/>
<path d="M222.551 80.3079C222.551 80.3079 222.551 79.1024 222.619 77.6233C222.688 76.1441 222.735 74.9386 222.751 74.9386C222.767 74.9386 222.751 76.1388 222.682 77.6233C222.614 79.1077 222.551 80.3079 222.551 80.3079Z" fill="#263238"/>
<path d="M222.461 70.9117C222.408 70.9377 222.35 70.9513 222.29 70.9513C222.231 70.9513 222.172 70.9377 222.119 70.9117V67.6743L222.461 67.7006V70.9117Z" fill="#E0E0E0"/>
<path d="M222.287 70.9643C222.227 70.9629 222.168 70.9485 222.113 70.9222V67.6638L222.482 67.6901V70.9222C222.421 70.9514 222.354 70.9658 222.287 70.9643ZM222.134 70.9011C222.183 70.9245 222.236 70.9366 222.29 70.9366C222.343 70.9366 222.396 70.9245 222.445 70.9011V67.7111H222.129L222.134 70.9011Z" fill="#263238"/>
<path d="M220.971 66.0845C221.258 66.3295 221.562 66.553 221.882 66.7531C222.041 66.8565 222.175 66.9953 222.271 67.1588C222.368 67.3222 222.426 67.5059 222.44 67.6953C222.412 67.8885 222.336 68.0715 222.218 68.2271C222.1 68.3827 221.945 68.5058 221.766 68.5849C221.523 68.7161 221.255 68.7979 220.98 68.8258C220.705 68.8536 220.427 68.8269 220.162 68.7473C219.897 68.6676 219.65 68.5364 219.436 68.3614C219.222 68.1863 219.044 67.9707 218.913 67.7269" fill="#FFBE9D"/>
<path d="M218.934 67.7269C219.154 67.9609 219.394 68.1757 219.65 68.3691C219.935 68.5506 220.261 68.6591 220.598 68.685C221.007 68.7159 221.417 68.6262 221.777 68.427C221.95 68.3493 222.094 68.2189 222.188 68.0544C222.283 67.8899 222.323 67.6998 222.303 67.5111C222.198 67.1991 221.993 66.9307 221.719 66.7478C221.219 66.4109 220.94 66.1161 220.982 66.0845C221.024 66.053 221.292 66.2793 221.829 66.5846C222.166 66.7716 222.422 67.0748 222.551 67.4374C222.606 67.678 222.566 67.9307 222.44 68.1428C222.311 68.3594 222.13 68.5404 221.914 68.6692C221.504 68.899 221.033 68.9947 220.566 68.9429C220.185 68.9027 219.821 68.7609 219.513 68.5323C219.024 68.1375 218.908 67.7322 218.934 67.7269Z" fill="#DDC58E"/>
<path d="M224.214 64.7422C223.603 65.4525 223.073 66.2294 222.635 67.0584C222.495 67.3124 222.414 67.595 222.398 67.8848C222.392 68.0306 222.424 68.1754 222.492 68.3048C222.559 68.4341 222.659 68.5434 222.782 68.6218C222.895 68.6752 223.018 68.7029 223.143 68.7029C223.268 68.7029 223.391 68.6752 223.504 68.6218C223.726 68.5133 223.928 68.3693 224.104 68.1954C224.827 67.5356 225.483 66.8056 226.062 66.0161C226.213 65.8326 226.33 65.6242 226.409 65.4002C226.451 65.2888 226.469 65.1697 226.462 65.0509C226.455 64.9321 226.422 64.8162 226.367 64.7106" fill="#FFBE9D"/>
<path d="M226.373 64.7054C226.373 64.7054 226.505 64.8107 226.52 65.0949C226.503 65.4854 226.351 65.8577 226.089 66.1477C225.77 66.6044 225.418 67.0372 225.036 67.4427C224.825 67.6743 224.594 67.9112 224.346 68.1428C224.097 68.4176 223.792 68.6364 223.451 68.785C223.255 68.8482 223.043 68.8482 222.846 68.785C222.646 68.7191 222.48 68.5773 222.383 68.3902C222.309 68.2246 222.271 68.0452 222.271 67.8638C222.271 67.6824 222.309 67.503 222.383 67.3374C222.602 66.8181 222.885 66.3282 223.225 65.8793C223.509 65.4544 223.845 65.0671 224.225 64.7264C223.973 65.1662 223.693 65.5899 223.388 65.9951C223.083 66.4406 222.829 66.9192 222.63 67.4216C222.57 67.553 222.54 67.6957 222.54 67.8401C222.54 67.9845 222.57 68.1272 222.63 68.2586C222.702 68.3834 222.818 68.4771 222.955 68.5218C223.092 68.5665 223.241 68.559 223.372 68.5007C223.671 68.3641 223.94 68.169 224.162 67.927C224.409 67.7006 224.641 67.4743 224.852 67.2532C225.278 66.8057 225.636 66.3846 225.904 66.0161C226.156 65.7595 226.325 65.433 226.389 65.0791C226.395 64.9543 226.39 64.8292 226.373 64.7054Z" fill="#DDC58E"/>
<path d="M234.66 233.87C234.66 233.949 183.509 234.007 120.43 234.007C57.3517 234.007 6.20117 233.949 6.20117 233.87C6.20117 233.791 57.3411 233.733 120.43 233.733C183.52 233.733 234.66 233.781 234.66 233.87Z" fill="#263238"/>
<path d="M36.0264 161.379C41.0325 153.715 40.8429 142.513 34.8578 135.585C32.9996 133.432 30.4044 131.564 27.5723 131.806C24.7403 132.048 22.3399 134.538 21.4661 137.312C20.5923 140.086 20.8923 143.102 21.4082 145.95C22.1346 149.961 23.3506 154.062 26.1458 157.042C28.941 160.021 32.4626 163.332 36.0527 161.379" fill="#D54539"/>
<path d="M33.7892 197.985C34.6907 195.757 34.8676 193.303 34.295 190.969C33.7224 188.635 32.4293 186.54 30.5992 184.983C29.4464 184.041 27.9672 183.314 26.5038 183.699C25.0404 184.083 24.056 185.578 23.8718 187.089C23.7558 188.621 24.0141 190.158 24.6245 191.568C25.3615 193.563 26.3617 195.569 28.0619 196.832C29.7622 198.096 32.1468 199.317 33.8103 197.985" fill="#D54539"/>
<path d="M45.8755 195.379C44.4963 188.584 48.0759 181.088 54.2243 177.887C56.1351 176.897 58.4829 176.308 60.4095 177.271C62.3361 178.234 63.3258 180.661 63.1678 182.862C63.0099 185.062 61.9571 187.073 60.7885 188.952C59.1566 191.584 57.1511 194.116 54.3611 195.432C51.5712 196.748 47.839 197.753 45.8755 195.379Z" fill="#D54539"/>
<path d="M45.0078 177.008C42.6074 169.265 46.6765 159.879 53.4303 155.426C55.5359 154.046 58.1995 153.088 60.5525 153.983C62.9055 154.878 64.3426 157.584 64.4163 160.158C64.49 162.732 63.5003 165.211 62.3633 167.528C60.7841 170.765 58.7364 173.96 55.6464 175.818C52.5564 177.677 47.5503 179.503 44.9868 176.997" fill="#D54539"/>
<path d="M40.1906 214.83C40.2302 214.709 40.2549 214.583 40.2643 214.456C40.3064 214.177 40.3644 213.819 40.4275 213.377C40.4591 213.14 40.496 212.877 40.5381 212.598C40.5802 212.319 40.6486 212.003 40.7118 211.677C40.8381 211.014 40.9697 210.261 41.1855 209.445C41.2856 209.029 41.3908 208.597 41.4961 208.15C41.6014 207.702 41.7646 207.25 41.9014 206.771C42.1594 205.813 42.5437 204.818 42.9016 203.76C44.5799 199.203 46.883 194.902 49.7448 190.979C50.4292 190.094 51.0451 189.226 51.7031 188.484C52.0242 188.099 52.3347 187.736 52.6295 187.378L53.5771 186.404C54.1403 185.773 54.693 185.246 55.1563 184.778L55.8248 184.12L56.4144 183.593L57.225 182.862C57.323 182.781 57.4129 182.691 57.4935 182.593C57.3814 182.654 57.2771 182.728 57.1829 182.814L56.3301 183.498L55.7195 183.999L55.0299 184.641C54.5351 185.099 53.9771 185.615 53.3875 186.22L52.4611 187.183C52.161 187.536 51.8452 187.904 51.5188 188.278C50.845 189.02 50.2186 189.889 49.5185 190.773C48.0813 192.745 46.7731 194.808 45.6021 196.948C44.4619 199.106 43.4665 201.338 42.6226 203.628C42.2699 204.681 41.8962 205.697 41.6488 206.671C41.5119 207.15 41.3856 207.613 41.2592 208.06C41.1329 208.508 41.0592 208.95 40.9645 209.366C40.7644 210.192 40.6486 210.945 40.5381 211.619C40.4854 211.951 40.4328 212.261 40.3854 212.545C40.338 212.83 40.3328 213.072 40.3064 213.335C40.2643 213.777 40.2328 214.14 40.2064 214.425C40.1786 214.558 40.1733 214.695 40.1906 214.83Z" fill="#263238"/>
<path d="M40.3633 216.236C40.3701 216.183 40.3701 216.13 40.3633 216.078C40.3633 215.956 40.3633 215.809 40.3317 215.63C40.2949 215.209 40.237 214.635 40.1738 213.909C40.137 213.535 40.0949 213.119 40.0475 212.672C40.0001 212.224 40.0054 211.719 39.9738 211.187C39.9369 210.134 39.8317 208.913 39.8738 207.576C39.8738 206.902 39.8738 206.202 39.8738 205.471C39.8738 204.739 39.9475 203.981 39.9843 203.197C40.037 201.617 40.2528 199.954 40.4423 198.19C41.422 190.559 43.6223 183.135 46.9591 176.203C47.7645 174.623 48.491 173.107 49.3069 171.76C49.707 171.081 50.0597 170.407 50.4545 169.791L51.5915 168.022C52.2916 166.875 53.0338 165.917 53.6445 165.048C53.9603 164.616 54.2393 164.211 54.5183 163.848L55.2974 162.874L56.3502 161.516L56.6239 161.158C56.6818 161.079 56.7134 161.037 56.7081 161.032C56.7029 161.026 56.666 161.063 56.5976 161.137L56.3028 161.474L55.1816 162.795L54.4025 163.769C54.1182 164.127 53.8287 164.527 53.5076 164.953C52.8812 165.817 52.1232 166.769 51.402 167.906L50.2439 169.67C49.8438 170.286 49.4806 170.96 49.0753 171.639C48.2488 172.986 47.4961 174.508 46.6959 176.087C43.3106 183.03 41.0995 190.487 40.1528 198.154C39.9685 199.922 39.7632 201.602 39.7211 203.181C39.6948 203.97 39.6316 204.734 39.6264 205.465C39.6211 206.197 39.6264 206.902 39.6264 207.571C39.6264 208.913 39.7211 210.129 39.779 211.193C39.8159 211.719 39.8369 212.245 39.879 212.677C39.9212 213.109 39.9843 213.54 40.0317 213.919C40.1212 214.64 40.1949 215.214 40.2475 215.635C40.2738 215.814 40.3002 215.956 40.3159 216.078C40.3247 216.132 40.3406 216.185 40.3633 216.236Z" fill="#263238"/>
<path d="M27.3193 141.06C27.337 141.11 27.3599 141.157 27.3878 141.202C27.4457 141.307 27.5141 141.444 27.6036 141.602L28.4564 143.134C28.6406 143.466 28.8617 143.829 29.0775 144.239L29.7461 145.587L30.5199 147.135C30.7778 147.687 31.0463 148.282 31.3042 148.903C31.5621 149.525 31.8727 150.177 32.1517 150.862C32.4307 151.546 32.6781 152.278 32.9834 153.02L33.4203 154.157C33.5519 154.552 33.6888 154.946 33.8257 155.352C34.0941 156.157 34.3521 156.989 34.6626 157.836C35.7155 161.274 36.7314 165.095 37.5789 169.159C38.4264 173.223 38.9791 177.14 39.4055 180.709C39.8319 184.278 40.0425 187.515 40.1162 190.236C40.1846 191.595 40.2004 192.821 40.2004 193.921C40.2004 195.021 40.2004 195.932 40.2004 196.69C40.2004 197.448 40.2004 198.017 40.2004 198.443V198.901C40.2004 199.001 40.2004 199.054 40.2004 199.054C40.2065 199.003 40.2065 198.952 40.2004 198.901C40.2004 198.78 40.2004 198.633 40.232 198.448C40.232 198.017 40.2794 197.432 40.3162 196.695C40.3531 195.958 40.3741 195 40.3741 193.921C40.3741 192.842 40.3741 191.605 40.3373 190.236C40.2899 187.51 40.0477 184.272 39.695 180.688C39.3424 177.103 38.7159 173.181 37.8895 169.107C37.063 165.032 36.0208 161.211 34.9416 157.763L34.0994 155.257C33.9625 154.852 33.8257 154.452 33.6888 154.062L33.2414 152.925L32.3886 150.767C32.1043 150.077 31.799 149.435 31.52 148.809C31.241 148.182 30.9936 147.593 30.7094 147.045C30.4251 146.498 30.183 145.992 29.9145 145.503C29.646 145.013 29.4302 144.576 29.2196 144.16C29.0091 143.745 28.7669 143.397 28.5722 143.071L27.6615 141.571C27.5667 141.413 27.4825 141.286 27.4193 141.186C27.3562 141.086 27.3246 141.055 27.3193 141.06Z" fill="#263238"/>
<path d="M29.0254 188.078C29.1744 188.405 29.3505 188.718 29.5518 189.015C29.9203 189.6 30.4204 190.468 31.0099 191.553C31.5995 192.637 32.2522 193.953 32.9102 195.443C33.5682 196.932 34.1894 198.601 34.7526 200.417C35.3159 202.233 35.716 203.96 36.0371 205.56C36.3582 207.16 36.5635 208.618 36.6635 209.85C36.7635 211.082 36.8635 212.072 36.8898 212.761C36.8902 213.114 36.9202 213.466 36.9793 213.814C37.0162 213.464 37.0285 213.113 37.0162 212.761C37.0162 212.066 37.0162 211.061 36.8951 209.829C36.7796 208.38 36.5916 206.938 36.3319 205.507C36.0031 203.756 35.5796 202.023 35.0632 200.317C34.5307 198.618 33.9033 196.95 33.184 195.322C32.5102 193.827 31.8364 192.511 31.2152 191.437C30.5941 190.363 30.0624 189.51 29.636 188.947C29.4517 188.644 29.2477 188.354 29.0254 188.078Z" fill="#263238"/>
<path d="M50.0294 211.393H28.0205L30.6841 233.87H47.2868L50.0294 211.393Z" fill="#CCA856"/>
<path d="M49.223 231.443L47.3542 233.87H30.6831L28.7617 231.522L49.223 231.443Z" fill="#263238"/>
<path d="M28.8779 217.988C28.8779 218.078 33.4471 218.152 39.0796 218.152C44.7121 218.152 49.276 218.078 49.276 217.988C49.276 217.899 44.7121 217.825 39.0796 217.825C33.4471 217.825 28.8779 217.915 28.8779 217.988Z" fill="#FAFAFA"/>
<path d="M28.8779 219.499C28.8779 219.589 33.4471 219.662 39.0796 219.662C44.7121 219.662 49.276 219.589 49.276 219.499C49.276 219.41 44.7121 219.336 39.0796 219.336C33.4471 219.336 28.8779 219.41 28.8779 219.499Z" fill="#FAFAFA"/>
<path d="M29.1523 220.947C29.1523 221.042 33.5583 221.115 38.9961 221.115C44.4338 221.115 48.8398 221.042 48.8398 220.947C48.8398 220.852 44.4338 220.784 38.9961 220.784C33.5583 220.784 29.1523 220.857 29.1523 220.947Z" fill="#FAFAFA"/>
<path d="M46.6653 162.948C46.6571 163.019 46.6571 163.092 46.6653 163.164C46.6653 163.327 46.6916 163.532 46.7127 163.774C46.7706 164.337 46.8443 165.095 46.939 166.011C47.139 167.901 47.4338 170.512 47.7707 173.381C47.7707 173.492 47.7707 173.602 47.8076 173.702V173.802H47.9076C50.7344 173.844 53.2769 173.871 55.114 173.881H57.2881H57.8776C58.0145 173.881 58.0829 173.881 58.0829 173.881C58.0176 173.864 57.9504 173.855 57.8829 173.855L57.2933 173.828L55.1193 173.76C53.2822 173.707 50.7396 173.655 47.9076 173.613L48.0181 173.707C48.0181 173.607 48.0181 173.497 47.9813 173.386C47.6444 170.507 47.3285 167.901 47.0864 166.017C46.9653 165.101 46.8653 164.348 46.7863 163.785C46.7548 163.543 46.7232 163.343 46.6969 163.179C46.7012 163.101 46.6905 163.022 46.6653 162.948Z" fill="#263238"/>
<path d="M51.6721 156.226C51.6601 156.299 51.6601 156.374 51.6721 156.447C51.6721 156.615 51.6721 156.826 51.6721 157.078C51.6721 157.657 51.6721 158.442 51.6721 159.4C51.7037 161.358 51.7563 164.064 51.83 167.048C51.83 167.17 51.83 167.291 51.83 167.401V167.517H51.9458C54.408 167.326 56.8787 167.27 59.347 167.349C60.2893 167.349 61.0526 167.417 61.579 167.443H62.1843H62.3949C62.3949 167.443 62.3265 167.443 62.1896 167.401L61.5842 167.333C61.0578 167.28 60.2998 167.217 59.3523 167.164C56.8785 167.042 54.3996 167.076 51.93 167.264L52.0511 167.375C52.0511 167.264 52.0511 167.143 52.0511 167.022C51.9774 164.032 51.8984 161.332 51.83 159.374C51.7931 158.421 51.7616 157.636 51.7405 157.057C51.7405 156.805 51.7405 156.594 51.7037 156.426C51.6993 156.358 51.6887 156.291 51.6721 156.226Z" fill="#263238"/>
<path d="M57.5245 153.936C57.4637 154.148 57.4179 154.364 57.3877 154.583C57.3035 155.036 57.1982 155.636 57.0613 156.352C56.7771 157.847 56.3296 159.905 55.7032 162.142L55.6348 162.379L55.8611 162.274L56.1243 162.142C57.9786 161.264 59.9622 160.69 61.999 160.442C62.7833 160.347 63.4203 160.311 63.8572 160.295C64.0859 160.305 64.3151 160.292 64.5415 160.258C64.484 160.248 64.4253 160.248 64.3678 160.258C64.252 160.258 64.0783 160.232 63.8414 160.232C63.2157 160.22 62.5899 160.246 61.9674 160.311C59.9044 160.517 57.8933 161.082 56.0243 161.979L55.7558 162.111L55.9138 162.237C56.449 160.315 56.883 158.367 57.214 156.399C57.3403 155.647 57.4245 155.036 57.4719 154.615C57.5135 154.391 57.5311 154.163 57.5245 153.936Z" fill="#263238"/>
<path d="M26.4463 194.916C26.4463 194.948 27.0885 194.885 28.115 194.843C29.45 194.792 30.7869 194.836 32.1156 194.974C32.4315 195.006 32.7421 195.048 33.0368 195.09H33.1421V194.99C33.3843 193.658 33.579 192.484 33.7159 191.642C33.8057 191.194 33.8637 190.74 33.8896 190.284C33.7505 190.719 33.6449 191.164 33.5738 191.616C33.4001 192.453 33.1737 193.621 32.9263 194.948L33.0526 194.858C32.7526 194.816 32.442 194.774 32.1209 194.743C30.7816 194.599 29.4321 194.576 28.0887 194.674C27.5623 194.716 27.1569 194.769 26.8727 194.811C26.7269 194.829 26.5838 194.864 26.4463 194.916Z" fill="#263238"/>
<path d="M24.3721 190.784C24.3721 190.821 24.988 190.679 25.9829 190.552C27.2794 190.394 28.5895 190.382 29.8888 190.515L30.5784 190.6H30.6942V190.489C30.831 189.12 30.9416 187.904 31.0153 187.036C31.0748 186.57 31.0976 186.1 31.0837 185.63C30.9803 186.088 30.9082 186.553 30.8679 187.02C30.7573 187.889 30.6205 189.099 30.4731 190.463L30.5994 190.368L29.8888 190.294C28.5738 190.157 27.2465 190.193 25.9407 190.4C25.5454 190.461 25.1535 190.544 24.7669 190.647C24.6304 190.677 24.4979 190.723 24.3721 190.784Z" fill="#263238"/>
<path d="M22.8779 151.662C22.9477 151.707 23.0218 151.746 23.099 151.777L23.7412 152.062L26.1206 153.072L34.0166 156.341L34.443 156.515L34.543 156.557L34.5851 156.457C35.8853 153.52 37.0539 150.877 37.9172 148.935L38.8963 146.661L39.1543 146.04C39.1856 145.967 39.2103 145.891 39.228 145.813C39.1826 145.878 39.1438 145.946 39.1122 146.019C39.0332 146.182 38.9385 146.382 38.8174 146.624L37.7646 148.872L34.3693 156.368L34.5167 156.31L34.0903 156.136L26.2048 152.925L23.7991 151.978L23.1411 151.73C23.0571 151.695 22.9685 151.672 22.8779 151.662Z" fill="#263238"/>
<path d="M20.9395 142.15C20.9993 142.204 21.0645 142.251 21.1342 142.292L21.7133 142.665L23.861 144.003L31.0253 148.377L31.1411 148.445L31.1885 148.319L31.3201 147.972L34.3259 139.865C34.6891 138.849 34.9891 138.012 35.2102 137.401L35.4418 136.728C35.4745 136.65 35.4957 136.569 35.505 136.486C35.4643 136.558 35.4291 136.634 35.3997 136.712L35.1523 137.37C34.9207 137.975 34.5943 138.802 34.1995 139.812C33.4099 141.918 32.3308 144.75 31.1359 147.898C31.0938 148.014 31.0464 148.135 31.0095 148.24L31.1674 148.182L23.9505 143.871L21.7659 142.592L21.1658 142.255C21.0945 142.211 21.0186 142.176 20.9395 142.15Z" fill="#263238"/>
<path d="M21.582 137.075C21.7301 137.184 21.8888 137.277 22.0558 137.354C22.3664 137.528 22.8138 137.78 23.356 138.117C24.795 139.008 26.1314 140.055 27.3409 141.239L27.6199 141.507L27.5251 141.128C27.4304 140.739 27.3409 140.323 27.2724 139.897C26.9706 137.941 27.0764 135.945 27.583 134.033C27.7414 133.453 27.9294 132.882 28.1463 132.322C28.2427 132.124 28.322 131.918 28.3831 131.706C28.2621 131.892 28.1565 132.087 28.0673 132.29C27.8189 132.841 27.6062 133.407 27.4304 133.985C26.8726 135.915 26.7432 137.943 27.0514 139.928C27.1198 140.365 27.2145 140.786 27.3146 141.186L27.4988 141.081C26.2729 139.885 24.9066 138.842 23.4297 137.975C22.8717 137.654 22.4137 137.417 22.0926 137.27C21.9286 137.19 21.7577 137.125 21.582 137.075Z" fill="#263238"/>
<path d="M46.6973 186.404C46.7114 186.597 46.7449 186.787 46.7973 186.973C46.871 187.336 46.9815 187.862 47.1026 188.515C47.42 190.238 47.6187 191.981 47.6974 193.732V193.832H47.7869H48.2817C50.4663 193.963 52.4403 194.074 53.8721 194.137L55.5671 194.206C55.7737 194.225 55.9817 194.225 56.1883 194.206C55.9859 194.16 55.7797 194.133 55.5724 194.127L53.8827 193.984C52.4508 193.879 50.4768 193.748 48.2975 193.616L47.8027 193.59L47.908 193.695C47.8304 191.952 47.6139 190.218 47.2605 188.51C47.1184 187.852 46.9868 187.331 46.8815 186.973C46.8389 186.778 46.7772 186.587 46.6973 186.404Z" fill="#263238"/>
<path d="M51.0193 180.224C51.0127 180.416 51.0251 180.608 51.0561 180.798C51.1035 181.203 51.1614 181.73 51.2351 182.377C51.393 183.699 51.6299 185.536 51.9089 187.599V187.689H51.9984L52.7038 187.736C54.941 187.889 56.9571 188.12 58.4152 188.31L60.1418 188.541C60.3502 188.581 60.5615 188.602 60.7735 188.605C60.5721 188.534 60.3639 188.485 60.1524 188.457C59.7523 188.373 59.1627 188.268 58.4363 188.152C56.9834 187.926 54.962 187.668 52.7196 187.515L52.0089 187.468L52.1142 187.562C51.83 185.504 51.5878 183.667 51.3667 182.351C51.2667 181.725 51.1877 181.203 51.1246 180.798C51.1108 180.604 51.0755 180.411 51.0193 180.224Z" fill="#263238"/>
<path d="M56.1081 177.55C56.0765 177.55 56.2134 178.156 56.366 179.129C56.5771 180.418 56.6967 181.719 56.724 183.025V183.146H56.8503L57.2188 183.098C58.5969 182.932 59.9839 182.849 61.3721 182.851H62.6407C62.7946 182.869 62.9501 182.869 63.104 182.851C62.9552 182.807 62.8012 182.782 62.646 182.777C62.346 182.746 61.9143 182.709 61.3774 182.693C59.9799 182.643 58.5806 182.702 57.1925 182.872L56.8187 182.919L56.9451 183.03C56.916 181.715 56.7733 180.404 56.5187 179.114C56.4187 178.624 56.3239 178.229 56.2502 177.961C56.2232 177.818 56.1753 177.679 56.1081 177.55Z" fill="#263238"/>
<path d="M27.1152 183.772C27.3971 184.536 27.7259 185.281 28.0996 186.004C28.4053 186.758 28.7569 187.493 29.1524 188.205C28.9677 187.398 28.6848 186.616 28.3102 185.878C27.9962 185.131 27.5951 184.425 27.1152 183.772Z" fill="#263238"/>
<path d="M24.3506 186.683C25.1932 186.812 26.0279 186.988 26.851 187.21C27.6524 187.497 28.4363 187.831 29.1988 188.21C28.5417 187.634 27.7595 187.22 26.9142 186.999C26.0952 186.699 25.218 186.59 24.3506 186.683Z" fill="#263238"/>
</svg>
